{
.appVersion = "3239";
.formatVersion = 3;
DisplayStrings = (
"®€¥£฿₩₪₴₹₽
¶†‡§^¢100h¦h™ +<=>± ×∂∏∑−√∞ "
);
date = "2023-10-16 11:25:55 +0000";
familyName = Wheatpaste039;
fontMaster = (
{
iconName = Bold;
id = m01;
metricValues = (
{
over = 16;
pos = 800;
},
{
over = 16;
pos = 700;
},
{
over = 16;
pos = 500;
},
{
over = -16;
},
{
over = -16;
pos = -200;
},
{
}
);
name = Bold;
userData = {
GSCornerRadius = 111;
};
}
);
glyphs = (
{
glyphname = A;
lastChange = "2024-02-14 17:17:26 +0000";
layers = (
{
layerId = m01;
shapes = (
{
closed = 1;
nodes = (
(76,59,o),
(78,57,o),
(82,57,cs),
(100,57,o),
(156,102,o),
(161,125,cs),
(197,289,o),
(241,452,o),
(276,615,cs),
(283,649,o),
(174,547,o),
(168,521,cs),
(135,369,o),
(110,217,o),
(77,65,cs)
);
},
{
closed = 1;
nodes = (
(30,150,o),
(-10,38,o),
(-10,7,cs),
(-10,3,o),
(-9,0,o),
(-6,0,cs),
(-5,0,o),
(-3,1,o),
(-1,3,cs),
(17,19,o),
(48,29,o),
(77,29,cs),
(104,29,o),
(130,20,o),
(144,1,cs),
(157,-17,o),
(210,122,o),
(210,160,cs),
(210,164,o),
(209,167,o),
(208,169,cs),
(193,189,o),
(166,199,o),
(136,199,cs),
(105,199,o),
(72,188,o),
(49,167,cs)
);
},
{
closed = 1;
nodes = (
(81,407,o),
(24,237,o),
(34,237,cs),
(63,237,o),
(92,237,o),
(121,237,c),
(124,236,o),
(131,243,o),
(135,243,c),
(193,243,o),
(249,242,o),
(305,242,c),
(312,244,o),
(321,238,o),
(327,238,cs),
(328,238,o),
(329,238,o),
(330,238,c),
(365,238,o),
(401,238,o),
(437,238,cs),
(449,238,o),
(509,408,o),
(497,408,cs),
(462,408,o),
(426,408,o),
(390,408,c),
(379,405,o),
(370,394,o),
(359,392,c),
(305,391,o),
(251,390,o),
(198,389,c),
(191,392,o),
(189,404,o),
(181,407,c),
(152,407,o),
(123,407,o),
(94,407,cs)
);
},
{
closed = 1;
nodes = (
(386,719,o),
(244,615,o),
(276,615,cs),
(284,615,o),
(286,554,o),
(286,470,cs),
(286,373,o),
(283,246,o),
(283,149,cs),
(283,115,o),
(284,86,o),
(284,62,cs),
(286,18,o),
(299,0,o),
(325,0,cs),
(333,0,o),
(342,1,o),
(351,4,cs),
(381,13,o),
(475,110,o),
(475,129,cs),
(475,132,o),
(472,134,o),
(467,132,cs),
(460,130,o),
(453,129,o),
(448,129,cs),
(427,129,o),
(415,143,o),
(414,184,cs),
(413,193,o),
(413,203,o),
(413,214,cs),
(413,320,o),
(427,503,o),
(427,617,cs),
(427,678,o),
(423,719,o),
(412,719,cs)
);
},
{
closed = 1;
nodes = (
(235,598,o),
(231,563,o),
(231,537,cs),
(231,522,o),
(233,511,o),
(236,511,cs),
(273,540,o),
(297,558,o),
(325,580,cs),
(331,585,o),
(335,622,o),
(335,647,cs),
(335,662,o),
(333,672,o),
(330,672,c),
(300,649,o),
(271,626,o),
(241,603,cs)
);
}
);
width = 534;
}
);
unicode = 65;
},
{
glyphname = AE;
lastChange = "2024-02-14 17:17:26 +0000";
layers = (
{
layerId = m01;
shapes = (
{
closed = 1;
nodes = (
(75,60,o),
(77,57,o),
(82,57,cs),
(99,57,o),
(153,99,o),
(161,123,cs),
(216,294,o),
(278,463,o),
(334,634,cs),
(335,639,o),
(334,642,o),
(331,642,cs),
(314,642,o),
(236,573,o),
(226,542,cs),
(175,384,o),
(129,225,o),
(77,67,cs)
);
},
{
closed = 1;
nodes = (
(30,150,o),
(-10,38,o),
(-10,7,cs),
(-10,3,o),
(-9,0,o),
(-6,0,cs),
(-5,0,o),
(-3,1,o),
(-1,3,cs),
(17,19,o),
(48,29,o),
(77,29,cs),
(104,29,o),
(130,20,o),
(144,1,cs),
(157,-17,o),
(210,122,o),
(210,160,cs),
(210,164,o),
(209,167,o),
(208,169,cs),
(193,189,o),
(166,199,o),
(136,199,cs),
(105,199,o),
(72,188,o),
(49,167,cs)
);
},
{
closed = 1;
nodes = (
(92,408,o),
(35,238,o),
(45,238,cs),
(74,238,o),
(103,238,o),
(132,238,c),
(130,239,o),
(135,245,o),
(136,243,c),
(200,243,o),
(262,242,o),
(325,242,cs),
(336,242,o),
(389,392,o),
(379,392,cs),
(319,391,o),
(258,389,o),
(198,389,c),
(196,392,o),
(196,408,o),
(192,408,cs),
(163,408,o),
(134,408,o),
(105,408,cs)
);
},
{
closed = 1;
nodes = (
(429,640,o),
(426,642,o),
(422,642,cs),
(403,642,o),
(346,597,o),
(344,575,cs),
(325,390,o),
(308,200,o),
(290,29,cs),
(287,5,o),
(292,-1,o),
(299,-1,cs),
(304,-1,o),
(310,3,o),
(314,6,cs),
(332,22,o),
(341,30,o),
(356,30,cs),
(367,30,o),
(380,26,o),
(401,19,cs),
(438,8,o),
(480,-2,o),
(520,-2,cs),
(555,-2,o),
(587,5,o),
(610,25,cs),
(628,40,o),
(660,149,o),
(660,185,cs),
(660,193,o),
(659,197,o),
(656,197,cs),
(655,197,o),
(653,196,o),
(652,195,cs),
(633,180,o),
(600,173,o),
(564,173,cs),
(530,173,o),
(493,179,o),
(463,189,cs),
(446,194,o),
(433,198,o),
(421,198,cs),
(400,198,o),
(383,187,o),
(350,160,c),
(358,152,o),
(366,144,o),
(374,137,c),
(392,314,o),
(411,472,o),
(428,635,cs)
);
},
{
closed = 1;
nodes = (
(351,438,o),
(305,314,o),
(305,278,cs),
(305,272,o),
(306,268,o),
(309,268,cs),
(401,269,o),
(492,269,o),
(583,269,cs),
(600,269,o),
(647,392,o),
(647,429,cs),
(647,435,o),
(646,439,o),
(643,439,cs),
(551,438,o),
(460,438,o),
(369,438,cs)
);
},
{
closed = 1;
nodes = (
(664,538,o),
(699,654,o),
(699,692,cs),
(699,700,o),
(697,705,o),
(694,705,cs),
(694,705,o),
(693,705,o),
(693,704,cs),
(682,700,o),
(665,698,o),
(645,698,cs),
(602,698,o),
(545,705,o),
(490,705,cs),
(455,705,o),
(422,703,o),
(394,693,cs),
(377,688,o),
(342,571,o),
(342,532,cs),
(342,525,o),
(344,520,o),
(347,520,c),
(374,529,o),
(406,532,o),
(440,532,cs),
(493,532,o),
(550,525,o),
(594,525,cs),
(616,525,o),
(634,527,o),
(647,532,cs)
);
},
{
closed = 1;
nodes = (
(299,624,o),
(295,588,o),
(295,563,cs),
(295,548,o),
(297,536,o),
(300,536,cs),
(339,562,o),
(363,580,o),
(392,600,cs),
(398,604,o),
(402,632,o),
(402,656,cs),
(402,678,o),
(399,697,o),
(392,692,cs),
(363,671,o),
(335,649,o),
(305,628,cs)
);
}
);
width = 699;
}
);
unicode = 198;
},
{
glyphname = B;
lastChange = "2024-02-14 17:17:26 +0000";
layers = (
{
layerId = m01;
shapes = (
{
closed = 1;
nodes = (
(290,-3,o),
(413,143,o),
(390,147,cs),
(258,172,o),
(173,184,o),
(118,184,cs),
(81,184,o),
(57,179,o),
(41,168,cs),
(22,155,o),
(-20,39,o),
(-20,7,cs),
(-20,2,o),
(-19,-1,o),
(-16,-1,cs),
(-15,-1,o),
(-14,-1,o),
(-13,0,cs),
(-9,3,o),
(26,18,o),
(103,18,cs),
(145,18,o),
(200,14,o),
(270,1,cs)
);
},
{
closed = 1;
nodes = (
(165,602,o),
(161,606,o),
(154,606,cs),
(133,606,o),
(79,560,o),
(73,529,cs),
(55,425,o),
(28,118,o),
(26,106,cs),
(26,98,o),
(29,94,o),
(35,94,cs),
(56,94,o),
(111,143,o),
(114,172,cs),
(114,172,o),
(147,501,o),
(163,591,cs)
);
},
{
closed = 1;
nodes = (
(233,313,o),
(224,295,o),
(224,283,cs),
(224,275,o),
(229,270,o),
(238,270,cs),
(254,270,o),
(284,288,o),
(315,326,cs),
(396,426,o),
(428,504,o),
(428,563,cs),
(428,671,o),
(320,716,o),
(216,716,cs),
(185,716,o),
(155,712,o),
(128,705,cs),
(105,699,o),
(13,543,o),
(42,551,cs),
(79,560,o),
(113,565,o),
(144,565,cs),
(241,565,o),
(302,520,o),
(302,453,cs),
(302,419,o),
(287,380,o),
(253,338,cs)
);
},
{
closed = 1;
nodes = (
(109,484,o),
(60,356,o),
(60,319,cs),
(60,314,o),
(61,310,o),
(63,309,cs),
(284,240,o),
(338,203,o),
(338,173,cs),
(338,159,o),
(326,146,o),
(314,132,cs),
(285,98,o),
(273,70,o),
(273,54,cs),
(273,44,o),
(278,38,o),
(287,38,cs),
(302,38,o),
(328,54,o),
(360,92,cs),
(433,180,o),
(464,242,o),
(464,289,cs),
(464,395,o),
(307,421,o),
(125,479,cs)
);
}
);
width = 494;
}
);
unicode = 66;
},
{
glyphname = C;
lastChange = "2024-02-14 17:17:26 +0000";
layers = (
{
guides = (
{
pos = (683,541);
}
);
layerId = m01;
shapes = (
{
closed = 1;
nodes = (
(361,616,o),
(364,622,o),
(364,625,cs),
(364,627,o),
(363,628,o),
(360,628,cs),
(341,628,o),
(261,582,o),
(224,543,cs),
(67,380,o),
(10,251,o),
(10,159,cs),
(10,43,o),
(99,-16,o),
(190,-16,cs),
(238,-16,o),
(287,1,o),
(323,35,cs),
(353,63,o),
(419,218,o),
(402,218,cs),
(401,218,o),
(398,216,o),
(395,213,cs),
(357,177,o),
(308,159,o),
(263,159,cs),
(202,159,o),
(150,193,o),
(150,266,cs),
(150,339,o),
(202,452,o),
(352,607,cs)
);
},
{
closed = 1;
nodes = (
(398,587,o),
(435,693,o),
(435,724,cs),
(435,729,o),
(434,732,o),
(432,732,cs),
(430,732,o),
(428,730,o),
(425,727,cs),
(413,715,o),
(375,706,o),
(336,706,cs),
(299,706,o),
(260,714,o),
(241,732,cs),
(227,745,o),
(175,614,o),
(175,574,cs),
(175,569,o),
(175,566,o),
(177,564,cs),
(198,545,o),
(237,536,o),
(277,536,cs),
(318,536,o),
(359,546,o),
(377,565,cs)
);
}
);
width = 464;
}
);
unicode = 67;
},
{
glyphname = D;
lastChange = "2024-02-14 17:17:26 +0000";
layers = (
{
layerId = m01;
shapes = (
{
closed = 1;
nodes = (
(98,724,o),
(47,594,o),
(47,555,cs),
(47,550,o),
(48,546,o),
(50,545,cs),
(281,440,o),
(355,313,o),
(355,213,cs),
(355,176,o),
(344,142,o),
(328,115,cs),
(317,98,o),
(313,85,o),
(313,76,cs),
(313,65,o),
(319,60,o),
(327,60,cs),
(341,60,o),
(365,76,o),
(386,111,cs),
(431,184,o),
(452,254,o),
(452,321,cs),
(452,482,o),
(328,619,o),
(114,717,cs)
);
},
{
closed = 1;
nodes = (
(47,72,o),
(68,58,o),
(89,58,cs),
(108,58,o),
(127,70,o),
(128,95,cs),
(136,258,o),
(156,474,o),
(156,579,cs),
(156,612,o),
(154,634,o),
(150,641,cs),
(141,651,o),
(131,656,o),
(120,656,cs),
(98,656,o),
(77,638,o),
(77,616,cs),
(77,608,o),
(80,600,o),
(86,591,cs),
(87,591,o),
(61,358,o),
(48,99,cs)
);
},
{
closed = 1;
nodes = (
(299,-3,o),
(391,107,o),
(391,141,cs),
(391,146,o),
(389,150,o),
(383,150,cs),
(236,166,o),
(164,184,o),
(119,184,cs),
(96,184,o),
(80,179,o),
(65,167,cs),
(46,152,o),
(5,38,o),
(5,7,cs),
(5,2,o),
(6,-1,o),
(8,-1,cs),
(9,-1,o),
(11,-1,o),
(13,1,cs),
(21,7,o),
(36,13,o),
(85,13,cs),
(123,13,o),
(181,9,o),
(271,0,cs)
);
}
);
width = 512;
}
);
unicode = 68;
},
{
glyphname = E;
lastChange = "2024-02-14 17:17:26 +0000";
layers = (
{
layerId = m01;
shapes = (
{
closed = 1;
nodes = (
(178,640,o),
(175,642,o),
(171,642,cs),
(152,642,o),
(95,597,o),
(93,575,cs),
(74,390,o),
(57,200,o),
(39,29,cs),
(36,5,o),
(41,-1,o),
(48,-1,cs),
(53,-1,o),
(59,3,o),
(63,6,cs),
(79,21,o),
(98,28,o),
(121,28,cs),
(136,28,o),
(152,25,o),
(170,19,cs),
(207,8,o),
(249,-2,o),
(289,-2,cs),
(324,-2,o),
(356,5,o),
(379,25,cs),
(397,40,o),
(429,149,o),
(429,185,cs),
(429,193,o),
(428,197,o),
(425,197,cs),
(424,197,o),
(422,196,o),
(421,195,cs),
(402,180,o),
(369,173,o),
(333,173,cs),
(299,173,o),
(262,179,o),
(232,189,cs),
(212,195,o),
(196,199,o),
(181,199,cs),
(156,199,o),
(133,188,o),
(99,160,c),
(107,152,o),
(115,144,o),
(123,137,c),
(141,314,o),
(160,472,o),
(177,635,cs)
);
},
{
closed = 1;
nodes = (
(71,438,o),
(25,314,o),
(25,278,cs),
(25,272,o),
(26,268,o),
(29,268,cs),
(137,269,o),
(245,269,o),
(352,269,cs),
(369,269,o),
(416,392,o),
(416,429,cs),
(416,435,o),
(415,439,o),
(412,439,cs),
(304,438,o),
(196,438,o),
(89,438,cs)
);
},
{
closed = 1;
nodes = (
(435,545,o),
(468,657,o),
(468,693,cs),
(468,700,o),
(467,705,o),
(464,705,cs),
(463,705,o),
(462,705,o),
(460,703,cs),
(450,696,o),
(430,693,o),
(404,693,cs),
(350,693,o),
(271,705,o),
(204,705,cs),
(159,705,o),
(120,699,o),
(98,681,cs),
(80,666,o),
(49,556,o),
(49,520,cs),
(49,513,o),
(50,509,o),
(53,509,cs),
(54,509,o),
(55,510,o),
(56,511,cs),
(75,526,o),
(108,531,o),
(148,531,cs),
(211,531,o),
(289,519,o),
(347,519,cs),
(378,519,o),
(404,522,o),
(418,533,cs)
);
}
);
width = 498;
}
);
unicode = 69;
},
{
glyphname = F;
lastChange = "2024-02-14 17:17:26 +0000";
layers = (
{
layerId = m01;
shapes = (
{
closed = 1;
nodes = (
(180,648,o),
(178,650,o),
(175,650,cs),
(157,650,o),
(100,597,o),
(98,574,cs),
(81,405,o),
(65,236,o),
(48,68,cs),
(48,62,o),
(49,60,o),
(53,60,cs),
(71,60,o),
(128,114,o),
(130,136,cs),
(147,305,o),
(163,474,o),
(180,642,cs)
);
},
{
closed = 1;
nodes = (
(434,555,o),
(463,660,o),
(463,696,cs),
(463,704,o),
(462,708,o),
(459,708,cs),
(458,708,o),
(456,707,o),
(454,705,cs),
(443,695,o),
(411,692,o),
(371,692,cs),
(314,692,o),
(241,698,o),
(186,698,cs),
(153,698,o),
(127,696,o),
(114,690,cs),
(96,680,o),
(55,563,o),
(55,529,cs),
(55,523,o),
(56,520,o),
(59,520,cs),
(60,520,o),
(61,520,o),
(62,520,cs),
(71,525,o),
(90,527,o),
(114,527,cs),
(169,527,o),
(252,518,o),
(317,518,cs),
(362,518,o),
(399,522,o),
(414,537,cs)
);
},
{
closed = 1;
nodes = (
(363,282,o),
(396,394,o),
(396,432,cs),
(396,440,o),
(395,445,o),
(392,445,cs),
(391,445,o),
(390,445,o),
(389,444,cs),
(379,439,o),
(356,437,o),
(327,437,cs),
(280,437,o),
(218,441,o),
(168,441,cs),
(130,441,o),
(100,439,o),
(86,431,cs),
(68,420,o),
(35,308,o),
(35,270,cs),
(35,263,o),
(36,258,o),
(39,258,cs),
(40,258,o),
(41,258,o),
(42,259,cs),
(53,265,o),
(78,267,o),
(110,267,cs),
(158,267,o),
(221,263,o),
(270,263,cs),
(305,263,o),
(333,265,o),
(345,272,cs)
);
},
{
closed = 1;
nodes = (
(29,148,o),
(-10,39,o),
(-10,8,cs),
(-10,2,o),
(-9,-1,o),
(-6,-1,cs),
(-5,-1,o),
(-3,0,o),
(-1,2,cs),
(17,18,o),
(47,28,o),
(76,28,cs),
(103,28,o),
(129,19,o),
(144,0,cs),
(158,-17,o),
(210,120,o),
(210,159,cs),
(210,163,o),
(209,166,o),
(208,168,cs),
(192,188,o),
(165,198,o),
(135,198,cs),
(104,198,o),
(72,187,o),
(49,166,cs)
);
}
);
width = 434;
}
);
unicode = 70;
},
{
glyphname = G;
lastChange = "2024-02-14 17:17:26 +0000";
layers = (
{
layerId = m01;
shapes = (
{
closed = 1;
nodes = (
(383,624,o),
(387,631,o),
(387,635,cs),
(387,639,o),
(383,641,o),
(376,641,cs),
(355,641,o),
(310,625,o),
(281,599,cs),
(85,426,o),
(5,273,o),
(5,159,cs),
(5,96,o),
(30,45,o),
(73,9,cs),
(111,-22,o),
(170,-16,o),
(184,-16,cs),
(193,-16,o),
(372,140,o),
(404,186,cs),
(411,198,o),
(415,213,o),
(415,224,cs),
(415,236,o),
(411,244,o),
(406,244,cs),
(402,244,o),
(397,241,o),
(392,234,cs),
(376,209,o),
(264,116,o),
(264,116,cs),
(260,116,o),
(226,115,o),
(199,137,cs),
(160,170,o),
(138,211,o),
(138,262,cs),
(138,352,o),
(209,470,o),
(373,615,cs)
);
},
{
closed = 1;
nodes = (
(255,357,o),
(186,257,o),
(203,257,cs),
(206,257,o),
(212,260,o),
(221,267,cs),
(228,273,o),
(241,277,o),
(254,277,cs),
(283,277,o),
(316,260,o),
(313,200,cs),
(310,135,o),
(301,72,o),
(294,6,cs),
(293,-5,o),
(293,-15,o),
(293,-25,cs),
(293,-72,o),
(306,-104,o),
(335,-100,cs),
(362,-97,o),
(488,33,o),
(455,28,cs),
(439,26,o),
(433,38,o),
(433,68,cs),
(433,80,o),
(434,96,o),
(436,114,cs),
(442,178,o),
(451,244,o),
(455,308,cs),
(457,365,o),
(413,414,o),
(360,414,cs),
(339,414,o),
(318,407,o),
(297,391,cs)
);
},
{
closed = 1;
nodes = (
(392,587,o),
(429,693,o),
(429,724,cs),
(429,729,o),
(428,732,o),
(426,732,cs),
(424,732,o),
(422,730,o),
(419,727,cs),
(407,715,o),
(369,706,o),
(330,706,cs),
(293,706,o),
(254,714,o),
(235,732,cs),
(221,745,o),
(169,614,o),
(169,574,cs),
(169,569,o),
(169,566,o),
(171,564,cs),
(192,545,o),
(231,536,o),
(271,536,cs),
(312,536,o),
(353,546,o),
(371,565,cs)
);
}
);
width = 525;
}
);
unicode = 71;
},
{
glyphname = H;
lastChange = "2024-02-14 17:17:26 +0000";
layers = (
{
guides = (
{
pos = (103,-2);
},
{
pos = (204,711);
},
{
pos = (1015,217);
}
);
layerId = m01;
shapes = (
{
closed = 1;
nodes = (
(87,438,o),
(40,313,o),
(40,278,cs),
(40,272,o),
(41,268,o),
(44,268,cs),
(188,269,o),
(333,269,o),
(477,269,cs),
(494,269,o),
(541,393,o),
(541,429,cs),
(541,435,o),
(540,439,o),
(537,439,cs),
(393,438,o),
(248,438,o),
(104,438,cs)
);
},
{
closed = 1;
nodes = (
(168,702,o),
(38,571,o),
(77,580,cs),
(84,582,o),
(93,570,o),
(93,525,cs),
(93,515,o),
(93,503,o),
(92,488,cs),
(82,361,o),
(72,234,o),
(63,106,cs),
(57,39,o),
(81,-4,o),
(104,0,cs),
(134,5,o),
(261,138,o),
(226,132,cs),
(207,129,o),
(202,136,o),
(202,153,cs),
(202,168,o),
(205,189,o),
(207,218,cs),
(217,345,o),
(227,472,o),
(236,600,cs),
(241,660,o),
(230,717,o),
(199,710,cs)
);
},
{
closed = 1;
nodes = (
(437,702,o),
(307,571,o),
(346,580,cs),
(353,582,o),
(362,570,o),
(362,525,cs),
(362,515,o),
(362,503,o),
(361,488,cs),
(351,361,o),
(341,234,o),
(332,106,cs),
(326,39,o),
(350,-4,o),
(373,0,cs),
(403,5,o),
(530,138,o),
(495,132,cs),
(476,129,o),
(471,136,o),
(471,153,cs),
(471,168,o),
(474,189,o),
(476,218,cs),
(486,345,o),
(496,472,o),
(505,600,cs),
(510,660,o),
(499,717,o),
(468,710,cs)
);
}
);
width = 581;
}
);
unicode = 72;
},
{
glyphname = I;
lastChange = "2024-02-14 17:17:26 +0000";
layers = (
{
layerId = m01;
shapes = (
{
closed = 1;
nodes = (
(156,702,o),
(26,571,o),
(65,580,cs),
(72,582,o),
(81,571,o),
(81,526,cs),
(81,515,o),
(81,503,o),
(80,488,cs),
(70,361,o),
(60,234,o),
(51,106,cs),
(45,39,o),
(69,-4,o),
(92,0,cs),
(122,5,o),
(249,138,o),
(214,132,cs),
(195,129,o),
(190,136,o),
(190,153,cs),
(190,168,o),
(193,189,o),
(195,218,cs),
(205,345,o),
(215,472,o),
(224,600,cs),
(229,661,o),
(218,717,o),
(187,710,cs)
);
}
);
width = 275;
}
);
unicode = 73;
},
{
glyphname = J;
lastChange = "2024-02-14 17:17:26 +0000";
layers = (
{
layerId = m01;
shapes = (
{
closed = 1;
nodes = (
(103,-23,o),
(215,118,o),
(211,141,cs),
(202,180,o),
(144,249,o),
(97,249,cs),
(92,249,o),
(87,249,o),
(82,247,cs),
(54,237,o),
(-54,93,o),
(-18,105,cs),
(-16,106,o),
(-13,107,o),
(-9,107,cs),
(28,107,o),
(89,41,o),
(97,3,cs)
);
},
{
closed = 1;
nodes = (
(322,702,o),
(192,571,o),
(231,580,cs),
(238,582,o),
(248,570,o),
(248,529,cs),
(248,518,o),
(247,504,o),
(246,488,cs),
(236,399,o),
(226,309,o),
(217,219,cs),
(203,96,o),
(201,120,o),
(199,119,cs),
(144,76,o),
(87,3,o),
(103,3,cs),
(108,3,o),
(118,8,o),
(135,21,cs),
(356,193,o),
(356,281,o),
(361,331,cs),
(371,420,o),
(381,510,o),
(390,600,cs),
(392,610,o),
(392,620,o),
(392,630,cs),
(392,678,o),
(379,716,o),
(353,710,cs)
);
}
);
width = 427;
}
);
unicode = 74;
},
{
glyphname = K;
lastChange = "2024-02-14 17:17:26 +0000";
layers = (
{
layerId = m01;
shapes = (
{
closed = 1;
nodes = (
(295,459,o),
(175,324,o),
(193,314,cs),
(212,303,o),
(300,10,o),
(395,0,cs),
(417,-2,o),
(534,135,o),
(509,138,cs),
(422,146,o),
(334,437,o),
(311,450,cs)
);
},
{
closed = 1;
nodes = (
(140,698,o),
(46,599,o),
(46,581,cs),
(46,577,o),
(49,576,o),
(55,579,cs),
(63,582,o),
(68,573,o),
(68,538,cs),
(68,527,o),
(68,513,o),
(67,496,cs),
(57,370,o),
(47,244,o),
(38,118,cs),
(36,102,o),
(35,87,o),
(35,72,cs),
(35,30,o),
(44,0,o),
(78,0,cs),
(104,0,o),
(235,152,o),
(202,152,cs),
(186,152,o),
(180,159,o),
(180,187,cs),
(180,197,o),
(181,212,o),
(182,230,cs),
(192,356,o),
(202,482,o),
(211,608,cs),
(215,657,o),
(210,711,o),
(181,711,cs),
(178,711,o),
(175,711,o),
(171,709,cs)
);
},
{
closed = 1;
nodes = (
(497,567,o),
(535,675,o),
(535,706,cs),
(535,711,o),
(534,714,o),
(532,714,cs),
(530,714,o),
(528,713,o),
(526,711,cs),
(508,695,o),
(478,685,o),
(449,685,cs),
(422,685,o),
(396,694,o),
(381,713,cs),
(368,729,o),
(315,596,o),
(315,555,cs),
(315,551,o),
(315,547,o),
(317,545,cs),
(333,525,o),
(360,515,o),
(390,515,cs),
(421,515,o),
(453,526,o),
(476,547,cs)
);
},
{
closed = 1;
nodes = (
(502,600,o),
(471,607,o),
(439,607,cs),
(416,607,o),
(393,604,o),
(386,596,cs),
(364,570,o),
(73,259,o),
(65,251,cs),
(54,239,o),
(86,232,o),
(117,232,cs),
(141,232,o),
(164,236,o),
(171,243,cs),
(179,252,o),
(469,563,o),
(492,588,cs)
);
}
);
width = 559;
}
);
unicode = 75;
},
{
glyphname = L;
lastChange = "2024-02-14 17:17:26 +0000";
layers = (
{
layerId = m01;
shapes = (
{
closed = 1;
nodes = (
(55,99,o),
(13,-1,o),
(28,-1,cs),
(31,-1,o),
(36,2,o),
(43,11,cs),
(61,32,o),
(91,47,o),
(123,47,cs),
(138,47,o),
(154,44,o),
(169,37,cs),
(197,23,o),
(236,2,o),
(274,2,cs),
(291,2,o),
(308,6,o),
(325,18,cs),
(345,32,o),
(386,144,o),
(386,177,cs),
(386,183,o),
(385,186,o),
(382,186,cs),
(380,186,o),
(379,185,o),
(377,184,cs),
(361,172,o),
(346,168,o),
(331,168,cs),
(309,168,o),
(287,178,o),
(263,189,cs),
(244,199,o),
(225,204,o),
(205,204,cs),
(167,204,o),
(128,185,o),
(87,137,cs)
);
},
{
closed = 1;
nodes = (
(147,703,o),
(20,575,o),
(57,583,cs),
(67,585,o),
(71,579,o),
(71,562,cs),
(71,547,o),
(68,523,o),
(65,490,cs),
(52,334,o),
(41,177,o),
(27,21,cs),
(24,-16,o),
(164,122,o),
(167,155,cs),
(179,303,o),
(194,450,o),
(207,598,cs),
(208,615,o),
(210,635,o),
(210,653,cs),
(210,687,o),
(203,715,o),
(177,709,cs)
);
}
);
width = 426;
}
);
unicode = 76;
},
{
glyphname = M;
lastChange = "2024-02-14 17:17:26 +0000";
layers = (
{
layerId = m01;
shapes = (
{
closed = 1;
nodes = (
(264,730,o),
(137,605,o),
(147,587,cs),
(216,475,o),
(239,49,o),
(294,-2,cs),
(308,-15,o),
(435,111,o),
(420,124,cs),
(371,171,o),
(344,599,o),
(275,713,cs)
);
},
{
closed = 1;
nodes = (
(27,85,o),
(30,83,o),
(36,83,cs),
(57,83,o),
(122,119,o),
(128,138,cs),
(211,372,o),
(219,654,o),
(219,657,cs),
(221,683,o),
(138,605,o),
(137,583,cs),
(136,572,o),
(114,329,o),
(30,92,cs)
);
},
{
closed = 1;
nodes = (
(297,148,o),
(301,145,o),
(309,145,cs),
(333,145,o),
(392,169,o),
(398,186,cs),
(490,406,o),
(543,620,o),
(545,640,cs),
(546,647,o),
(543,650,o),
(538,650,cs),
(518,650,o),
(464,608,o),
(461,584,cs),
(459,574,o),
(388,368,o),
(300,154,cs)
);
},
{
closed = 1;
nodes = (
(598,737,o),
(469,613,o),
(469,585,cs),
(470,565,o),
(470,534,o),
(470,497,cs),
(470,322,o),
(472,3,o),
(533,-1,cs),
(556,-2,o),
(679,123,o),
(651,125,cs),
(603,127,o),
(599,389,o),
(599,569,cs),
(599,606,o),
(599,640,o),
(599,667,cs),
(599,683,o),
(599,696,o),
(599,707,cs)
);
},
{
closed = 1;
nodes = (
(4,148,o),
(-35,39,o),
(-35,8,cs),
(-35,2,o),
(-34,-1,o),
(-31,-1,cs),
(-30,-1,o),
(-28,0,o),
(-26,2,cs),
(-8,18,o),
(23,28,o),
(53,28,cs),
(82,28,o),
(109,19,o),
(123,0,cs),
(136,-18,o),
(189,121,o),
(189,159,cs),
(189,163,o),
(188,166,o),
(187,168,cs),
(172,188,o),
(144,198,o),
(113,198,cs),
(81,198,o),
(47,187,o),
(24,166,cs)
);
}
);
width = 715;
}
);
unicode = 77;
},
{
glyphname = N;
lastChange = "2024-02-14 17:17:26 +0000";
layers = (
{
layerId = m01;
shapes = (
{
closed = 1;
nodes = (
(175,728,o),
(54,609,o),
(64,591,cs),
(155,428,o),
(255,129,o),
(358,2,cs),
(370,-13,o),
(491,107,o),
(478,122,cs),
(377,247,o),
(277,546,o),
(186,709,cs)
);
},
{
closed = 1;
nodes = (
(-6,150,o),
(-45,41,o),
(-45,10,cs),
(-45,4,o),
(-44,1,o),
(-41,1,cs),
(-40,1,o),
(-38,2,o),
(-36,4,cs),
(-18,20,o),
(12,30,o),
(41,30,cs),
(68,30,o),
(94,21,o),
(109,2,cs),
(123,-15,o),
(175,122,o),
(175,161,cs),
(175,165,o),
(174,168,o),
(173,170,cs),
(157,190,o),
(130,200,o),
(100,200,cs),
(69,200,o),
(37,189,o),
(14,168,cs)
);
},
{
closed = 1;
nodes = (
(524,565,o),
(562,673,o),
(562,704,cs),
(562,709,o),
(561,712,o),
(559,712,cs),
(557,712,o),
(555,711,o),
(553,709,cs),
(535,693,o),
(505,683,o),
(476,683,cs),
(449,683,o),
(423,692,o),
(408,711,cs),
(395,727,o),
(342,594,o),
(342,553,cs),
(342,549,o),
(342,545,o),
(344,543,cs),
(360,523,o),
(387,513,o),
(417,513,cs),
(448,513,o),
(480,524,o),
(503,545,cs)
);
},
{
closed = 1;
nodes = (
(30,41,o),
(35,35,o),
(44,35,cs),
(67,35,o),
(116,75,o),
(122,107,cs),
(133,167,o),
(173,635,o),
(173,636,cs),
(174,648,o),
(169,653,o),
(161,653,cs),
(137,653,o),
(86,610,o),
(83,578,cs),
(81,562,o),
(44,116,o),
(32,55,cs)
);
},
{
closed = 1;
nodes = (
(355,41,o),
(360,35,o),
(369,35,cs),
(392,35,o),
(441,75,o),
(447,107,cs),
(458,167,o),
(498,635,o),
(498,636,cs),
(499,648,o),
(494,653,o),
(486,653,cs),
(462,653,o),
(411,610,o),
(408,578,cs),
(406,562,o),
(369,116,o),
(357,55,cs)
);
}
);
width = 532;
}
);
unicode = 78;
},
{
glyphname = O;
lastChange = "2024-02-14 17:17:26 +0000";
layers = (
{
layerId = m01;
shapes = (
{
closed = 1;
nodes = (
(169,66,o),
(138,21,o),
(138,-1,cs),
(138,-10,o),
(143,-15,o),
(152,-15,cs),
(165,-15,o),
(185,-7,o),
(214,14,cs),
(322,90,o),
(440,230,o),
(440,400,cs),
(440,497,o),
(402,604,o),
(301,715,cs),
(287,731,o),
(190,546,o),
(205,529,cs),
(302,421,o),
(334,337,o),
(334,273,cs),
(334,154,o),
(224,105,o),
(222,104,cs)
);
},
{
closed = 1;
nodes = (
(268,574,o),
(308,666,o),
(308,700,cs),
(308,707,o),
(306,712,o),
(301,712,cs),
(297,712,o),
(289,708,o),
(279,698,cs),
(211,632,o),
(5,344,o),
(5,153,cs),
(5,69,o),
(45,4,o),
(152,-15,cs),
(185,-21,o),
(309,87,o),
(309,119,cs),
(309,123,o),
(307,126,o),
(302,127,cs),
(177,150,o),
(140,218,o),
(140,292,cs),
(140,407,o),
(229,536,o),
(229,536,cs)
);
}
);
width = 474;
}
);
unicode = 79;
},
{
glyphname = Oslash;
lastChange = "2024-02-14 17:17:26 +0000";
layers = (
{
layerId = m01;
shapes = (
{
closed = 1;
nodes = (
(169,66,o),
(138,21,o),
(138,-1,cs),
(138,-10,o),
(143,-15,o),
(152,-15,cs),
(165,-15,o),
(185,-7,o),
(214,14,cs),
(322,90,o),
(440,230,o),
(440,400,cs),
(440,497,o),
(402,604,o),
(301,715,cs),
(287,731,o),
(190,546,o),
(205,529,cs),
(302,421,o),
(334,337,o),
(334,273,cs),
(334,154,o),
(224,105,o),
(222,104,cs)
);
},
{
closed = 1;
nodes = (
(268,574,o),
(308,666,o),
(308,700,cs),
(308,707,o),
(306,712,o),
(301,712,cs),
(297,712,o),
(289,708,o),
(279,698,cs),
(211,632,o),
(5,344,o),
(5,153,cs),
(5,69,o),
(45,4,o),
(152,-15,cs),
(185,-21,o),
(309,87,o),
(309,119,cs),
(309,123,o),
(307,126,o),
(302,127,cs),
(177,150,o),
(140,218,o),
(140,292,cs),
(140,407,o),
(229,536,o),
(229,536,cs)
);
},
{
closed = 1;
nodes = (
(453,688,o),
(456,698,o),
(456,705,cs),
(456,716,o),
(450,721,o),
(440,721,cs),
(413,721,o),
(358,683,o),
(333,632,cs),
(312,591,o),
(52,-31,o),
(51,-33,cs),
(47,-43,o),
(45,-51,o),
(45,-57,cs),
(45,-68,o),
(51,-72,o),
(60,-72,cs),
(88,-72,o),
(150,-28,o),
(171,23,cs),
(183,51,o),
(424,631,o),
(447,676,cs)
);
}
);
width = 490;
}
);
unicode = 216;
},
{
glyphname = OE;
lastChange = "2024-02-14 17:17:26 +0000";
layers = (
{
layerId = m01;
shapes = (
{
closed = 1;
nodes = (
(486,640,o),
(483,642,o),
(479,642,cs),
(460,642,o),
(403,597,o),
(401,575,cs),
(382,390,o),
(365,200,o),
(347,29,cs),
(344,5,o),
(349,-1,o),
(356,-1,cs),
(361,-1,o),
(367,3,o),
(371,6,cs),
(387,21,o),
(406,28,o),
(429,28,cs),
(444,28,o),
(460,25,o),
(478,19,cs),
(515,8,o),
(557,-2,o),
(597,-2,cs),
(632,-2,o),
(664,5,o),
(687,25,cs),
(705,40,o),
(737,149,o),
(737,185,cs),
(737,193,o),
(736,197,o),
(733,197,cs),
(732,197,o),
(730,196,o),
(729,195,cs),
(710,180,o),
(677,173,o),
(641,173,cs),
(607,173,o),
(570,179,o),
(540,189,cs),
(520,195,o),
(504,199,o),
(489,199,cs),
(464,199,o),
(441,188,o),
(407,160,c),
(415,152,o),
(423,144,o),
(431,137,c),
(449,314,o),
(468,472,o),
(485,635,cs)
);
},
{
closed = 1;
nodes = (
(397,438,o),
(351,314,o),
(351,278,cs),
(351,272,o),
(352,268,o),
(355,268,cs),
(457,269,o),
(559,269,o),
(660,269,cs),
(677,269,o),
(724,392,o),
(724,429,cs),
(724,435,o),
(723,439,o),
(720,439,cs),
(618,438,o),
(516,438,o),
(415,438,cs)
);
},
{
closed = 1;
nodes = (
(743,545,o),
(776,657,o),
(776,693,cs),
(776,700,o),
(775,705,o),
(772,705,cs),
(771,705,o),
(770,705,o),
(768,703,cs),
(758,696,o),
(740,693,o),
(717,693,cs),
(663,693,o),
(581,708,o),
(514,708,cs),
(473,708,o),
(437,703,o),
(416,685,cs),
(398,670,o),
(367,560,o),
(367,524,cs),
(367,517,o),
(368,513,o),
(371,513,cs),
(372,513,o),
(373,514,o),
(374,515,cs),
(392,529,o),
(422,533,o),
(457,533,cs),
(521,533,o),
(602,519,o),
(661,519,cs),
(689,519,o),
(712,523,o),
(726,533,cs)
);
},
{
closed = 1;
nodes = (
(174,66,o),
(143,21,o),
(143,-1,cs),
(143,-10,o),
(148,-15,o),
(157,-15,cs),
(170,-15,o),
(190,-7,o),
(219,14,cs),
(327,90,o),
(445,230,o),
(445,400,cs),
(445,497,o),
(407,604,o),
(306,715,cs),
(292,731,o),
(195,546,o),
(210,529,cs),
(307,421,o),
(339,337,o),
(339,273,cs),
(339,154,o),
(229,105,o),
(227,104,cs)
);
},
{
closed = 1;
nodes = (
(273,574,o),
(313,666,o),
(313,700,cs),
(313,707,o),
(311,712,o),
(306,712,cs),
(302,712,o),
(294,708,o),
(284,698,cs),
(216,632,o),
(10,344,o),
(10,153,cs),
(10,69,o),
(50,4,o),
(157,-15,cs),
(190,-21,o),
(314,87,o),
(314,119,cs),
(314,123,o),
(312,126,o),
(307,127,cs),
(182,150,o),
(145,218,o),
(145,292,cs),
(145,407,o),
(234,536,o),
(234,536,cs)
);
}
);
width = 796;
}
);
unicode = 338;
},
{
glyphname = P;
lastChange = "2024-02-14 17:17:26 +0000";
layers = (
{
guides = (
{
pos = (113,716);
},
{
pos = (-217,587);
},
{
pos = (-226,373);
}
);
layerId = m01;
shapes = (
{
closed = 1;
nodes = (
(242,285,o),
(235,268,o),
(235,257,cs),
(235,248,o),
(240,244,o),
(248,244,cs),
(266,244,o),
(298,264,o),
(330,305,cs),
(407,405,o),
(438,485,o),
(438,548,cs),
(438,661,o),
(338,715,o),
(222,715,cs),
(195,715,o),
(167,713,o),
(140,707,cs),
(118,702,o),
(35,564,o),
(62,569,cs),
(95,576,o),
(124,579,o),
(151,579,cs),
(262,579,o),
(317,524,o),
(317,450,cs),
(317,406,o),
(298,356,o),
(260,307,cs)
);
},
{
closed = 1;
nodes = (
(259,215,o),
(346,318,o),
(346,356,cs),
(346,363,o),
(342,368,o),
(334,369,cs),
(215,382,o),
(157,398,o),
(122,398,cs),
(112,398,o),
(104,397,o),
(98,394,cs),
(79,387,o),
(35,267,o),
(35,234,cs),
(35,228,o),
(36,225,o),
(39,225,cs),
(39,225,o),
(40,225,o),
(40,226,cs),
(44,227,o),
(55,229,o),
(80,229,cs),
(107,229,o),
(152,227,o),
(224,219,cs)
);
},
{
closed = 1;
nodes = (
(217,629,o),
(76,519,o),
(74,492,cs),
(66,363,o),
(58,235,o),
(49,106,cs),
(45,42,o),
(58,0,o),
(89,0,cs),
(113,0,o),
(240,130,o),
(211,130,cs),
(195,130,o),
(189,142,o),
(189,176,cs),
(189,187,o),
(190,199,o),
(191,214,cs),
(199,343,o),
(207,471,o),
(216,600,cs)
);
}
);
width = 443;
}
);
unicode = 80;
},
{
glyphname = Q;
lastChange = "2024-02-14 17:17:26 +0000";
layers = (
{
layerId = m01;
shapes = (
{
closed = 1;
nodes = (
(263,335,o),
(219,290,o),
(221,273,cs),
(232,189,o),
(302,-16,o),
(419,-16,cs),
(427,-16,o),
(436,-15,o),
(444,-13,cs),
(464,-8,o),
(520,137,o),
(520,177,cs),
(520,183,o),
(518,187,o),
(515,187,cs),
(514,187,o),
(514,187,o),
(514,187,cs),
(497,183,o),
(480,181,o),
(463,181,cs),
(370,181,o),
(275,239,o),
(265,319,cs)
);
},
{
closed = 1;
nodes = (
(184,66,o),
(153,21,o),
(153,-1,cs),
(153,-10,o),
(158,-15,o),
(167,-15,cs),
(180,-15,o),
(200,-7,o),
(229,14,cs),
(337,90,o),
(455,230,o),
(455,400,cs),
(455,497,o),
(417,604,o),
(316,715,cs),
(302,731,o),
(205,546,o),
(220,529,cs),
(317,421,o),
(349,337,o),
(349,273,cs),
(349,154,o),
(239,105,o),
(237,104,cs)
);
},
{
closed = 1;
nodes = (
(283,574,o),
(323,666,o),
(323,700,cs),
(323,707,o),
(321,712,o),
(316,712,cs),
(312,712,o),
(304,708,o),
(294,698,cs),
(226,632,o),
(20,344,o),
(20,153,cs),
(20,69,o),
(60,4,o),
(167,-15,cs),
(200,-21,o),
(324,87,o),
(324,119,cs),
(324,123,o),
(322,126,o),
(317,127,cs),
(192,150,o),
(155,218,o),
(155,292,cs),
(155,407,o),
(244,536,o),
(244,536,cs)
);
}
);
width = 580;
}
);
unicode = 81;
},
{
glyphname = R;
lastChange = "2024-02-14 17:17:26 +0000";
layers = (
{
guides = (
{
angle = 180;
pos = (332,360);
},
{
pos = (178,564);
}
);
layerId = m01;
shapes = (
{
closed = 1;
nodes = (
(175,581,o),
(174,583,o),
(171,583,cs),
(156,583,o),
(103,464,o),
(105,421,cs),
(110,274,o),
(307,-1,o),
(385,-1,cs),
(388,-1,o),
(391,0,o),
(394,0,cs),
(411,6,o),
(457,128,o),
(457,161,cs),
(457,167,o),
(456,170,o),
(454,170,cs),
(453,170,o),
(453,170,o),
(452,170,cs),
(448,168,o),
(443,167,o),
(439,167,cs),
(346,167,o),
(180,448,o),
(175,575,cs)
);
},
{
closed = 1;
nodes = (
(19,148,o),
(-20,39,o),
(-20,8,cs),
(-20,2,o),
(-19,-1,o),
(-16,-1,cs),
(-15,-1,o),
(-13,0,o),
(-11,2,cs),
(7,18,o),
(37,28,o),
(66,28,cs),
(93,28,o),
(119,19,o),
(134,0,cs),
(148,-17,o),
(200,120,o),
(200,159,cs),
(200,163,o),
(199,166,o),
(198,168,cs),
(182,188,o),
(155,198,o),
(125,198,cs),
(94,198,o),
(62,187,o),
(39,166,cs)
);
},
{
closed = 1;
nodes = (
(170,573,o),
(161,587,o),
(148,587,cs),
(122,587,o),
(79,528,o),
(76,462,cs),
(68,287,o),
(74,300,o),
(54,63,cs),
(52,50,o),
(58,44,o),
(67,44,cs),
(89,44,o),
(130,76,o),
(132,105,cs),
(154,358,o),
(160,373,o),
(168,540,cs)
);
},
{
closed = 1;
nodes = (
(235,309,o),
(225,288,o),
(225,274,cs),
(225,265,o),
(230,260,o),
(239,260,cs),
(253,260,o),
(278,274,o),
(308,308,cs),
(404,416,o),
(441,499,o),
(441,560,cs),
(441,669,o),
(326,712,o),
(220,712,cs),
(180,712,o),
(142,706,o),
(111,695,cs),
(87,687,o),
(-4,530,o),
(25,541,cs),
(72,557,o),
(115,565,o),
(154,565,cs),
(250,565,o),
(312,517,o),
(312,450,cs),
(312,416,o),
(296,377,o),
(260,336,cs)
);
}
);
width = 517;
}
);
unicode = 82;
},
{
glyphname = S;
lastChange = "2024-02-14 17:17:26 +0000";
layers = (
{
layerId = m01;
shapes = (
{
closed = 1;
nodes = (
(289,465,o),
(288,462,o),
(288,459,cs),
(288,457,o),
(289,456,o),
(291,456,cs),
(308,456,o),
(394,534,o),
(415,574,cs),
(420,586,o),
(423,599,o),
(423,613,cs),
(423,662,o),
(389,715,o),
(327,715,cs),
(293,715,o),
(251,700,o),
(203,660,cs),
(152,618,o),
(117,565,o),
(132,565,cs),
(137,565,o),
(149,572,o),
(169,588,cs),
(176,594,o),
(185,597,o),
(195,597,cs),
(238,597,o),
(299,551,o),
(299,500,cs),
(299,490,o),
(297,480,o),
(291,470,cs)
);
},
{
closed = 1;
nodes = (
(189,629,o),
(188,631,o),
(185,631,cs),
(169,631,o),
(76,545,o),
(60,509,cs),
(51,489,o),
(47,470,o),
(47,453,cs),
(47,388,o),
(107,345,o),
(162,294,cs),
(214,246,o),
(272,207,o),
(272,142,cs),
(272,125,o),
(268,107,o),
(260,86,cs),
(245,49,o),
(370,163,o),
(386,202,cs),
(397,228,o),
(402,250,o),
(402,269,cs),
(402,340,o),
(335,368,o),
(284,416,cs),
(229,467,o),
(176,516,o),
(176,576,cs),
(176,591,o),
(179,606,o),
(186,623,cs)
);
},
{
closed = 1;
nodes = (
(139,235,o),
(138,238,o),
(135,238,cs),
(116,238,o),
(24,152,o),
(10,117,cs),
(7,109,o),
(5,99,o),
(5,90,cs),
(5,42,o),
(45,-16,o),
(112,-16,cs),
(146,-16,o),
(188,0,o),
(235,40,cs),
(285,82,o),
(317,132,o),
(303,132,cs),
(297,132,o),
(284,124,o),
(263,106,cs),
(259,103,o),
(254,102,o),
(247,102,cs),
(209,102,o),
(131,146,o),
(131,203,cs),
(131,211,o),
(133,219,o),
(136,227,cs)
);
}
);
width = 464;
}
);
unicode = 83;
},
{
glyphname = Germandbls;
lastChange = "2024-02-14 16:34:31 +0000";
layers = (
{
layerId = m01;
shapes = (
{
closed = 1;
nodes = (
(523,571,o),
(588,679,o),
(588,709,cs),
(588,713,o),
(586,716,o),
(583,716,cs),
(581,716,o),
(580,716,o),
(577.559,715.049,cs),
(563,709,o),
(531,708,o),
(491,708,cs),
(403,708,o),
(273,717,o),
(197,717,cs),
(168,717,o),
(147,716,o),
(138.632,712.196,cs),
(111,700,o),
(69,602,o),
(69,563,cs),
(69,552,o),
(72,546,o),
(79,546,cs),
(80,546,o),
(83,547,o),
(85.368,547.804,cs),
(89,549,o),
(104,550,o),
(127,550,cs),
(171,550,o),
(242,548,o),
(312,548,cs),
(392,548,o),
(470,551,o),
(496.441,560.951,cs)
);
},
{
closed = 1;
nodes = (
(262,358,o),
(252,338,o),
(252,324,cs),
(252,315,o),
(257.007,309,o),
(266,309,cs),
(276,309,o),
(290,315,o),
(307.768,330.848,cs),
(328,349,o),
(355,358,o),
(381,358,cs),
(431,358,o),
(479,326,o),
(479,262,cs),
(479,238,o),
(473,211,o),
(457.634,178.918,cs),
(453,170,o),
(451,164,o),
(451,160,cs),
(451,158,o),
(452,157,o),
(454,157,cs),
(468,157,o),
(537,233,o),
(560.366,281.082,cs),
(576,313,o),
(583,344,o),
(583,371,cs),
(583,433,o),
(546,476,o),
(483,476,cs),
(432,476,o),
(365,448,o),
(286.232,379.152,cs)
);
},
{
closed = 1;
nodes = (
(568,268,o),
(579,313,o),
(579,334,cs),
(579,342,o),
(577,347,o),
(574,347,cs),
(570,347,o),
(562,338,o),
(551.257,314.144,cs),
(505,216,o),
(417,141,o),
(365,141,cs),
(340,141,o),
(323,158,o),
(323,200,cs),
(323,211,o),
(324,223,o),
(326.394,236.623,cs),
(332.386,271.604,o),
(203.156,149.784,o),
(197.606,117.377,cs),
(196,107,o),
(195,97,o),
(195,88,cs),
(195,29,o),
(231,-1,o),
(281,-1,cs),
(360,-1,o),
(475,72,o),
(548.743,227.856,cs)
);
},
{
closed = 1;
nodes = (
(530,592,o),
(535,601,o),
(535,608,cs),
(535,619,o),
(523,624,o),
(505,624,cs),
(479,624,o),
(442,613,o),
(414.725,587.911,cs),
(382.109,558.26,o),
(269.57,364.268,o),
(268.594,362.765,cs),
(263,355,o),
(261,349,o),
(261,344,cs),
(261.001,337.001,o),
(267,334,o),
(276,334,cs),
(305,334,o),
(370,367,o),
(393.406,403.235,cs),
(397.754,409.93,o),
(516.945,579.789,o),
(517.275,580.089,cs)
);
},
{
closed = 1;
nodes = (
(125.727,714.153,o),
(-8.297,583.847,o),
(21.281,583.847,cs),
(36,584,o),
(42,572,o),
(42,535,cs),
(42,524,o),
(42,510,o),
(40.522,494.328,cs),
(31.074,366.979,o),
(21.253,239.657,o),
(11.522,112.328,cs),
(10,98,o),
(10,84,o),
(10,73,cs),
(10,33,o),
(17,12,o),
(31.788,1.417,cs),
(47.586,-10.168,o),
(178.398,120.713,o),
(162.212,132.583,cs),
(156,137,o),
(153,146,o),
(153,166,cs),
(153,179,o),
(154,198,o),
(156.478,223.672,cs),
(166.208,351,o),
(176.03,478.322,o),
(185.478,605.672,cs),
(186,616,o),
(187,625,o),
(187,634,cs),
(187,686,o),
(174,714,o),
(148.719,714.153,cs)
);
}
);
width = 626;
}
);
unicode = 7838;
},
{
glyphname = T;
lastChange = "2024-02-14 17:17:26 +0000";
layers = (
{
layerId = m01;
shapes = (
{
closed = 1;
nodes = (
(416,560,o),
(456,656,o),
(456,695,cs),
(456,706,o),
(453,712,o),
(447,712,cs),
(445,712,o),
(442,711,o),
(439,710,cs),
(428,705,o),
(408,703,o),
(384,703,cs),
(334,703,o),
(263,710,o),
(202,710,cs),
(151,710,o),
(105,705,o),
(84,686,cs),
(65,670,o),
(35,561,o),
(35,525,cs),
(35,518,o),
(36,514,o),
(38,514,cs),
(40,514,o),
(41,515,o),
(42,516,cs),
(60,532,o),
(103,536,o),
(152,536,cs),
(195,536,o),
(244,533,o),
(287,533,cs),
(329,533,o),
(366,536,o),
(387,546,cs)
);
},
{
closed = 1;
nodes = (
(319,593,o),
(323,603,o),
(323,610,cs),
(323,621,o),
(315,627,o),
(304,627,cs),
(291,627,o),
(275,620,o),
(262,602,cs),
(129,431,o),
(68,235,o),
(68,144,cs),
(68,53,o),
(119,-16,o),
(187,-16,cs),
(194,-16,o),
(201,-16,o),
(209,-14,cs),
(242,-7,o),
(373,106,o),
(335,98,cs),
(332,97,o),
(328,97,o),
(324,97,cs),
(266,97,o),
(199,175,o),
(199,265,cs),
(199,308,o),
(219,464,o),
(310,582,cs)
);
}
);
width = 422;
}
);
unicode = 84;
},
{
glyphname = U;
lastChange = "2024-02-14 17:17:26 +0000";
layers = (
{
layerId = m01;
shapes = (
{
closed = 1;
nodes = (
(393,365,o),
(382,373,o),
(371,373,cs),
(362,373,o),
(353,367,o),
(352,355,cs),
(325,114,o),
(253,124,o),
(241,124,cs),
(202,121,o),
(187,173,o),
(187,240,cs),
(187,257,o),
(188,275,o),
(189,293,cs),
(200,394,o),
(209,495,o),
(219,596,cs),
(225,656,o),
(201,709,o),
(160,709,cs),
(154,709,o),
(148,708,o),
(142,706,cs),
(114,696,o),
(20,599,o),
(20,580,cs),
(20,577,o),
(22,576,o),
(28,578,cs),
(34,580,o),
(40,581,o),
(44,581,cs),
(68,581,o),
(76,557,o),
(76,526,cs),
(76,519,o),
(75,511,o),
(75,502,cs),
(64,401,o),
(55,300,o),
(45,199,cs),
(44,192,o),
(44,185,o),
(44,177,cs),
(44,83,o),
(100,-16,o),
(184,-16,cs),
(314,-16,o),
(377,217,o),
(392,351,cs)
);
},
{
closed = 1;
nodes = (
(415,-1,o),
(531,117,o),
(503,117,cs),
(475,117,o),
(467,152,o),
(467,203,cs),
(467,229,o),
(469,260,o),
(472,293,cs),
(483,394,o),
(493,495,o),
(503,596,cs),
(504,602,o),
(504,608,o),
(504,614,cs),
(504,667,o),
(480,709,o),
(443,709,cs),
(437,709,o),
(431,708,o),
(425,706,cs),
(397,696,o),
(303,599,o),
(303,580,cs),
(303,577,o),
(305,576,o),
(311,578,cs),
(317,580,o),
(323,581,o),
(327,581,cs),
(352,581,o),
(360,557,o),
(360,525,cs),
(360,518,o),
(359,510,o),
(359,502,cs),
(348,401,o),
(338,300,o),
(328,199,cs),
(326,180,o),
(325,162,o),
(325,144,cs),
(325,60,o),
(347,-1,o),
(391,-1,cs)
);
}
);
width = 567;
}
);
unicode = 85;
},
{
glyphname = V;
lastChange = "2024-02-14 17:17:26 +0000";
layers = (
{
layerId = m01;
shapes = (
{
closed = 1;
nodes = (
(501,632,o),
(493,635,o),
(482,635,cs),
(456,635,o),
(408,620,o),
(403,605,cs),
(344,404,o),
(253,121,o),
(239,30,cs),
(235,8,o),
(344,111,o),
(347,134,cs),
(357,195,o),
(446,446,o),
(499,625,cs)
);
},
{
closed = 1;
nodes = (
(527,567,o),
(565,675,o),
(565,706,cs),
(565,711,o),
(564,714,o),
(562,714,cs),
(560,714,o),
(558,713,o),
(556,711,cs),
(538,695,o),
(508,685,o),
(479,685,cs),
(452,685,o),
(426,694,o),
(411,713,cs),
(398,729,o),
(345,596,o),
(345,555,cs),
(345,551,o),
(345,547,o),
(347,545,cs),
(363,525,o),
(390,515,o),
(420,515,cs),
(451,515,o),
(483,526,o),
(506,547,cs)
);
},
{
closed = 1;
nodes = (
(245,5,o),
(353,123,o),
(330,123,cs),
(328,123,o),
(325,123,o),
(321,121,cs),
(309,115,o),
(243,487,o),
(215,635,cs),
(207,682,o),
(170,713,o),
(137,713,cs),
(133,713,o),
(128,712,o),
(124,711,cs),
(92,701,o),
(-31,571,o),
(8,583,cs),
(13,585,o),
(19,585,o),
(23,585,cs),
(54,585,o),
(78,556,o),
(87,511,cs),
(113,371,o),
(163,-33,o),
(203,-15,cs)
);
}
);
width = 505;
}
);
unicode = 86;
},
{
glyphname = W;
lastChange = "2024-02-14 17:17:26 +0000";
layers = (
{
layerId = m01;
shapes = (
{
closed = 1;
nodes = (
(382,-18,o),
(510,110,o),
(500,127,cs),
(442,232,o),
(457,659,o),
(399,711,cs),
(385,724,o),
(264,605,o),
(279,591,cs),
(331,543,o),
(312,110,o),
(372,1,cs)
);
},
{
closed = 1;
nodes = (
(674,624,o),
(671,627,o),
(664,627,cs),
(641,627,o),
(575,594,o),
(568,574,cs),
(484,331,o),
(408,37,o),
(405,26,cs),
(397,-1,o),
(512,110,o),
(519,138,cs),
(522,149,o),
(589,376,o),
(672,618,cs)
);
},
{
closed = 1;
nodes = (
(421,615,o),
(418,618,o),
(410,618,cs),
(388,618,o),
(333,591,o),
(325,571,cs),
(284,463,o),
(181,70,o),
(180,70,cs),
(167,53,o),
(161,44,o),
(161,40,cs),
(161,28,o),
(218,73,o),
(260,126,cs),
(295,171,o),
(391,535,o),
(419,609,cs)
);
},
{
closed = 1;
nodes = (
(128,-19,o),
(256,109,o),
(249,128,cs),
(196,275,o),
(238,711,o),
(138,711,cs),
(134,711,o),
(130,711,o),
(126,709,cs),
(96,700,o),
(-12,588,o),
(14,588,cs),
(15,588,o),
(17,588,o),
(18,589,cs),
(21,590,o),
(24,590,o),
(27,590,cs),
(111,590,o),
(57,176,o),
(121,2,cs)
);
},
{
closed = 1;
nodes = (
(693,568,o),
(731,677,o),
(731,707,cs),
(731,713,o),
(730,715,o),
(728,715,cs),
(727,715,o),
(725,714,o),
(722,712,cs),
(705,696,o),
(674,686,o),
(643,686,cs),
(615,686,o),
(587,695,o),
(573,714,cs),
(560,730,o),
(507,597,o),
(507,556,cs),
(507,552,o),
(507,548,o),
(509,546,cs),
(524,526,o),
(553,516,o),
(584,516,cs),
(616,516,o),
(650,527,o),
(672,548,cs)
);
}
);
width = 701;
}
);
unicode = 87;
},
{
glyphname = X;
lastChange = "2024-02-14 17:17:26 +0000";
layers = (
{
layerId = m01;
shapes = (
{
closed = 1;
nodes = (
(471,598,o),
(464,601,o),
(451,601,cs),
(423,601,o),
(369,586,o),
(358,570,cs),
(338,541,o),
(88,128,o),
(88,128,cs),
(83,120,o),
(90,117,o),
(102,117,cs),
(130,117,o),
(187,133,o),
(196,149,cs),
(209,170,o),
(436,545,o),
(466,590,cs)
);
},
{
closed = 1;
nodes = (
(402,-4,o),
(508,140,o),
(472,127,cs),
(410,105,o),
(250,715,o),
(164,715,cs),
(161,715,o),
(159,714,o),
(156,713,cs),
(126,697,o),
(33,571,o),
(54,571,cs),
(55,571,o),
(57,572,o),
(60,573,cs),
(121,604,o),
(294,-42,o),
(372,-15,cs)
);
},
{
closed = 1;
nodes = (
(85,-47,o),
(198,91,o),
(200,122,cs),
(202,170,o),
(143,241,o),
(106,250,cs),
(88,255,o),
(-24,113,o),
(-2,108,cs),
(21,101,o),
(88,26,o),
(86,-12,cs)
);
},
{
closed = 1;
nodes = (
(454,448,o),
(565,591,o),
(543,596,cs),
(514,604,o),
(453,677,o),
(455,716,cs),
(456,749,o),
(343,616,o),
(341,582,cs),
(339,534,o),
(403,462,o),
(435,454,cs)
);
}
);
width = 541;
}
);
unicode = 88;
},
{
glyphname = Y;
lastChange = "2024-02-14 18:54:01 +0000";
layers = (
{
layerId = m01;
shapes = (
{
closed = 1;
nodes = (
(509,638,o),
(510,643,o),
(510,648,cs),
(510,660,o),
(503,665,o),
(493,665,cs),
(464,665,o),
(407,624,o),
(393,579,cs),
(389,566,o),
(158,112,o),
(150,98,cs),
(144,86,o),
(141,77,o),
(141,70,cs),
(141,59,o),
(149,54,o),
(160,54,cs),
(185,54,o),
(231,82,o),
(254,126,cs),
(256,130,o),
(494,592,o),
(507,631,cs)
);
},
{
closed = 1;
nodes = (
(524,567,o),
(562,675,o),
(562,706,cs),
(562,711,o),
(561,714,o),
(559,714,cs),
(557,714,o),
(555,713,o),
(553,711,cs),
(535,695,o),
(505,685,o),
(476,685,cs),
(449,685,o),
(423,694,o),
(408,713,cs),
(395,729,o),
(342,596,o),
(342,555,cs),
(342,551,o),
(342,547,o),
(344,545,cs),
(360,525,o),
(387,515,o),
(417,515,cs),
(448,515,o),
(480,526,o),
(503,547,cs)
);
},
{
closed = 1;
nodes = (
(267,333,o),
(359,437,o),
(338,437,cs),
(335,437,o),
(332,436,o),
(326,433,cs),
(272,405,o),
(225,711,o),
(155,711,cs),
(152,711,o),
(149,710,o),
(146,709,cs),
(112,696,o),
(5,581,o),
(28,581,cs),
(30,581,o),
(32,582,o),
(34,583,cs),
(88,604,o),
(127,306,o),
(206,306,cs),
(212,306,o),
(218,308,o),
(224,311,cs)
);
},
{
closed = 1;
nodes = (
(118,148,o),
(79,39,o),
(79,8,cs),
(79,2,o),
(80,-1,o),
(83,-1,cs),
(84,-1,o),
(86,0,o),
(88,2,cs),
(106,18,o),
(136,28,o),
(165,28,cs),
(192,28,o),
(218,19,o),
(233,0,cs),
(247,-17,o),
(299,120,o),
(299,159,cs),
(299,163,o),
(298,166,o),
(297,168,cs),
(281,188,o),
(254,198,o),
(224,198,cs),
(193,198,o),
(161,187,o),
(138,166,cs)
);
}
);
width = 527;
}
);
unicode = 89;
},
{
glyphname = Z;
lastChange = "2024-02-14 17:17:26 +0000";
layers = (
{
layerId = m01;
shapes = (
{
closed = 1;
nodes = (
(37,134,o),
(5,51,o),
(5,15,cs),
(5,5,o),
(8,-2,o),
(14,-2,cs),
(18,-2,o),
(23,0,o),
(30,6,cs),
(47,21,o),
(68,26,o),
(92,26,cs),
(146,26,o),
(212,-2,o),
(272,-2,cs),
(302,-2,o),
(330,5,o),
(354,25,cs),
(372,40,o),
(404,149,o),
(404,185,cs),
(404,193,o),
(403,197,o),
(400,197,cs),
(399,197,o),
(397,196,o),
(396,195,cs),
(375,178,o),
(352,172,o),
(329,172,cs),
(279,172,o),
(224,197,o),
(167,197,cs),
(134,197,o),
(100,188,o),
(66,160,cs)
);
},
{
closed = 1;
nodes = (
(103,664,o),
(65,558,o),
(65,527,cs),
(65,522,o),
(66,519,o),
(69,519,cs),
(70,519,o),
(73,521,o),
(76,524,cs),
(90,539,o),
(114,543,o),
(144,543,cs),
(193,543,o),
(258,531,o),
(320,531,cs),
(347,531,o),
(374,533,o),
(399,540,cs),
(417,545,o),
(463,666,o),
(463,700,cs),
(463,706,o),
(462,710,o),
(458,710,cs),
(458,710,o),
(457,710,o),
(457,710,cs),
(434,703,o),
(411,701,o),
(386,701,cs),
(326,701,o),
(263,715,o),
(211,715,cs),
(175,715,o),
(145,708,o),
(124,686,cs)
);
},
{
closed = 1;
nodes = (
(427,590,o),
(417,593,o),
(401,593,cs),
(374,593,o),
(332,582,o),
(326,568,cs),
(268,426,o),
(81,211,o),
(46,100,cs),
(44,92,o),
(54,89,o),
(68,89,cs),
(96,89,o),
(140,101,o),
(144,114,cs),
(177,219,o),
(364,434,o),
(424,582,cs)
);
},
{
closed = 1;
nodes = (
(139,447,o),
(97,331,o),
(97,299,cs),
(97,294,o),
(98,291,o),
(101,291,cs),
(102,291,o),
(103,291,o),
(104,292,cs),
(110,296,o),
(116,298,o),
(124,298,cs),
(168,298,o),
(243,248,o),
(292,248,cs),
(299,248,o),
(306,249,o),
(312,252,cs),
(330,259,o),
(375,377,o),
(375,412,cs),
(375,418,o),
(374,421,o),
(371,421,cs),
(370,421,o),
(369,421,o),
(368,420,cs),
(364,418,o),
(358,418,o),
(353,418,cs),
(309,418,o),
(236,467,o),
(186,467,cs),
(175,467,o),
(166,465,o),
(158,460,cs)
);
}
);
width = 467;
}
);
unicode = 90;
},
{
glyphname = a;
lastChange = "2024-02-14 17:17:26 +0000";
layers = (
{
background = {
shapes = (
{
closed = 1;
nodes = (
);
}
);
};
guides = (
{
pos = (289,715);
}
);
layerId = m01;
shapes = (
{
closed = 1;
nodes = (
(299.266,-5.856,o),
(439.509,140.39,o),
(412.498,146.49,cs),
(402,149,o),
(397,168,o),
(397,204,cs),
(397,250,o),
(404,323,o),
(411.399,427.812,cs),
(415.368,483.718,o),
(418.545,507.564,o),
(424.61,578.565,cs),
(429,631,o),
(409,714,o),
(347,714,cs),
(306,714,o),
(247,677,o),
(164.746,570.971,cs),
(142,542,o),
(133,522,o),
(133,512,cs),
(133,507,o),
(135,505,o),
(139,505,cs),
(152,505,o),
(180,526,o),
(213.254,569.029,cs),
(215,571,o),
(281,581,o),
(281,472,cs),
(281,464,o),
(280,455,o),
(279.39,445.435,cs),
(273.128,372.122,o),
(270.724,350.276,o),
(266.601,292.188,cs),
(259,186,o),
(252,113,o),
(252,66,cs),
(252,24,o),
(258,4,o),
(275.502,-0.49,cs)
);
},
{
closed = 1;
nodes = (
(57,398,o),
(10,273,o),
(10,238,cs),
(10,232,o),
(11,228,o),
(13.998,228.275,cs),
(146.331,228.608,o),
(278.665,228.942,o),
(410.998,229.275,cs),
(428,229,o),
(475,353,o),
(475,389,cs),
(475,395,o),
(474,399,o),
(471.002,398.725,cs),
(338.669,398.392,o),
(206.335,398.058,o),
(74.002,397.725,cs)
);
},
{
closed = 1;
nodes = (
(229,606,o),
(232,614,o),
(232,619,cs),
(232,622,o),
(230,624,o),
(227,624,cs),
(211,624,o),
(157,573,o),
(131.625,525.852,cs),
(116.951,498.337,o),
(99.821,453.624,o),
(92.945,407.147,cs),
(78.351,308.487,o),
(62.965,154.09,o),
(45.452,15.927,cs),
(44,3,o),
(48,-2,o),
(56,-2,cs),
(80,-2,o),
(132,45,o),
(136.548,78.073,cs),
(155.035,223.91,o),
(171.68,384.917,o),
(187.055,488.853,cs),
(194.044,536.1,o),
(221.049,591.663,o),
(222.375,594.148,cs)
);
}
);
width = 505;
}
);
unicode = 97;
},
{
glyphname = ae;
lastChange = "2024-02-14 17:17:26 +0000";
layers = (
{
layerId = m01;
shapes = (
{
closed = 1;
nodes = (
(299,-6,o),
(440,140,o),
(412,146,cs),
(402,149,o),
(397,168,o),
(397,204,cs),
(397,250,o),
(404,323,o),
(411,428,cs),
(415,484,o),
(419,508,o),
(425,579,cs),
(429,631,o),
(409,714,o),
(347,714,cs),
(306,714,o),
(247,677,o),
(165,571,cs),
(142,542,o),
(133,522,o),
(133,512,cs),
(133,507,o),
(135,505,o),
(139,505,cs),
(152,505,o),
(180,526,o),
(213,569,cs),
(215,571,o),
(281,581,o),
(281,472,cs),
(281,464,o),
(280,455,o),
(279,445,cs),
(273,372,o),
(271,350,o),
(267,292,cs),
(259,186,o),
(252,113,o),
(252,66,cs),
(252,24,o),
(258,4,o),
(276,0,cs)
);
},
{
closed = 1;
nodes = (
(56,397,o),
(10,273,o),
(10,237,cs),
(10,231,o),
(11,227,o),
(14,227,cs),
(129,228,o),
(243,228,o),
(357,228,cs),
(374,228,o),
(421,351,o),
(421,388,cs),
(421,394,o),
(420,398,o),
(417,398,cs),
(302,397,o),
(188,397,o),
(74,397,cs)
);
},
{
closed = 1;
nodes = (
(229,606,o),
(232,614,o),
(232,619,cs),
(232,622,o),
(230,624,o),
(227,624,cs),
(211,624,o),
(157,573,o),
(132,526,cs),
(117,498,o),
(100,454,o),
(93,407,cs),
(78,308,o),
(63,154,o),
(45,16,cs),
(44,3,o),
(48,-2,o),
(56,-2,cs),
(80,-2,o),
(132,45,o),
(137,78,cs),
(155,224,o),
(172,385,o),
(187,489,cs),
(194,536,o),
(221,592,o),
(222,594,cs)
);
},
{
closed = 1;
nodes = (
(552,455,o),
(679,583,o),
(672,602,cs),
(643,681,o),
(591,714,o),
(546,714,cs),
(532,714,o),
(520,711,o),
(508,706,cs),
(296,606,o),
(294,144,o),
(275,45,cs),
(273,33,o),
(272,24,o),
(272,18,cs),
(272,-6,o),
(285,3,o),
(286,4,cs),
(314,14,o),
(338,19,o),
(365,19,cs),
(379,19,o),
(395,17,o),
(412,14,cs),
(446,8,o),
(487,-4,o),
(527,-4,cs),
(559,-4,o),
(590,3,o),
(618,26,cs),
(646,49,o),
(674,132,o),
(674,171,cs),
(674,184,o),
(671,192,o),
(664,192,cs),
(660,192,o),
(656,190,o),
(650,186,cs),
(640,177,o),
(613,174,o),
(583,174,cs),
(546,174,o),
(503,178,o),
(472,184,cs),
(449,188,o),
(429,191,o),
(408,191,cs),
(389,191,o),
(370,188,o),
(348,180,c),
(351,167,o),
(355,153,o),
(359,139,c),
(408,391,o),
(424,538,o),
(458,554,cs),
(466,558,o),
(473,561,o),
(481,561,cs),
(499,561,o),
(519,544,o),
(544,476,cs)
);
},
{
closed = 1;
nodes = (
(300,430,o),
(254,306,o),
(254,270,cs),
(254,264,o),
(255,260,o),
(258,260,cs),
(357,261,o),
(456,261,o),
(554,261,cs),
(571,261,o),
(618,384,o),
(618,421,cs),
(618,427,o),
(617,431,o),
(614,431,cs),
(515,430,o),
(416,430,o),
(318,430,cs)
);
}
);
width = 724;
}
);
unicode = 230;
},
{
glyphname = b;
lastChange = "2024-02-14 17:17:26 +0000";
layers = (
{
guides = (
{
pos = (310,715);
}
);
layerId = m01;
shapes = (
{
closed = 1;
nodes = (
(205,588,o),
(207,593,o),
(207,596,cs),
(207,603,o),
(203,605,o),
(197,605,cs),
(171,605,o),
(101,557,o),
(83,518,cs),
(37,415,o),
(30,274,o),
(30,191,cs),
(30,149,o),
(32,122,o),
(32,119,cs),
(32,110,o),
(37,107,o),
(44,107,cs),
(73,107,o),
(143,162,o),
(142,193,cs),
(142,194,o),
(148,459,o),
(203,582,cs)
);
},
{
closed = 1;
nodes = (
(57,255,o),
(55,228,o),
(55,205,cs),
(55,176,o),
(59,154,o),
(65,154,cs),
(69,154,o),
(74,163,o),
(79,184,cs),
(96,257,o),
(185,302,o),
(262,302,cs),
(326,302,o),
(381,272,o),
(381,202,cs),
(381,182,o),
(376,159,o),
(367,133,cs),
(365,128,o),
(364,124,o),
(364,122,cs),
(364,119,o),
(365,118,o),
(367,118,cs),
(383,118,o),
(459,205,o),
(475,249,cs),
(485,275,o),
(490,299,o),
(490,320,cs),
(490,413,o),
(405,462,o),
(311,462,cs),
(208,462,o),
(93,403,o),
(63,278,cs)
);
},
{
closed = 1;
nodes = (
(195,403,o),
(174,365,o),
(174,343,cs),
(174,333,o),
(179,326,o),
(189,326,cs),
(198,326,o),
(212,331,o),
(231,345,cs),
(382,456,o),
(437,552,o),
(437,618,cs),
(437,680,o),
(389,716,o),
(326,716,cs),
(238,716,o),
(121,645,o),
(66,473,cs),
(60,454,o),
(57,438,o),
(57,424,cs),
(57,396,o),
(69,380,o),
(85,380,cs),
(104,380,o),
(129,403,o),
(146,455,cs),
(167,524,o),
(233,556,o),
(276,556,cs),
(299,556,o),
(315,547,o),
(315,529,cs),
(315,508,o),
(293,475,o),
(233,431,cs)
);
},
{
closed = 1;
nodes = (
(479,270,o),
(484,294,o),
(484,308,cs),
(484,316,o),
(482,321,o),
(479,321,cs),
(472,321,o),
(458,301,o),
(443,257,cs),
(416,184,o),
(337,150,o),
(265,150,cs),
(196,150,o),
(134,182,o),
(134,240,cs),
(134,256,o),
(139,274,o),
(150,295,cs),
(156,307,o),
(159,314,o),
(159,318,cs),
(159,321,o),
(158,322,o),
(156,322,cs),
(142,322,o),
(81,258,o),
(52,203,cs),
(38,177,o),
(32,151,o),
(32,127,cs),
(32,46,o),
(104,-14,o),
(193,-14,cs),
(288,-14,o),
(402,54,o),
(467,237,cs)
);
}
);
width = 520;
}
);
unicode = 98;
},
{
glyphname = c;
lastChange = "2024-02-14 17:17:26 +0000";
layers = (
{
guides = (
{
pos = (324,715);
}
);
layerId = m01;
shapes = (
{
closed = 1;
nodes = (
(239,577,o),
(247,595,o),
(247,606,cs),
(247,613,o),
(243,616,o),
(237,616,cs),
(220,616,o),
(185,592,o),
(151,545,cs),
(65,430,o),
(30,311,o),
(30,213,cs),
(30,80,o),
(95,-16,o),
(187,-16,cs),
(240,-16,o),
(302,16,o),
(366,91,cs),
(405,137,o),
(426,186,o),
(426,210,cs),
(426,219,o),
(423,224,o),
(417,224,cs),
(408,224,o),
(392,213,o),
(368,185,cs),
(343,156,o),
(316,144,o),
(291,144,cs),
(220,144,o),
(157,243,o),
(157,360,cs),
(157,423,o),
(175,491,o),
(219,551,cs)
);
},
{
closed = 1;
nodes = (
(343,483,o),
(470,610,o),
(461,628,cs),
(448,653,o),
(419,715,o),
(361,715,cs),
(331,715,o),
(294,698,o),
(249,652,cs),
(197,600,o),
(163,532,o),
(180,532,cs),
(186,532,o),
(198,540,o),
(217,560,cs),
(225,567,o),
(234,571,o),
(245,571,cs),
(274,571,o),
(312,543,o),
(333,502,cs)
);
}
);
width = 471;
}
);
unicode = 99;
},
{
glyphname = d;
lastChange = "2024-02-14 17:17:26 +0000";
layers = (
{
guides = (
{
pos = (295,715);
}
);
layerId = m01;
shapes = (
{
closed = 1;
nodes = (
(124,725,o),
(47,562,o),
(65,553,cs),
(319,413,o),
(357,262,o),
(357,222,cs),
(357,217,o),
(357,214,o),
(356,213,cs),
(344,188,o),
(339,170,o),
(339,159,cs),
(339,147,o),
(344,141,o),
(352,141,cs),
(369,141,o),
(402,170,o),
(428,223,cs),
(451,271,o),
(462,315,o),
(462,356,cs),
(462,495,o),
(339,607,o),
(141,715,cs)
);
},
{
closed = 1;
nodes = (
(170,576,o),
(164,579,o),
(155,579,cs),
(132,579,o),
(88,561,o),
(87,546,cs),
(73,394,o),
(60,242,o),
(47,90,cs),
(46,84,o),
(52,81,o),
(60,81,cs),
(83,81,o),
(128,99,o),
(129,114,cs),
(143,266,o),
(156,418,o),
(169,570,cs)
);
},
{
closed = 1;
nodes = (
(50,232,o),
(0,90,o),
(0,48,cs),
(0,42,o),
(1,38,o),
(3,37,cs),
(45,7,o),
(93,-15,o),
(146,-15,cs),
(218,-15,o),
(300,27,o),
(385,152,cs),
(405,180,o),
(413,204,o),
(413,220,cs),
(413,233,o),
(407,241,o),
(398,241,cs),
(386,241,o),
(367,229,o),
(347,198,cs),
(329,172,o),
(293,153,o),
(245,153,cs),
(196,153,o),
(135,172,o),
(65,221,cs)
);
}
);
width = 512;
}
);
unicode = 100;
},
{
glyphname = e;
lastChange = "2024-02-14 17:17:26 +0000";
layers = (
{
guides = (
{
pos = (301,715);
}
);
layerId = m01;
shapes = (
{
closed = 1;
nodes = (
(306,455,o),
(433,583,o),
(426,602,cs),
(397,681,o),
(345,714,o),
(300,714,cs),
(286,714,o),
(274,711,o),
(262,706,cs),
(50,606,o),
(47,140,o),
(28,41,cs),
(26,29,o),
(25,20,o),
(25,14,cs),
(25,-10,o),
(38,-1,o),
(39,0,cs),
(71,11,o),
(96,18,o),
(127,18,cs),
(139,18,o),
(151,17,o),
(166,14,cs),
(200,8,o),
(241,-4,o),
(281,-4,cs),
(313,-4,o),
(344,3,o),
(372,26,cs),
(400,49,o),
(428,132,o),
(428,171,cs),
(428,184,o),
(425,192,o),
(418,192,cs),
(414,192,o),
(410,190,o),
(404,186,cs),
(394,177,o),
(367,174,o),
(337,174,cs),
(300,174,o),
(257,178,o),
(226,184,cs),
(207,187,o),
(189,189,o),
(172,189,cs),
(149,189,o),
(126,186,o),
(101,176,c),
(104,163,o),
(108,149,o),
(112,135,c),
(161,387,o),
(178,538,o),
(212,554,cs),
(220,558,o),
(227,561,o),
(235,561,cs),
(253,561,o),
(273,544,o),
(298,476,cs)
);
},
{
closed = 1;
nodes = (
(61,438,o),
(15,314,o),
(15,278,cs),
(15,272,o),
(16,268,o),
(19,268,cs),
(127,269,o),
(235,269,o),
(342,269,cs),
(359,269,o),
(406,392,o),
(406,429,cs),
(406,435,o),
(405,439,o),
(402,439,cs),
(294,438,o),
(186,438,o),
(79,438,cs)
);
}
);
width = 478;
}
);
unicode = 101;
},
{
glyphname = f;
lastChange = "2024-02-14 17:17:26 +0000";
layers = (
{
layerId = m01;
shapes = (
{
closed = 1;
nodes = (
(430,588,o),
(455,669,o),
(455,701,cs),
(455,709,o),
(454,714,o),
(450,714,cs),
(446,714,o),
(441,710,o),
(435,701,cs),
(414,674,o),
(351,659,o),
(309,659,cs),
(254,659,o),
(192,681,o),
(159,710,cs),
(157,713,o),
(155,714,o),
(152,714,cs),
(122,714,o),
(80,578,o),
(80,574,cs),
(61,383,o),
(37,200,o),
(20,17,cs),
(19,5,o),
(24,0,o),
(32,0,cs),
(57,0,o),
(109,43,o),
(112,77,cs),
(132,282,o),
(145,487,o),
(164,684,c),
(138,638,o),
(111,593,o),
(85,548,c),
(124,511,o),
(192,489,o),
(249,489,cs),
(303,489,o),
(352,486,o),
(403,553,cs)
);
},
{
closed = 1;
nodes = (
(340,226,o),
(377,346,o),
(377,386,cs),
(377,395,o),
(376,400,o),
(372,400,cs),
(274,400,o),
(175,401,o),
(77,402,cs),
(61,402,o),
(24,282,o),
(24,241,cs),
(24,233,o),
(26,228,o),
(29,228,cs),
(127,228,o),
(226,227,o),
(324,226,cs)
);
}
);
width = 431;
}
);
unicode = 102;
},
{
glyphname = g;
lastChange = "2024-02-14 17:17:26 +0000";
layers = (
{
layerId = m01;
shapes = (
{
closed = 1;
nodes = (
(223,578,o),
(232,596,o),
(232,606,cs),
(232,611,o),
(229,614,o),
(224,614,cs),
(209,614,o),
(175,589,o),
(139,541,cs),
(47,419,o),
(10,295,o),
(10,195,cs),
(10,72,o),
(66,-15,o),
(144,-15,cs),
(192,-15,o),
(249,18,o),
(306,95,cs),
(347,151,o),
(370,200,o),
(370,219,cs),
(370,223,o),
(368,226,o),
(365,226,cs),
(358,226,o),
(341,211,o),
(314,175,cs),
(299,154,o),
(281,145,o),
(263,145,cs),
(203,145,o),
(139,242,o),
(139,359,cs),
(139,421,o),
(157,489,o),
(203,551,cs)
);
},
{
closed = 1;
nodes = (
(276,356,o),
(207,256,o),
(224,256,cs),
(227,256,o),
(233,259,o),
(242,266,cs),
(250,273,o),
(266,279,o),
(282,279,cs),
(308,279,o),
(335,265,o),
(335,217,cs),
(335,174,o),
(325,129,o),
(319,85,cs),
(318,75,o),
(318,65,o),
(318,57,cs),
(318,8,o),
(336,-6,o),
(343,-14,cs),
(356,-29,o),
(472,86,o),
(472,110,cs),
(472,115,o),
(458,117,o),
(458,157,cs),
(458,167,o),
(459,178,o),
(461,193,cs),
(465,234,o),
(473,275,o),
(476,317,cs),
(479,373,o),
(437,415,o),
(386,415,cs),
(364,415,o),
(340,407,o),
(318,390,cs)
);
},
{
closed = 1;
nodes = (
(354,482,o),
(481,609,o),
(471,626,cs),
(455,653,o),
(420,713,o),
(358,713,cs),
(328,713,o),
(292,699,o),
(249,659,cs),
(199,613,o),
(151,529,o),
(169,529,cs),
(174,529,o),
(184,535,o),
(199,549,cs),
(214,563,o),
(231,569,o),
(247,569,cs),
(285,569,o),
(322,536,o),
(343,500,cs)
);
}
);
width = 526;
}
);
unicode = 103;
},
{
glyphname = h;
lastChange = "2024-02-14 17:17:26 +0000";
layers = (
{
layerId = m01;
shapes = (
{
closed = 1;
nodes = (
(77,437,o),
(30,312,o),
(30,277,cs),
(30,271,o),
(31,267,o),
(34,267,cs),
(178,268,o),
(323,268,o),
(467,268,cs),
(484,268,o),
(531,392,o),
(531,428,cs),
(531,434,o),
(530,438,o),
(527,438,cs),
(383,437,o),
(238,437,o),
(94,437,cs)
);
},
{
closed = 1;
nodes = (
(195,726,o),
(65,603,o),
(75,584,cs),
(87,562,o),
(91,554,o),
(91,535,cs),
(91,526,o),
(90,515,o),
(88,500,cs),
(77,369,o),
(69,237,o),
(59,106,cs),
(59,97,o),
(58,88,o),
(58,81,cs),
(58,34,o),
(72,17,o),
(97,0,cs),
(113,-11,o),
(240,116,o),
(223,128,cs),
(205,140,o),
(199,148,o),
(199,179,cs),
(199,189,o),
(199,200,o),
(201,214,cs),
(211,345,o),
(218,477,o),
(230,608,cs),
(230,617,o),
(231,624,o),
(231,631,cs),
(231,666,o),
(221,679,o),
(205,708,cs)
);
},
{
closed = 1;
nodes = (
(463,726,o),
(333,603,o),
(343,584,cs),
(355,563,o),
(358,553,o),
(358,534,cs),
(358,525,o),
(358,515,o),
(356,500,cs),
(346,369,o),
(337,237,o),
(327,106,cs),
(327,97,o),
(326,88,o),
(326,81,cs),
(326,34,o),
(340,17,o),
(365,0,cs),
(381,-11,o),
(508,116,o),
(491,128,cs),
(473,140,o),
(467,148,o),
(467,179,cs),
(467,189,o),
(467,200,o),
(469,214,cs),
(479,345,o),
(488,477,o),
(498,608,cs),
(502,662,o),
(492,673,o),
(473,708,cs)
);
}
);
width = 571;
}
);
unicode = 104;
},
{
glyphname = i;
lastChange = "2024-02-14 17:17:26 +0000";
layers = (
{
layerId = m01;
shapes = (
{
closed = 1;
nodes = (
(187,726,o),
(57,603,o),
(67,584,cs),
(78,563,o),
(83,553,o),
(83,531,cs),
(83,521,o),
(82,508,o),
(80,490,cs),
(70,362,o),
(61,234,o),
(51,106,cs),
(51,97,o),
(50,88,o),
(50,81,cs),
(50,34,o),
(64,17,o),
(89,0,cs),
(105,-11,o),
(232,116,o),
(215,128,cs),
(198,140,o),
(191,148,o),
(191,179,cs),
(191,189,o),
(191,200,o),
(193,214,cs),
(202,342,o),
(211,470,o),
(222,598,cs),
(222,609,o),
(223,618,o),
(223,627,cs),
(223,667,o),
(213,679,o),
(197,708,cs)
);
}
);
width = 273;
}
);
unicode = 105;
},
{
glyphname = j;
lastChange = "2024-02-14 17:17:26 +0000";
layers = (
{
layerId = m01;
shapes = (
{
closed = 1;
nodes = (
(126,262,o),
(127,265,o),
(127,267,cs),
(127,269,o),
(126,270,o),
(124,270,cs),
(106,270,o),
(16,190,o),
(-2,153,cs),
(-11,135,o),
(-15,117,o),
(-15,99,cs),
(-15,38,o),
(34,-16,o),
(100,-16,cs),
(146,-16,o),
(201,10,o),
(254,77,cs),
(279,109,o),
(293,148,o),
(293,170,cs),
(293,180,o),
(290,186,o),
(284,186,cs),
(278,186,o),
(268,179,o),
(254,161,cs),
(235,136,o),
(208,125,o),
(182,125,cs),
(144,125,o),
(108,151,o),
(108,198,cs),
(108,215,o),
(113,235,o),
(124,257,cs)
);
},
{
closed = 1;
nodes = (
(412,689,o),
(413,693,o),
(413,696,cs),
(413,701,o),
(410,703,o),
(405,703,cs),
(379,703,o),
(293,640,o),
(274,597,cs),
(263,572,o),
(263,566,o),
(257,506,cs),
(247,379,o),
(239,253,o),
(229,126,cs),
(227,89,o),
(231,77,o),
(238,77,cs),
(252,77,o),
(279,132,o),
(278,131,cs),
(233,103,o),
(150,7,o),
(169,7,cs),
(172,7,o),
(178,10,o),
(186,15,cs),
(271,67,o),
(368,203,o),
(371,234,cs),
(380,361,o),
(388,488,o),
(399,614,cs),
(404,676,o),
(405,674,o),
(410,685,cs)
);
},
{
closed = 1;
nodes = (
(347,612,o),
(399,694,o),
(383,694,cs),
(380,694,o),
(374,691,o),
(366,685,cs),
(345,668,o),
(320,662,o),
(296,662,cs),
(246,662,o),
(197,689,o),
(187,713,cs),
(178,735,o),
(75,590,o),
(85,567,cs),
(92,549,o),
(126,530,o),
(174,530,cs),
(213,530,o),
(260,543,o),
(308,581,cs)
);
}
);
width = 443;
}
);
unicode = 106;
},
{
glyphname = k;
lastChange = "2024-02-14 17:17:26 +0000";
layers = (
{
guides = (
{
pos = (169,711);
}
);
layerId = m01;
shapes = (
{
closed = 1;
nodes = (
(157,721,o),
(26,591,o),
(42,578,cs),
(47,575,o),
(65,551,o),
(61,496,cs),
(51,370,o),
(41,244,o),
(32,118,cs),
(30,105,o),
(30,93,o),
(30,82,cs),
(30,38,o),
(40,17,o),
(69,0,cs),
(89,-11,o),
(220,140,o),
(199,152,cs),
(187,158,o),
(176,167,o),
(176,208,cs),
(176,214,o),
(176,221,o),
(176,230,cs),
(186,356,o),
(196,482,o),
(205,608,cs),
(211,677,o),
(183,701,o),
(172,710,cs)
);
},
{
closed = 1;
nodes = (
(524,689,o),
(527,695,o),
(527,699,cs),
(527,707,o),
(519,710,o),
(506,710,cs),
(474,710,o),
(415,689,o),
(389,659,cs),
(368,636,o),
(105,291,o),
(102,288,cs),
(98,283,o),
(96,279,o),
(96,276,cs),
(96,271,o),
(101,269,o),
(109,269,cs),
(138,269,o),
(212,300,o),
(236,330,cs),
(248,345,o),
(495,655,o),
(517,681,cs)
);
},
{
closed = 1;
nodes = (
(104,309,o),
(82,249,o),
(82,222,cs),
(82,213,o),
(85,207,o),
(90,207,cs),
(95,207,o),
(102,211,o),
(111,222,cs),
(154,268,o),
(201,289,o),
(241,289,cs),
(305,289,o),
(354,238,o),
(354,154,cs),
(354,121,o),
(347,82,o),
(329,40,cs),
(324,29,o),
(323,21,o),
(323,14,cs),
(323,4,o),
(328,-1,o),
(337,-1,cs),
(371,-1,o),
(451,59,o),
(475,116,cs),
(498,170,o),
(507,217,o),
(507,258,cs),
(507,374,o),
(429,436,o),
(334,436,cs),
(267,436,o),
(191,404,o),
(131,338,cs)
);
}
);
width = 547;
}
);
unicode = 107;
},
{
glyphname = l;
lastChange = "2024-02-14 17:17:26 +0000";
layers = (
{
layerId = m01;
shapes = (
{
closed = 1;
nodes = (
(184,721,o),
(53,591,o),
(69,578,cs),
(73,575,o),
(86,557,o),
(86,518,cs),
(86,512,o),
(85,504,o),
(85,496,cs),
(70,370,o),
(57,244,o),
(43,118,cs),
(41,103,o),
(40,88,o),
(40,75,cs),
(40,31,o),
(50,0,o),
(79,0,cs),
(105,0,o),
(236,152,o),
(203,152,cs),
(189,152,o),
(183,157,o),
(183,178,cs),
(183,190,o),
(185,206,o),
(187,230,cs),
(202,356,o),
(215,482,o),
(229,608,cs),
(230,616,o),
(231,624,o),
(231,632,cs),
(231,683,o),
(209,702,o),
(199,710,cs)
);
},
{
closed = 1;
nodes = (
(162,129,o),
(100,24,o),
(117,24,cs),
(119,24,o),
(123,26,o),
(129,30,cs),
(151,48,o),
(176,55,o),
(199,55,cs),
(250,55,o),
(296,24,o),
(306,1,cs),
(315,-22,o),
(417,127,o),
(408,147,cs),
(400,167,o),
(358,196,o),
(304,196,cs),
(271,196,o),
(233,185,o),
(195,156,cs)
);
}
);
width = 461;
}
);
unicode = 108;
},
{
glyphname = m;
lastChange = "2024-02-14 17:17:26 +0000";
layers = (
{
layerId = m01;
shapes = (
{
closed = 1;
nodes = (
(233,720,o),
(102,591,o),
(118,579,cs),
(172,540,o),
(226,181,o),
(233,3,cs),
(234,-26,o),
(366,103,o),
(365,129,cs),
(358,309,o),
(306,666,o),
(248,709,cs)
);
},
{
closed = 1;
nodes = (
(-4,18,o),
(-5,14,o),
(-5,11,cs),
(-5,3,o),
(-1,0,o),
(6,0,cs),
(30,0,o),
(84,43,o),
(93,78,cs),
(167,354,o),
(189,633,o),
(189,634,cs),
(190,640,o),
(187,642,o),
(183,642,cs),
(163,642,o),
(100,583,o),
(97,556,cs),
(96,545,o),
(70,293,o),
(-3,22,cs)
);
},
{
closed = 1;
nodes = (
(232,102,o),
(231,98,o),
(231,95,cs),
(231,91,o),
(233,89,o),
(238,89,cs),
(260,89,o),
(331,138,o),
(349,173,cs),
(464,397,o),
(520,636,o),
(521,639,cs),
(524,648,o),
(521,652,o),
(516,652,cs),
(493,652,o),
(420,588,o),
(411,551,cs),
(408,542,o),
(348,327,o),
(235,107,cs)
);
},
{
closed = 1;
nodes = (
(542,707,o),
(410,575,o),
(438,575,cs),
(451,575,o),
(452,516,o),
(452,436,cs),
(452,399,o),
(452,358,o),
(452,316,cs),
(452,190,o),
(455,55,o),
(479,1,cs),
(489,-19,o),
(619,111,o),
(611,129,cs),
(587,181,o),
(585,305,o),
(585,425,cs),
(585,457,o),
(585,489,o),
(585,519,cs),
(585,624,o),
(583,707,o),
(564,707,cs)
);
}
);
width = 655;
}
);
unicode = 109;
},
{
glyphname = n;
lastChange = "2024-02-14 17:17:26 +0000";
layers = (
{
layerId = m01;
shapes = (
{
closed = 1;
nodes = (
(170,725,o),
(49,606,o),
(59,588,cs),
(150,423,o),
(271,94,o),
(377,0,cs),
(391,-13,o),
(512,107,o),
(497,120,cs),
(483,133,o),
(477,140,o),
(477,178,cs),
(477,230,o),
(488,339,o),
(509,598,cs),
(510,609,o),
(510,618,o),
(510,626,cs),
(510,666,o),
(500,679,o),
(485,707,cs),
(475,726,o),
(351,609,o),
(361,591,cs),
(373,569,o),
(378,560,o),
(378,537,cs),
(378,527,o),
(377,514,o),
(375,496,cs),
(357,265,o),
(347,150,o),
(347,88,cs),
(347,28,o),
(357,18,o),
(377,0,cs),
(391,-13,o),
(512,107,o),
(497,120,cs),
(394,212,o),
(272,541,o),
(181,706,cs)
);
},
{
closed = 1;
nodes = (
(30,5,o),
(35,1,o),
(42,1,cs),
(65,1,o),
(114,40,o),
(121,72,cs),
(132,126,o),
(172,594,o),
(172,595,cs),
(173,607,o),
(168,612,o),
(160,612,cs),
(136,612,o),
(85,569,o),
(82,537,cs),
(80,519,o),
(30,-76,o),
(30,13,cs)
);
}
);
width = 540;
}
);
unicode = 110;
},
{
glyphname = o;
lastChange = "2024-02-14 17:17:26 +0000";
layers = (
{
layerId = m01;
shapes = (
{
closed = 1;
nodes = (
(223,591,o),
(228,603,o),
(228,611,cs),
(228,639,o),
(162,600,o),
(118.74,529.794,cs),
(41,404,o),
(10,289,o),
(10,196,cs),
(10,67,o),
(71,-17,o),
(153,-17,cs),
(186,-17,o),
(223,-3,o),
(260.379,26.807,cs),
(305,63,o),
(361,164,o),
(361,195,cs),
(361,200,o),
(359,203,o),
(355,203,cs),
(350,203,o),
(343,199,o),
(333.621,191.193,cs),
(304,167,o),
(276,157,o),
(251,157,cs),
(185,157,o),
(138,230,o),
(138,334,cs),
(138,404,o),
(159,488,o),
(211.26,572.206,cs)
);
},
{
closed = 1;
nodes = (
(261,125,o),
(252,105,o),
(252,94,cs),
(252,86,o),
(256,82,o),
(263,82,cs),
(280,82,o),
(317,108,o),
(354.199,159.567,cs),
(441,280,o),
(473,392,o),
(473,484,cs),
(473,623,o),
(398,715,o),
(319,715,cs),
(297,715,o),
(275,708,o),
(254.263,693.894,cs),
(201,657,o),
(109,528,o),
(135,528,cs),
(139,528,o),
(145,531,o),
(155.737,538.106,cs),
(171,549,o),
(186,553,o),
(200,553,cs),
(271,553,o),
(328,435,o),
(328,317,cs),
(328,258,o),
(314,199,o),
(281.801,154.433,cs)
);
}
);
width = 494;
}
);
unicode = 111;
},
{
glyphname = oe;
lastChange = "2024-02-14 17:17:26 +0000";
layers = (
{
layerId = m01;
shapes = (
{
closed = 1;
nodes = (
(213,591,o),
(218,603,o),
(218,611,cs),
(218,639,o),
(152,600,o),
(109,530,cs),
(31,404,o),
(0,289,o),
(0,196,cs),
(0,67,o),
(61,-17,o),
(143,-17,cs),
(176,-17,o),
(213,-3,o),
(250,27,cs),
(295,63,o),
(351,164,o),
(351,195,cs),
(351,200,o),
(349,203,o),
(345,203,cs),
(340,203,o),
(333,199,o),
(324,191,cs),
(294,167,o),
(266,157,o),
(241,157,cs),
(175,157,o),
(128,230,o),
(128,334,cs),
(128,404,o),
(149,488,o),
(201,572,cs)
);
},
{
closed = 1;
nodes = (
(251,125,o),
(242,105,o),
(242,94,cs),
(242,86,o),
(246,82,o),
(253,82,cs),
(270,82,o),
(307,108,o),
(344,160,cs),
(431,280,o),
(463,392,o),
(463,484,cs),
(463,623,o),
(388,715,o),
(309,715,cs),
(287,715,o),
(265,708,o),
(244,694,cs),
(191,657,o),
(99,528,o),
(125,528,cs),
(129,528,o),
(135,531,o),
(146,538,cs),
(161,549,o),
(176,553,o),
(190,553,cs),
(261,553,o),
(318,435,o),
(318,317,cs),
(318,258,o),
(304,199,o),
(272,154,cs)
);
},
{
closed = 1;
nodes = (
(609,455,o),
(736,583,o),
(729,602,cs),
(700,681,o),
(648,714,o),
(603,714,cs),
(589,714,o),
(577,711,o),
(565,706,cs),
(353,606,o),
(350,140,o),
(331,41,cs),
(329,29,o),
(328,20,o),
(328,14,cs),
(328,-10,o),
(341,-1,o),
(342,0,cs),
(374,11,o),
(399,18,o),
(430,18,cs),
(442,18,o),
(454,17,o),
(469,14,cs),
(503,8,o),
(544,-4,o),
(584,-4,cs),
(616,-4,o),
(647,3,o),
(675,26,cs),
(703,49,o),
(731,132,o),
(731,171,cs),
(731,184,o),
(728,192,o),
(721,192,cs),
(717,192,o),
(713,190,o),
(707,186,cs),
(697,177,o),
(670,174,o),
(640,174,cs),
(603,174,o),
(560,178,o),
(529,184,cs),
(510,187,o),
(492,189,o),
(475,189,cs),
(452,189,o),
(429,186,o),
(404,176,c),
(407,163,o),
(411,149,o),
(415,135,c),
(464,387,o),
(481,538,o),
(515,554,cs),
(523,558,o),
(530,561,o),
(538,561,cs),
(556,561,o),
(576,544,o),
(601,476,cs)
);
},
{
closed = 1;
nodes = (
(364,438,o),
(318,314,o),
(318,278,cs),
(318,272,o),
(319,268,o),
(322,268,cs),
(430,269,o),
(538,269,o),
(645,269,cs),
(662,269,o),
(709,392,o),
(709,429,cs),
(709,435,o),
(708,439,o),
(705,439,cs),
(597,438,o),
(489,438,o),
(382,438,cs)
);
}
);
width = 761;
}
);
unicode = 339;
},
{
glyphname = p;
lastChange = "2024-02-14 18:55:28 +0000";
layers = (
{
guides = (
{
pos = (702,374);
},
{
pos = (614,569);
}
);
layerId = m01;
shapes = (
{
closed = 1;
nodes = (
(228,669,o),
(232,678,o),
(232,683,cs),
(232,686,o),
(230,688,o),
(225,688,cs),
(205,688,o),
(149,656,o),
(116,617,cs),
(22,507,o),
(10,229,o),
(10,91,cs),
(10,44,o),
(11,13,o),
(11,11,cs),
(11,2,o),
(15,-1,o),
(22,-1,cs),
(54,-1,o),
(137,66,o),
(137,99,cs),
(137,118,o),
(139,565,o),
(218,657,cs)
);
},
{
closed = 1;
nodes = (
(180,336,o),
(164,312,o),
(164,297,cs),
(164,287,o),
(171,281,o),
(184,281,cs),
(197,281,o),
(218,288,o),
(244,306,cs),
(360,384,o),
(419,495,o),
(419,576,cs),
(419,627,o),
(393,716,o),
(297,716,cs),
(290,716,o),
(283,716,o),
(275,715,cs),
(233,709,o),
(116,632,o),
(116,612,cs),
(116,608,o),
(120,606,o),
(131,607,cs),
(137,608,o),
(144,608,o),
(150,608,cs),
(229,608,o),
(263,541,o),
(265,509,cs),
(269,439,o),
(218,361,o),
(216,360,cs)
);
},
{
closed = 1;
nodes = (
(290,337,o),
(345,414,o),
(323,414,cs),
(318,414,o),
(310,410,o),
(297,402,cs),
(283,393,o),
(256,388,o),
(227,388,cs),
(179,388,o),
(125,402,o),
(117,433,cs),
(108,469,o),
(40,329,o),
(49,295,cs),
(56,268,o),
(76,252,o),
(109,252,cs),
(141,252,o),
(184,268,o),
(237,302,cs)
);
}
);
width = 409;
}
);
unicode = 112;
},
{
glyphname = q;
lastChange = "2024-02-14 17:17:26 +0000";
layers = (
{
background = {
shapes = (
{
closed = 1;
nodes = (
);
},
{
closed = 1;
nodes = (
);
}
);
};
guides = (
{
pos = (298,713);
}
);
layerId = m01;
shapes = (
{
closed = 1;
nodes = (
(252,324,o),
(248,326,o),
(244,326,cs),
(226,326,o),
(196,292,o),
(196,269,cs),
(196,266,o),
(197,263,o),
(198,260,cs),
(211,234,o),
(352,-9,o),
(352,-9,cs),
(355,-13,o),
(358,-15,o),
(362,-15,cs),
(380,-15,o),
(410,20,o),
(410,42,cs),
(410,45,o),
(409,49,o),
(408,51,cs),
(400,65,o),
(273,281,o),
(254,320,cs)
);
},
{
closed = 1;
nodes = (
(224,591,o),
(229,603,o),
(229,611,cs),
(229,639,o),
(163,600,o),
(120,530,cs),
(41,403,o),
(10,288,o),
(10,196,cs),
(10,66,o),
(72,-17,o),
(153,-17,cs),
(185,-17,o),
(220,-4,o),
(254,24,cs),
(300,61,o),
(380,202,o),
(357,202,cs),
(354,202,o),
(349,200,o),
(342,194,cs),
(310,168,o),
(280,157,o),
(253,157,cs),
(185,157,o),
(139,231,o),
(139,334,cs),
(139,405,o),
(161,489,o),
(212,572,cs)
);
},
{
closed = 1;
nodes = (
(263,111,o),
(255,95,o),
(255,88,cs),
(255,68,o),
(308,108,o),
(356,176,cs),
(438,290,o),
(469,397,o),
(469,485,cs),
(469,622,o),
(394,713,o),
(316,713,cs),
(296,713,o),
(276,708,o),
(257,695,cs),
(204,660,o),
(109,528,o),
(136,528,cs),
(139,528,o),
(146,531,o),
(155,537,cs),
(169,546,o),
(183,550,o),
(196,550,cs),
(269,550,o),
(332,431,o),
(332,307,cs),
(332,248,o),
(317,187,o),
(282,138,cs)
);
}
);
width = 489;
}
);
unicode = 113;
},
{
glyphname = r;
lastChange = "2024-02-14 17:17:26 +0000";
layers = (
{
guides = (
{
pos = (303,713);
}
);
layerId = m01;
shapes = (
{
closed = 1;
nodes = (
(176,505,o),
(177,509,o),
(177,512,cs),
(177,519,o),
(173,522,o),
(166,522,cs),
(140,522,o),
(68,471,o),
(53,432,cs),
(31,379,o),
(20,15,o),
(20,12,cs),
(20,4,o),
(24,0,o),
(31,0,cs),
(62,0,o),
(145,67,o),
(146,100,cs),
(147,114,o),
(159,465,o),
(173,500,cs)
);
},
{
closed = 1;
nodes = (
(185,376,o),
(167,341,o),
(167,321,cs),
(167,310,o),
(172,303,o),
(182,303,cs),
(192,303,o),
(207,309,o),
(227,325,cs),
(375,440,o),
(429,538,o),
(429,606,cs),
(429,669,o),
(382,706,o),
(320,706,cs),
(231,706,o),
(111,630,o),
(56,445,cs),
(51,427,o),
(49,412,o),
(49,399,cs),
(49,371,o),
(61,355,o),
(76,355,cs),
(96,355,o),
(122,380,o),
(138,433,cs),
(160,507,o),
(227,543,o),
(270,543,cs),
(293,543,o),
(309,533,o),
(309,514,cs),
(309,491,o),
(286,454,o),
(223,405,cs)
);
},
{
closed = 1;
nodes = (
(54,305,o),
(32,245,o),
(32,217,cs),
(32,208,o),
(35,202,o),
(40,202,cs),
(45,202,o),
(52,206,o),
(61,216,cs),
(103,261,o),
(150,281,o),
(192,281,cs),
(255,281,o),
(305,234,o),
(305,152,cs),
(305,120,o),
(297,83,o),
(279,41,cs),
(275,29,o),
(272,21,o),
(272,14,cs),
(272,4,o),
(278,-1,o),
(288,-1,cs),
(321,-1,o),
(400,58,o),
(425,115,cs),
(448,170,o),
(458,217,o),
(458,257,cs),
(458,370,o),
(379,428,o),
(285,428,cs),
(217,428,o),
(140,397,o),
(81,334,cs)
);
}
);
width = 498;
}
);
unicode = 114;
},
{
glyphname = s;
lastChange = "2024-02-14 17:17:26 +0000";
layers = (
{
guides = (
{
pos = (270,713);
}
);
layerId = m01;
shapes = (
{
closed = 1;
nodes = (
(50,268,o),
(-5,134,o),
(-5,90,cs),
(-5,86,o),
(-5,83,o),
(-4,80,cs),
(13,47,o),
(73,-15,o),
(148,-15,cs),
(196,-15,o),
(251,10,o),
(304,86,cs),
(372,183,o),
(398,245,o),
(398,289,cs),
(398,355,o),
(337,379,o),
(274,420,cs),
(164,492,o),
(145,528,o),
(145,545,cs),
(145,553,o),
(149,556,o),
(150,558,cs),
(154,563,o),
(164,566,o),
(179,566,cs),
(225,566,o),
(315,534,o),
(354,447,cs),
(365,422,o),
(428,592,o),
(418,613,cs),
(405,643,o),
(343,713,o),
(266,713,cs),
(223,713,o),
(176,691,o),
(130,626,cs),
(64,534,o),
(39,472,o),
(39,426,cs),
(39,362,o),
(89,330,o),
(150,290,cs),
(265,215,o),
(291,188,o),
(291,170,cs),
(291,164,o),
(287,158,o),
(282,152,cs),
(277,144,o),
(262,140,o),
(243,140,cs),
(189,140,o),
(98,173,o),
(62,246,cs)
);
}
);
width = 445;
}
);
unicode = 115;
},
{
glyphname = germandbls;
lastChange = "2024-02-14 16:34:31 +0000";
layers = (
{
background = {
shapes = (
{
closed = 0;
nodes = (
(537,638,l,{
"Letterink-NibData" = {
AngleInDegrees = "14";
MainAxisWidth = "150";
MinorAxisWidth = "23";
ValidForParentMainAxisWidth = "30";
ValidForParentMinorAxisWidth = "15";
};
}),
(477,615,o),
(141,643,o),
(112,630,c,{
"Letterink-NibData" = {
AngleInDegrees = "22";
MainAxisWidth = "150";
MinorAxisWidth = "37";
ValidForParentMainAxisWidth = "30";
ValidForParentMinorAxisWidth = "15";
};
})
);
},
{
closed = 0;
nodes = (
(297,355,l,{
"Letterink-NibData" = {
MainAxisWidth = "91";
MinorAxisWidth = "35";
ValidForParentMainAxisWidth = "30";
ValidForParentMinorAxisWidth = "15";
};
}),
(443,484,o),
(588,394,o),
(509,230,c,{
"Letterink-NibData" = {
AngleInDegrees = "7";
MainAxisWidth = "150";
MinorAxisWidth = "15";
ValidForParentMainAxisWidth = "30";
ValidForParentMinorAxisWidth = "15";
};
})
);
},
{
closed = 0;
nodes = (
(550,271,l,{
"Letterink-NibData" = {
AngleInDegrees = "26";
MainAxisWidth = "130";
MinorAxisWidth = "15";
ValidForParentMainAxisWidth = "30";
ValidForParentMinorAxisWidth = "15";
};
}),
(448,56,o),
(231,-4,o),
(262,177,c,{
"Letterink-NibData" = {
MainAxisWidth = "150";
MinorAxisWidth = "15";
ValidForParentMainAxisWidth = "30";
ValidForParentMinorAxisWidth = "15";
};
})
);
},
{
closed = 0;
nodes = (
(466,584,l,{
"Letterink-NibData" = {
AngleInDegrees = "-21";
MainAxisWidth = "117";
MinorAxisWidth = "47";
ValidForParentMainAxisWidth = "30";
ValidForParentMinorAxisWidth = "15";
};
}),
(455,574,o),
(331,383,o),
(331,383,cs,{
"Letterink-NibData" = {
AngleInDegrees = "-12.4532512778801";
MainAxisWidth = "129";
MinorAxisWidth = "39.88939837145151";
ValidForParentMainAxisWidth = "30";
ValidForParentMinorAxisWidth = "15";
};
})
);
},
{
closed = 0;
nodes = (
(85,649,l,{
"Letterink-NibData" = {
AngleInDegrees = "-1";
MainAxisWidth = "155";
MinorAxisWidth = "15";
ValidForParentMainAxisWidth = "30";
ValidForParentMinorAxisWidth = "15";
};
}),
(109,649,o),
(118,619,o),
(113,550,cs,{
"Letterink-NibData" = {
AngleInDegrees = "-6";
MainAxisWidth = "155";
MinorAxisWidth = "15";
ValidForParentMainAxisWidth = "30";
ValidForParentMinorAxisWidth = "15";
};
}),
(84,168,ls,{
"Letterink-NibData" = {
AngleInDegrees = "-6";
MainAxisWidth = "155";
MinorAxisWidth = "15";
ValidForParentMainAxisWidth = "30";
ValidForParentMinorAxisWidth = "15";
};
}),
(79,103,o),
(82,78,o),
(97,67,c,{
"Letterink-NibData" = {
MainAxisWidth = "155";
MinorAxisWidth = "15";
ValidForParentMainAxisWidth = "30";
ValidForParentMinorAxisWidth = "15";
};
})
);
}
);
};
layerId = m01;
shapes = (
{
closed = 1;
nodes = (
(263,399,o),
(240,349,o),
(240,325,cs),
(240,316,o),
(243,311,o),
(249,311,cs),
(253,311,o),
(258,313,o),
(264.638,317.268,cs),
(286,332,o),
(327,344,o),
(367,344,cs),
(422,344,o),
(475,322,o),
(475,261,cs),
(475,234,o),
(465,198,o),
(438.329,152.487,cs),
(425,129,o),
(423,119,o),
(428,119,cs),
(442,119,o),
(496,175,o),
(527.671,229.513,cs),
(564,292,o),
(578,340,o),
(578,375,cs),
(578,443,o),
(525,467,o),
(462,467,cs),
(400,467,o),
(330,445,o),
(289.362,416.732,cs)
);
},
{
closed = 1;
nodes = (
(267,405,o),
(244,365,o),
(244,343,cs),
(244,332,o),
(248.997,326,o),
(259,326,cs),
(268,326,o),
(281,331,o),
(299.005,343.106,cs),
(455,453,o),
(513,548,o),
(513,615,cs),
(513,682,o),
(455,721,o),
(381,721,cs),
(281,721,o),
(150,650,o),
(86.879,478.879,cs),
(38,347,o),
(32,130,o),
(32,45,cs),
(32,18,o),
(33,5,o),
(33,11,cs),
(33,3,o),
(38,0,o),
(45,0,cs),
(73,0,o),
(142,54,o),
(143.236,85.264,cs),
(143.914,100.517,o),
(173.093,405.963,o),
(189.121,449.121,cs),
(218,526,o),
(291,560,o),
(340,560,cs),
(368,560,o),
(388,550,o),
(388,529,cs),
(388,507,o),
(366,474,o),
(306.995,432.894,cs)
);
},
{
closed = 1;
nodes = (
(550,292,o),
(552,298,o),
(552,302,cs),
(552,305,o),
(550,307,o),
(548,307,cs),
(535,307,o),
(487,243,o),
(468.777,191.209,cs),
(467,187,o),
(417,150,o),
(372,150,cs),
(345,150,o),
(320,163,o),
(309.437,204.267,cs),
(303,229,o),
(196,96,o),
(196,68,cs),
(196,57,o),
(243,0,o),
(311,0,cs),
(379,0,o),
(469,59,o),
(547.223,282.791,cs)
);
}
);
width = 526;
}
);
unicode = 223;
},
{
glyphname = t;
lastChange = "2024-02-14 17:17:26 +0000";
layers = (
{
layerId = m01;
shapes = (
{
closed = 1;
nodes = (
(422,539,o),
(469,642,o),
(469,684,cs),
(469,696,o),
(466,703,o),
(456,701,cs),
(432,697,o),
(401,696,o),
(367,696,cs),
(314,696,o),
(254,699,o),
(202,699,cs),
(150,699,o),
(105,696,o),
(81,684,cs),
(63,675,o),
(30,561,o),
(30,523,cs),
(30,514,o),
(32,510,o),
(37,512,cs),
(64,526,o),
(131,527,o),
(204,527,cs),
(274,527,o),
(347,526,o),
(396,535,cs)
);
},
{
closed = 1;
nodes = (
(285,570,o),
(151,443,o),
(160,423,cs),
(161,420,o),
(162,414,o),
(162,406,cs),
(162,351,o),
(135,190,o),
(135,83,cs),
(135,49,o),
(138,20,o),
(145,2,cs),
(154,-18,o),
(285,113,o),
(277,132,cs),
(271,147,o),
(268,171,o),
(268,201,cs),
(268,302,o),
(297,466,o),
(297,528,cs),
(297,538,o),
(296,545,o),
(294,549,cs)
);
}
);
width = 439;
}
);
unicode = 116;
},
{
glyphname = u;
lastChange = "2024-02-14 17:17:26 +0000";
layers = (
{
guides = (
{
pos = (274,713);
}
);
layerId = m01;
shapes = (
{
closed = 1;
nodes = (
(162,721,o),
(26,584,o),
(48,573,cs),
(61,567,o),
(66,532,o),
(66,471,cs),
(66,396,o),
(58,280,o),
(46,131,cs),
(39,58,o),
(72,-16,o),
(137,-16,cs),
(179,-16,o),
(234,14,o),
(300,93,cs),
(341,142,o),
(364,199,o),
(350,199,cs),
(345,199,o),
(335,191,o),
(318,171,cs),
(289,137,o),
(263,121,o),
(241,121,cs),
(205,121,o),
(181,162,o),
(181,229,cs),
(181,237,o),
(182,246,o),
(182,255,cs),
(195,405,o),
(205,522,o),
(205,600,cs),
(205,666,o),
(198,704,o),
(180,713,cs)
);
},
{
closed = 1;
nodes = (
(281,127,o),
(275,113,o),
(275,105,cs),
(275,100,o),
(277,98,o),
(281,98,cs),
(294,98,o),
(321,119,o),
(349,157,cs),
(379,199,o),
(406,260,o),
(413,301,cs),
(436,436,o),
(440,564,o),
(445,698,cs),
(445,708,o),
(441,713,o),
(433,713,cs),
(409,713,o),
(354,663,o),
(353,630,cs),
(348,490,o),
(343,360,o),
(319,221,cs),
(308,154,o),
(298,150,o),
(297,149,cs)
);
}
);
width = 465;
}
);
unicode = 117;
},
{
glyphname = v;
lastChange = "2024-02-14 17:17:26 +0000";
layers = (
{
guides = (
{
pos = (278,713);
}
);
layerId = m01;
shapes = (
{
closed = 1;
nodes = (
(499,695,o),
(499,698,o),
(499,702,cs),
(499,709,o),
(495,713,o),
(489,713,cs),
(463,713,o),
(398,660,o),
(385,618,cs),
(327,435,o),
(221,86,o),
(208,30,cs),
(199,-7,o),
(329,116,o),
(336,148,cs),
(345,186,o),
(445,525,o),
(497,690,cs)
);
},
{
closed = 1;
nodes = (
(190,-27,o),
(323,106,o),
(308,119,cs),
(290,133,o),
(271,144,o),
(257,229,cs),
(245,304,o),
(241,428,o),
(216,599,cs),
(206,666,o),
(191,708,o),
(162,713,cs),
(143,717,o),
(14,589,o),
(38,585,cs),
(49,582,o),
(71,546,o),
(80,481,cs),
(105,316,o),
(101,194,o),
(113,123,cs),
(128,28,o),
(150,5,o),
(174,-15,cs)
);
}
);
width = 475;
}
);
unicode = 118;
},
{
glyphname = w;
lastChange = "2024-02-14 17:17:26 +0000";
layers = (
{
background = {
shapes = (
{
angle = -13.1;
pos = (48,73);
ref = u;
}
);
};
guides = (
{
pos = (283,713);
}
);
layerId = m01;
shapes = (
{
closed = 1;
nodes = (
(361,-17,o),
(481,103,o),
(472,120,cs),
(409,233,o),
(443,660,o),
(389,712,cs),
(376,725,o),
(254,606,o),
(269,592,cs),
(317,546,o),
(285,119,o),
(350,2,cs)
);
},
{
closed = 1;
nodes = (
(691,696,o),
(692,700,o),
(692,704,cs),
(692,710,o),
(688,713,o),
(682,713,cs),
(657,713,o),
(589,665,o),
(573,626,cs),
(445,315,o),
(395,46,o),
(394,40,cs),
(387,8,o),
(497,124,o),
(504,158,cs),
(507,168,o),
(564,387,o),
(689,690,cs)
);
},
{
closed = 1;
nodes = (
(124,-17,o),
(244,103,o),
(235,120,cs),
(172,233,o),
(204,660,o),
(151,712,cs),
(138,725,o),
(16,606,o),
(31,592,cs),
(78,546,o),
(48,119,o),
(113,2,cs)
);
},
{
closed = 1;
nodes = (
(410,622,o),
(405,625,o),
(395,625,cs),
(371,625,o),
(319,605,o),
(313,589,cs),
(247,416,o),
(159,52,o),
(156,39,cs),
(146,4,o),
(254,119,o),
(262,151,cs),
(265,161,o),
(345,453,o),
(407,615,cs)
);
}
);
width = 662;
}
);
unicode = 119;
},
{
glyphname = x;
lastChange = "2024-02-14 17:17:26 +0000";
layers = (
{
guides = (
{
pos = (246,713);
}
);
layerId = m01;
shapes = (
{
closed = 1;
nodes = (
(544,687,o),
(547,694,o),
(547,700,cs),
(547,709,o),
(540,713,o),
(528,713,cs),
(498,713,o),
(443,687,o),
(417,649,cs),
(391,611,o),
(0,36,o),
(0,36,cs),
(-7,26,o),
(-10,19,o),
(-10,13,cs),
(-10,4,o),
(-3,0,o),
(9,0,cs),
(38,0,o),
(95,27,o),
(120,64,cs),
(120,64,o),
(511,639,o),
(537,677,cs)
);
},
{
closed = 1;
nodes = (
(405,4,o),
(513,148,o),
(484,142,cs),
(418,131,o),
(236,733,o),
(159,712,cs),
(133,705,o),
(24,561,o),
(55,570,cs),
(120,587,o),
(304,-13,o),
(378,0,cs)
);
}
);
width = 527;
}
);
unicode = 120;
},
{
glyphname = y;
lastChange = "2024-02-14 18:53:36 +0000";
layers = (
{
guides = (
{
pos = (270,713);
}
);
layerId = m01;
shapes = (
{
closed = 1;
nodes = (
(542,680,o),
(545,690,o),
(545,698,cs),
(545,708,o),
(539,713,o),
(529,713,cs),
(502,713,o),
(448,677,o),
(421,628,cs),
(403,594,o),
(137,44,o),
(136,42,cs),
(131,30,o),
(128,21,o),
(128,15,cs),
(128,4,o),
(134,0,o),
(143,0,cs),
(171,0,o),
(230,40,o),
(254,90,cs),
(266,114,o),
(514,627,o),
(535,666,cs)
);
},
{
closed = 1;
nodes = (
(272,328,o),
(371,437,o),
(349,437,cs),
(347,437,o),
(344,436,o),
(340,434,cs),
(337,433,o),
(334,432,o),
(331,432,cs),
(272,432,o),
(222,712,o),
(151,712,cs),
(148,712,o),
(145,712,o),
(142,711,cs),
(113,701,o),
(20,604,o),
(20,585,cs),
(20,582,o),
(22,581,o),
(28,583,cs),
(88,604,o),
(132,306,o),
(216,306,cs),
(222,306,o),
(228,307,o),
(234,310,cs)
);
}
);
width = 515;
}
);
unicode = 121;
},
{
glyphname = z;
lastChange = "2024-02-14 17:17:26 +0000";
layers = (
{
guides = (
{
pos = (199,713);
}
);
layerId = m01;
shapes = (
{
closed = 1;
nodes = (
(8,134,o),
(-20,50,o),
(-20,11,cs),
(-20,-1,o),
(-17,-9,o),
(-11,-9,cs),
(-8,-9,o),
(-3,-6,o),
(3,-1,cs),
(40,31,o),
(91,45,o),
(144,45,cs),
(207,45,o),
(271,24,o),
(313,-8,cs),
(328,-20,o),
(378,112,o),
(378,151,cs),
(378,155,o),
(377,159,o),
(375,160,cs),
(337,190,o),
(270,215,o),
(199,215,cs),
(142,215,o),
(83,199,o),
(35,157,cs)
);
},
{
closed = 1;
nodes = (
(108,734,o),
(55,601,o),
(55,560,cs),
(55,556,o),
(55,552,o),
(57,550,cs),
(82,518,o),
(145,499,o),
(213,499,cs),
(273,499,o),
(337,515,o),
(379,552,cs),
(400,570,o),
(438,680,o),
(438,711,cs),
(438,719,o),
(436,722,o),
(429,716,cs),
(394,685,o),
(332,670,o),
(272,670,cs),
(207,670,o),
(145,687,o),
(121,718,cs)
);
},
{
closed = 1;
nodes = (
(407,603,o),
(408,607,o),
(408,611,cs),
(408,622,o),
(400,627,o),
(387,627,cs),
(358,627,o),
(310,602,o),
(295,569,cs),
(239,436,o),
(37,213,o),
(-7,82,cs),
(-8,78,o),
(-9,74,o),
(-9,71,cs),
(-9,60,o),
(-1,55,o),
(12,55,cs),
(41,55,o),
(94,83,o),
(105,116,cs),
(135,207,o),
(333,430,o),
(405,597,cs)
);
}
);
width = 438;
}
);
unicode = 122;
},
{
glyphname = zero;
lastChange = "2024-02-14 17:17:26 +0000";
layers = (
{
background = {
shapes = (
{
closed = 0;
nodes = (
(419,377,l,{
"Letterink-NibData" = {
MainAxisWidth = 145;
MinorAxisWidth = 47;
ValidForParentMainAxisWidth = 30;
ValidForParentMinorAxisWidth = 15;
};
}),
(416,532,o),
(359,649,o),
(275,639,cs,{
"Letterink-NibData" = {
AngleInDegrees = 6;
MainAxisWidth = 157;
MinorAxisWidth = 81;
ValidForParentMainAxisWidth = 30;
ValidForParentMinorAxisWidth = 15;
};
}),
(192,629,o),
(110,489,o),
(76,335,cs,{
"Letterink-NibData" = {
MainAxisWidth = 145;
MinorAxisWidth = 47;
ValidForParentMainAxisWidth = 30;
ValidForParentMinorAxisWidth = 15;
};
})
);
},
{
closed = 0;
nodes = (
(75,329,l,{
"Letterink-NibData" = {
MainAxisWidth = 145;
MinorAxisWidth = 47;
ValidForParentMainAxisWidth = 30;
ValidForParentMinorAxisWidth = 15;
};
}),
(78,173,o),
(135,56,o),
(219,66,cs,{
"Letterink-NibData" = {
AngleInDegrees = 6;
MainAxisWidth = 157;
MinorAxisWidth = 81;
ValidForParentMainAxisWidth = 30;
ValidForParentMinorAxisWidth = 15;
};
}),
(302,77,o),
(385,216,o),
(419,371,cs,{
"Letterink-NibData" = {
MainAxisWidth = 145;
MinorAxisWidth = 47;
ValidForParentMainAxisWidth = 30;
ValidForParentMinorAxisWidth = 15;
};
})
);
}
);
};
layerId = m01;
shapes = (
{
closed = 1;
nodes = (
(472,398,o),
(474,408,o),
(474,416,cs),
(474,431,o),
(469,437,o),
(461,437,cs),
(437,437,o),
(388,378,o),
(372.51,310.99,cs),
(356,240,o),
(276,183,o),
(209,183,cs),
(155,183,o),
(110,218,o),
(110,312,cs),
(110,336,o),
(113,364,o),
(119.41,396.185,cs),
(121,406,o),
(122,415,o),
(122,422,cs),
(122,437,o),
(117,444,o),
(109,444,cs),
(85,444,o),
(35,383,o),
(20.59,313.815,cs),
(13,277,o),
(10,243,o),
(10,212,cs),
(10,70,o),
(81,-15,o),
(170,-15,cs),
(274,-15,o),
(403,103,o),
(469.49,385.01,cs)
);
},
{
closed = 1;
nodes = (
(20,320,o),
(17,306,o),
(17,296,cs),
(17,280,o),
(23,273,o),
(32,273,cs),
(53,273,o),
(93,315,o),
(114.003,380.924,cs),
(142,467,o),
(213,517,o),
(275,517,cs),
(332,517,o),
(381,475,o),
(381,381,cs),
(381,362,o),
(379,340,o),
(374.052,316.094,cs),
(372,307,o),
(371,299,o),
(371,293,cs),
(371,277,o),
(376,271,o),
(384,271,cs),
(408,271,o),
(461,338,o),
(473.948,403.906,cs),
(480,433,o),
(482,461,o),
(482,487,cs),
(482,621,o),
(414,714,o),
(325,714,cs),
(231,714,o),
(112,610,o),
(25.997,339.076,cs)
);
}
);
width = 502;
}
);
unicode = 48;
},
{
glyphname = one;
lastChange = "2024-02-14 17:17:26 +0000";
layers = (
{
layerId = m01;
shapes = (
{
closed = 1;
nodes = (
(269,727,o),
(139,604,o),
(149,585,cs),
(160,564,o),
(165,554,o),
(165,532,cs),
(165,522,o),
(164,509,o),
(162,491,cs),
(152,363,o),
(143,235,o),
(133,107,cs),
(133,98,o),
(132,89,o),
(132,82,cs),
(132,35,o),
(146,18,o),
(171,1,cs),
(187,-10,o),
(314,117,o),
(297,129,cs),
(280,141,o),
(273,149,o),
(273,180,cs),
(273,190,o),
(273,201,o),
(275,215,cs),
(284,343,o),
(293,471,o),
(304,599,cs),
(304,610,o),
(305,619,o),
(305,628,cs),
(305,668,o),
(295,680,o),
(279,709,cs)
);
},
{
closed = 1;
nodes = (
(234,676,o),
(232,678,o),
(229,678,cs),
(213,678,o),
(144,597,o),
(138,565,cs),
(124,493,o),
(82,414,o),
(32,374,cs),
(23,367,o),
(20,361,o),
(20,357,cs),
(20,352,o),
(27,349,o),
(37,349,cs),
(58,349,o),
(92,359,o),
(114,376,cs),
(220,462,o),
(214,575,o),
(232,669,cs)
);
}
);
width = 375;
}
);
unicode = 49;
},
{
glyphname = two;
lastChange = "2024-02-14 17:17:26 +0000";
layers = (
{
layerId = m01;
shapes = (
{
closed = 1;
nodes = (
(26,150,o),
(21,133,o),
(21,121,cs),
(21,107,o),
(28,98,o),
(40,98,cs),
(54,98,o),
(74,111,o),
(92,141,cs),
(175,276,o),
(216,297,o),
(346,436,cs),
(400,493,o),
(422,548,o),
(422,594,cs),
(422,668,o),
(366,719,o),
(297,719,cs),
(225,719,o),
(139,666,o),
(82,531,cs),
(68,499,o),
(62,471,o),
(62,450,cs),
(62,428,o),
(68,415,o),
(78,415,cs),
(89,415,o),
(104,431,o),
(120,469,cs),
(143,521,o),
(183,543,o),
(217,543,cs),
(249,543,o),
(276,523,o),
(276,491,cs),
(276,471,o),
(265,446,o),
(240,418,cs),
(192,367,o),
(123,306,o),
(38,169,cs)
);
},
{
closed = 1;
nodes = (
(23,159,o),
(-20,47,o),
(-20,10,cs),
(-20,1,o),
(-17,-3,o),
(-11,0,cs),
(30,19,o),
(83,45,o),
(156,45,cs),
(206,45,o),
(265,33,o),
(337,-1,cs),
(363,-13,o),
(416,99,o),
(416,146,cs),
(416,155,o),
(414,162,o),
(409,165,cs),
(332,201,o),
(269,213,o),
(216,213,cs),
(139,213,o),
(84,187,o),
(43,168,cs)
);
}
);
width = 457;
}
);
unicode = 50;
},
{
glyphname = three;
lastChange = "2024-02-14 17:17:26 +0000";
layers = (
{
layerId = m01;
shapes = (
{
closed = 1;
nodes = (
(395,560,o),
(434,664,o),
(434,701,cs),
(434,712,o),
(430,717,o),
(422,711,cs),
(391,691,o),
(312,686,o),
(266,686,cs),
(211,686,o),
(163,697,o),
(130,713,cs),
(105,724,o),
(51,614,o),
(51,567,cs),
(51,557,o),
(53,550,o),
(58,547,cs),
(97,529,o),
(149,516,o),
(206,516,cs),
(256,516,o),
(331,517,o),
(372,545,cs)
);
},
{
closed = 1;
nodes = (
(65,294,o),
(60,282,o),
(60,273,cs),
(60,264,o),
(65,260,o),
(74,260,cs),
(90,260,o),
(114,273,o),
(135,301,cs),
(151,320,o),
(190,334,o),
(229,334,cs),
(283,334,o),
(338,308,o),
(338,235,cs),
(338,210,o),
(332,179,o),
(317,142,cs),
(315,137,o),
(314,132,o),
(314,130,cs),
(314,127,o),
(315,126,o),
(316,126,cs),
(332,126,o),
(408,214,o),
(425,256,cs),
(436,283,o),
(441,310,o),
(441,334,cs),
(441,410,o),
(390,464,o),
(316,464,cs),
(249,464,o),
(162,420,o),
(77,309,cs)
);
},
{
closed = 1;
nodes = (
(420,238,o),
(433,291,o),
(433,313,cs),
(433,320,o),
(432,324,o),
(429,324,cs),
(425,324,o),
(418,316,o),
(408,296,cs),
(361,204,o),
(286,125,o),
(228,125,cs),
(191,125,o),
(161,155,o),
(148,231,cs),
(144,257,o),
(16,131,o),
(20,107,cs),
(34,24,o),
(82,-15,o),
(141,-15,cs),
(224,-15,o),
(329,60,o),
(400,198,cs)
);
},
{
closed = 1;
nodes = (
(384,554,o),
(392,568,o),
(392,577,cs),
(392,588,o),
(383,593,o),
(369,593,cs),
(348,593,o),
(314,579,o),
(281,550,cs),
(249,520,o),
(115,352,o),
(114,351,cs),
(104,338,o),
(99,328,o),
(99,321,cs),
(99,312,o),
(107,308,o),
(119,308,cs),
(146,308,o),
(195,330,o),
(224,365,cs),
(230,372,o),
(364,536,o),
(365,536,cs)
);
}
);
width = 491;
}
);
unicode = 51;
},
{
glyphname = four;
lastChange = "2024-02-14 17:17:26 +0000";
layers = (
{
layerId = m01;
shapes = (
{
closed = 1;
nodes = (
(48.022,381.589,o),
(-9.466,212.353,o),
(0.516,212.378,cs),
(134.874,212.711,o),
(269.207,213.044,o),
(403.516,213.378,cs),
(416.439,213.41,o),
(475.544,382.65,o),
(464.484,382.622,cs),
(330.126,382.289,o),
(195.793,381.956,o),
(61.484,381.622,cs)
);
},
{
closed = 1;
nodes = (
(55,377,o),
(51,343,o),
(51,318,cs),
(51,301,o),
(53,288,o),
(57.244,292.366,cs),
(138.577,381.366,o),
(219.91,470.366,o),
(301.244,559.366,cs),
(307,565,o),
(311,601,o),
(311,627,cs),
(311,643,o),
(309,655,o),
(304.756,650.634,cs),
(223.423,561.634,o),
(142.09,472.634,o),
(60.756,383.634,cs)
);
},
{
closed = 1;
nodes = (
(371.056,726.462,o),
(240.699,602.655,o),
(250.803,584.131,cs),
(262,563,o),
(267,553,o),
(267,531,cs),
(267,521,o),
(266,508,o),
(264.441,489.882,cs),
(254.365,361.914,o),
(245.274,233.869,o),
(235.441,105.882,cs),
(235,97,o),
(234,88,o),
(234,81,cs),
(234,34,o),
(248,17,o),
(272.769,0.029,cs),
(289.027,-11.226,o),
(416.069,116.314,o),
(399.231,127.971,cs),
(382,140,o),
(375,148,o),
(375,179,cs),
(375,189,o),
(375,200,o),
(376.559,214.118,cs),
(386.391,342.105,o),
(395.482,470.15,o),
(405.559,598.118,cs),
(406,609,o),
(407,618,o),
(407,627,cs),
(407,667,o),
(397,679,o),
(381.197,707.869,cs)
);
}
);
width = 496;
}
);
unicode = 52;
},
{
glyphname = five;
lastChange = "2024-02-14 17:17:26 +0000";
layers = (
{
layerId = m01;
shapes = (
{
closed = 1;
nodes = (
(428,588,o),
(453,669,o),
(453,701,cs),
(453,709,o),
(452,714,o),
(448,714,cs),
(444,714,o),
(439,710,o),
(433,701,cs),
(412,674,o),
(349,659,o),
(307,659,cs),
(252,659,o),
(190,681,o),
(157,710,cs),
(155,713,o),
(153,714,o),
(150,714,cs),
(120,714,o),
(78,575,o),
(78,572,cs),
(69,455,o),
(56,350,o),
(48,240,cs),
(47,229,o),
(52,224,o),
(60,224,cs),
(85,224,o),
(138,268,o),
(140,302,cs),
(150,431,o),
(153,564,o),
(162,686,c),
(136,640,o),
(109,594,o),
(83,548,c),
(122,511,o),
(190,489,o),
(247,489,cs),
(301,489,o),
(350,486,o),
(401,553,cs)
);
},
{
closed = 1;
nodes = (
(53,251,o),
(48,240,o),
(48,232,cs),
(48,224,o),
(54,219,o),
(63,219,cs),
(79,219,o),
(105,233,o),
(127,263,cs),
(148,292,o),
(209,318,o),
(263,318,cs),
(315,318,o),
(361,294,o),
(361,227,cs),
(361,202,o),
(354,171,o),
(340,133,cs),
(338,128,o),
(337,124,o),
(337,122,cs),
(337,119,o),
(338,118,o),
(340,118,cs),
(355,118,o),
(431,204,o),
(448,249,cs),
(459,277,o),
(464,303,o),
(464,326,cs),
(464,401,o),
(413,449,o),
(339,449,cs),
(262,449,o),
(158,396,o),
(63,265,cs)
);
},
{
closed = 1;
nodes = (
(440,238,o),
(453,291,o),
(453,313,cs),
(453,320,o),
(452,324,o),
(449,324,cs),
(445,324,o),
(438,316,o),
(428,296,cs),
(381,204,o),
(306,125,o),
(248,125,cs),
(211,125,o),
(181,155,o),
(168,231,cs),
(164,257,o),
(36,131,o),
(40,107,cs),
(54,24,o),
(102,-15,o),
(161,-15,cs),
(244,-15,o),
(349,60,o),
(420,198,cs)
);
}
);
width = 514;
}
);
unicode = 53;
},
{
glyphname = six;
lastChange = "2024-02-14 17:17:26 +0000";
layers = (
{
layerId = m01;
shapes = (
{
closed = 1;
nodes = (
(59,128,o),
(61,123,o),
(65,123,cs),
(78,123,o),
(114,184,o),
(118,221,cs),
(122,259,o),
(172,291,o),
(220,291,cs),
(264,291,o),
(306,264,o),
(306,189,cs),
(306,169,o),
(303,145,o),
(296,118,cs),
(294,111,o),
(295,108,o),
(297,108,cs),
(312,108,o),
(390,213,o),
(398,248,cs),
(403,266,o),
(405,282,o),
(405,297,cs),
(405,382,o),
(343,438,o),
(271,438,cs),
(183,438,o),
(81,355,o),
(60,139,cs)
);
},
{
closed = 1;
nodes = (
(397,240,o),
(398,247,o),
(398,252,cs),
(398,260,o),
(395,263,o),
(390,263,cs),
(371,263,o),
(327,222,o),
(311,177,cs),
(297,139,o),
(264,108,o),
(226,108,cs),
(207,108,o),
(187,116,o),
(168,134,cs),
(141,160,o),
(130,194,o),
(130,233,cs),
(130,375,o),
(283,576,o),
(316,634,cs),
(321,642,o),
(323,649,o),
(323,653,cs),
(323,661,o),
(318,664,o),
(309,664,cs),
(287,664,o),
(242,639,o),
(222,604,cs),
(187,543,o),
(5,288,o),
(5,121,cs),
(5,80,o),
(16,44,o),
(44,18,cs),
(64,-1,o),
(98,-16,o),
(139,-16,cs),
(219,-16,o),
(324,40,o),
(393,231,cs)
);
},
{
closed = 1;
nodes = (
(343,588,o),
(368,670,o),
(368,702,cs),
(368,710,o),
(367,715,o),
(363,715,cs),
(359,715,o),
(354,711,o),
(348,702,cs),
(337,689,o),
(312,681,o),
(283,681,cs),
(251,681,o),
(216,690,o),
(195,710,cs),
(173,732,o),
(115,616,o),
(115,566,cs),
(115,558,o),
(117,551,o),
(121,548,cs),
(143,526,o),
(182,511,o),
(221,511,cs),
(257,511,o),
(292,523,o),
(316,554,cs)
);
}
);
width = 454;
}
);
unicode = 54;
},
{
glyphname = seven;
lastChange = "2024-02-14 17:33:34 +0000";
layers = (
{
layerId = m01;
shapes = (
{
closed = 1;
nodes = (
(426,681,o),
(429,691,o),
(429,698,cs),
(429,709,o),
(423,714,o),
(413,714,cs),
(386,714,o),
(331,676,o),
(306.021,625.474,cs),
(287.12,587.673,o),
(56.914,40.163,o),
(55.98,37.948,cs),
(52,28,o),
(50,20,o),
(50,14,cs),
(50,3,o),
(56,-1,o),
(65,-1,cs),
(93,-1,o),
(155,43,o),
(176.02,94.052,cs),
(182.972,110.54,o),
(405.256,639.078,o),
(419.979,668.526,cs)
);
},
{
closed = 1;
nodes = (
(352,608,o),
(405,704,o),
(385,704,cs),
(381,704,o),
(374,700,o),
(363.027,690.582,cs),
(345,675,o),
(292,662,o),
(235,662,cs),
(180,662,o),
(122,674,o),
(91.154,709.625,cs),
(69,734,o),
(10,618,o),
(10,567,cs),
(10,559,o),
(11,552,o),
(14.846,548.375,cs),
(45,514,o),
(87,499,o),
(133,499,cs),
(191,499,o),
(255,524,o),
(304.973,567.418,cs)
);
}
);
width = 399;
}
);
unicode = 55;
},
{
glyphname = eight;
lastChange = "2024-02-14 17:17:26 +0000";
layers = (
{
layerId = m01;
shapes = (
{
closed = 1;
nodes = (
(243,425,o),
(235,407,o),
(235,397,cs),
(235,390,o),
(239,387,o),
(245,387,cs),
(263,387,o),
(303,416,o),
(340,466,cs),
(393,540,o),
(415,598,o),
(415,639,cs),
(415,689,o),
(382,714,o),
(337,714,cs),
(297,714,o),
(246,694,o),
(200,654,cs),
(150,612,o),
(118,562,o),
(132,562,cs),
(138,562,o),
(151,570,o),
(172,588,cs),
(179,594,o),
(187,596,o),
(196,596,cs),
(232,596,o),
(280,555,o),
(280,504,cs),
(280,487,o),
(275,469,o),
(262,452,cs)
);
},
{
closed = 1;
nodes = (
(196,630,o),
(195,632,o),
(192,632,cs),
(175,632,o),
(82,546,o),
(67,510,cs),
(59,491,o),
(55,474,o),
(55,458,cs),
(55,398,o),
(109,359,o),
(159,311,cs),
(166,304,o),
(288,426,o),
(281,433,cs),
(231,481,o),
(184,526,o),
(184,581,cs),
(184,595,o),
(187,609,o),
(193,624,cs)
);
},
{
closed = 1;
nodes = (
(204,319,o),
(211,333,o),
(211,340,cs),
(211,363,o),
(140,331,o),
(87,271,cs),
(36,214,o),
(15,156,o),
(15,107,cs),
(15,38,o),
(58,-12,o),
(123,-12,cs),
(159,-12,o),
(202,3,o),
(248,39,cs),
(299,79,o),
(342,139,o),
(326,139,cs),
(321,139,o),
(311,134,o),
(294,121,cs),
(277,107,o),
(260,101,o),
(245,101,cs),
(195,101,o),
(161,166,o),
(161,225,cs),
(161,253,o),
(168,280,o),
(185,299,cs)
);
},
{
closed = 1;
nodes = (
(274,83,o),
(273,79,o),
(273,78,cs),
(273,76,o),
(274,75,o),
(275,75,cs),
(291,75,o),
(382,160,o),
(400,195,cs),
(414,224,o),
(421,248,o),
(421,268,cs),
(421,338,o),
(352,374,o),
(290,430,cs),
(282,436,o),
(161,315,o),
(168,308,cs),
(227,255,o),
(291,209,o),
(291,143,cs),
(291,126,o),
(287,107,o),
(276,87,cs)
);
}
);
width = 461;
}
);
unicode = 56;
},
{
glyphname = nine;
lastChange = "2024-02-14 17:17:26 +0000";
layers = (
{
layerId = m01;
shapes = (
{
closed = 1;
nodes = (
(372,571,o),
(370,575,o),
(366,575,cs),
(353,575,o),
(316,513,o),
(313,478,cs),
(309,433,o),
(265,402,o),
(222,402,cs),
(180,402,o),
(139,432,o),
(139,511,cs),
(139,532,o),
(142,556,o),
(149,585,cs),
(150,591,o),
(149,593,o),
(147,593,cs),
(132,593,o),
(54,491,o),
(45,453,cs),
(42,437,o),
(40,421,o),
(40,406,cs),
(40,318,o),
(102,257,o),
(173,257,cs),
(256,257,o),
(351,340,o),
(371,560,cs)
);
},
{
closed = 1;
nodes = (
(46,458,o),
(44,451,o),
(44,446,cs),
(44,439,o),
(48,436,o),
(53,436,cs),
(72,436,o),
(116,478,o),
(132,522,cs),
(146,560,o),
(180,591,o),
(218,591,cs),
(237,591,o),
(256,584,o),
(275,565,cs),
(300,540,o),
(310,507,o),
(310,469,cs),
(310,326,o),
(160,122,o),
(127,65,cs),
(122,57,o),
(120,50,o),
(120,45,cs),
(120,38,o),
(125,35,o),
(133,35,cs),
(155,35,o),
(202,62,o),
(221,95,cs),
(257,158,o),
(435,415,o),
(435,581,cs),
(435,621,o),
(424,656,o),
(399,681,cs),
(380,701,o),
(346,716,o),
(304,716,cs),
(225,716,o),
(119,659,o),
(50,468,cs)
);
},
{
closed = 1;
nodes = (
(95,122,o),
(65,30,o),
(65,-3,cs),
(65,-11,o),
(67,-15,o),
(70,-15,cs),
(73,-15,o),
(77,-13,o),
(82,-7,cs),
(95,8,o),
(122,15,o),
(150,15,cs),
(183,15,o),
(218,6,o),
(238,-12,cs),
(262,-32,o),
(318,85,o),
(318,134,cs),
(318,142,o),
(316,148,o),
(312,152,cs),
(290,171,o),
(250,183,o),
(211,183,cs),
(176,183,o),
(142,173,o),
(120,149,cs)
);
}
);
width = 445;
}
);
unicode = 57;
},
{
glyphname = zero.dnom;
lastChange = "2024-02-14 17:18:10 +0000";
layers = (
{
anchors = (
{
name = _right;
pos = (83,457);
}
);
layerId = m01;
shapes = (
{
closed = 1;
nodes = (
(318,248,o),
(319,256,o),
(319,262,cs),
(319,280,o),
(311,288,o),
(300,288,cs),
(279,288,o),
(246,257,o),
(235,210,cs),
(224,161,o),
(182,129,o),
(147,129,cs),
(118,129,o),
(94,150,o),
(94,201,cs),
(94,214,o),
(95,228,o),
(99,245,cs),
(101,253,o),
(101,260,o),
(101,266,cs),
(101,284,o),
(94,292,o),
(83,292,cs),
(61,292,o),
(28,260,o),
(18,212,cs),
(12,186,o),
(10,163,o),
(10,142,cs),
(10,46,o),
(58,-7,o),
(118,-7,cs),
(189,-7,o),
(276,69,o),
(316,239,cs)
);
},
{
closed = 1;
nodes = (
(17,214,o),
(15,204,o),
(15,195,cs),
(15,177,o),
(23,169,o),
(35,169,cs),
(54,169,o),
(82,192,o),
(96,236,cs),
(114,293,o),
(152,322,o),
(185,322,cs),
(215,322,o),
(240,298,o),
(240,248,cs),
(240,238,o),
(239,226,o),
(236,213,cs),
(235,206,o),
(234,200,o),
(234,194,cs),
(234,176,o),
(242,168,o),
(253,168,cs),
(274,168,o),
(309,202,o),
(318,251,cs),
(322,271,o),
(324,291,o),
(324,309,cs),
(324,401,o),
(277,457,o),
(218,457,cs),
(153,457,o),
(73,390,o),
(21,227,cs)
);
}
);
width = 344;
}
);
metricLeft = zero;
metricRight = zero;
},
{
glyphname = one.dnom;
lastChange = "2024-02-14 17:18:36 +0000";
layers = (
{
anchors = (
{
name = _right;
pos = (78,457);
}
);
layerId = m01;
shapes = (
{
closed = 1;
nodes = (
(181,467,o),
(80,370,o),
(90,353,cs),
(97,342,o),
(99,338,o),
(99,329,cs),
(99,323,o),
(98,315,o),
(97,303,cs),
(91,224,o),
(86,144,o),
(81,65,cs),
(78,27,o),
(87,14,o),
(104,2,cs),
(120,-8,o),
(219,90,o),
(202,102,cs),
(193,108,o),
(190,111,o),
(190,125,cs),
(190,131,o),
(191,138,o),
(191,147,cs),
(196,226,o),
(201,306,o),
(207,385,cs),
(210,421,o),
(203,429,o),
(192,449,cs)
);
},
{
closed = 1;
nodes = (
(174,436,o),
(173,438,o),
(170,438,cs),
(153,438,o),
(82,366,o),
(77,340,cs),
(70,302,o),
(50,245,o),
(32,231,cs),
(23,224,o),
(20,219,o),
(20,214,cs),
(20,208,o),
(28,204,o),
(40,204,cs),
(55,204,o),
(76,210,o),
(92,223,cs),
(162,279,o),
(163,375,o),
(173,430,cs)
);
}
);
width = 278;
}
);
metricLeft = one;
metricRight = one;
},
{
glyphname = two.dnom;
lastChange = "2024-02-14 18:29:36 +0000";
layers = (
{
anchors = (
{
name = _right;
pos = (67,453);
}
);
guides = (
{
pos = (-32,453);
},
{
pos = (186,0);
}
);
layerId = m01;
shapes = (
{
closed = 1;
nodes = (
(2,95,o),
(-2,79,o),
(-2,68,cs),
(-2,53,o),
(5,45,o),
(17,45,cs),
(31,45,o),
(51,58,o),
(70,88,cs),
(121,171,o),
(130,172,o),
(209,250,cs),
(252,293,o),
(270,335,o),
(270,370,cs),
(270,422,o),
(232,458,o),
(184,458,cs),
(137,458,o),
(81,423,o),
(43,334,cs),
(31,305,o),
(26,279,o),
(26,262,cs),
(26,250,o),
(29,242,o),
(34,242,cs),
(41,242,o),
(51,254,o),
(63,282,cs),
(77,317,o),
(104,331,o),
(126,331,cs),
(145,331,o),
(161,320,o),
(161,303,cs),
(161,294,o),
(156,283,o),
(145,272,cs),
(103,231,o),
(63,195,o),
(14,114,cs)
);
},
{
closed = 1;
nodes = (
(11,123,o),
(-20,44,o),
(-20,12,cs),
(-20,2,o),
(-17,-3,o),
(-9,1,cs),
(17,13,o),
(68,26,o),
(114,26,cs),
(147,26,o),
(178,19,o),
(194,1,cs),
(208,-14,o),
(254,84,o),
(254,118,cs),
(254,122,o),
(253,126,o),
(252,127,cs),
(230,152,o),
(195,161,o),
(159,161,cs),
(111,161,o),
(59,145,o),
(29,131,cs)
);
}
);
width = 305;
}
);
metricLeft = two;
metricRight = two;
},
{
glyphname = three.dnom;
lastChange = "2024-02-14 17:19:00 +0000";
layers = (
{
anchors = (
{
name = _right;
pos = (78,457);
}
);
layerId = m01;
shapes = (
{
closed = 1;
nodes = (
(265,333,o),
(291,406,o),
(291,437,cs),
(291,449,o),
(287,454,o),
(278,448,cs),
(262,438,o),
(214,434,o),
(187,434,cs),
(155,434,o),
(127,440,o),
(108,450,cs),
(91,459,o),
(48,366,o),
(48,333,cs),
(48,327,o),
(50,323,o),
(52,322,cs),
(75,310,o),
(108,302,o),
(143,302,cs),
(173,302,o),
(217,302,o),
(244,320,cs)
);
},
{
closed = 1;
nodes = (
(64,196,o),
(54,179,o),
(54,170,cs),
(54,166,o),
(56,163,o),
(60,163,cs),
(65,163,o),
(74,167,o),
(87,177,cs),
(103,191,o),
(126,199,o),
(148,199,cs),
(183,199,o),
(215,181,o),
(215,139,cs),
(215,125,o),
(211,109,o),
(203,90,cs),
(201,83,o),
(200,78,o),
(200,75,cs),
(200,72,o),
(201,71,o),
(203,71,cs),
(217,71,o),
(271,128,o),
(287,166,cs),
(296,188,o),
(300,208,o),
(300,224,cs),
(300,262,o),
(275,283,o),
(236,283,cs),
(196,283,o),
(141,261,o),
(83,213,cs)
);
},
{
closed = 1;
nodes = (
(282,152,o),
(291,190,o),
(291,210,cs),
(291,219,o),
(290,224,o),
(286,224,cs),
(282,224,o),
(275,216,o),
(265,196,cs),
(242,150,o),
(197,108,o),
(163,108,cs),
(144,108,o),
(127,122,o),
(120,158,cs),
(116,183,o),
(16,83,o),
(20,62,cs),
(28,17,o),
(63,-9,o),
(105,-9,cs),
(157,-9,o),
(220,29,o),
(265,118,cs)
);
},
{
closed = 1;
nodes = (
(255,329,o),
(260,337,o),
(260,342,cs),
(260,346,o),
(256,348,o),
(250,348,cs),
(232,348,o),
(189,329,o),
(160,300,cs),
(147,287,o),
(79,210,o),
(78,208,cs),
(69,199,o),
(66,192,o),
(66,188,cs),
(66,185,o),
(68,183,o),
(73,183,cs),
(92,183,o),
(143,209,o),
(172,242,cs),
(175,245,o),
(241,316,o),
(244,318,cs)
);
}
);
width = 350;
}
);
metricLeft = three;
metricRight = three;
},
{
glyphname = four.dnom;
lastChange = "2024-02-14 18:30:04 +0000";
layers = (
{
anchors = (
{
name = _right;
pos = (141,466);
}
);
layerId = m01;
shapes = (
{
closed = 1;
nodes = (
(28,244,o),
(-9,140,o),
(2,140,cs),
(83,140,o),
(164,140,o),
(245,140,cs),
(257,140,o),
(295,244,o),
(283,244,cs),
(202,244,o),
(121,244,o),
(40,244,cs)
);
},
{
closed = 1;
nodes = (
(26,230,o),
(22,209,o),
(22,193,cs),
(22,180,o),
(25,169,o),
(31,169,cs),
(34,169,o),
(37,171,o),
(41,175,cs),
(81,223,o),
(120,270,o),
(161,319,cs),
(170,330,o),
(175,350,o),
(175,366,cs),
(175,379,o),
(171,390,o),
(165,390,cs),
(163,390,o),
(159,388,o),
(155,383,cs),
(116,336,o),
(75,288,o),
(35,241,cs)
);
},
{
closed = 1;
nodes = (
(231,466,o),
(130,369,o),
(140,352,cs),
(148,338,o),
(152,335,o),
(152,321,cs),
(152,316,o),
(151,310,o),
(150,300,cs),
(144,224,o),
(137,147,o),
(132,70,cs),
(130,27,o),
(135,14,o),
(155,2,cs),
(171,-8,o),
(271,91,o),
(253,102,cs),
(241,110,o),
(235,111,o),
(238,148,cs),
(242,224,o),
(249,301,o),
(256,378,cs),
(256,386,o),
(257,393,o),
(257,399,cs),
(257,422,o),
(252,431,o),
(242,448,cs)
);
}
);
width = 315;
}
);
metricLeft = four;
metricRight = four;
},
{
glyphname = five.dnom;
lastChange = "2024-02-14 18:04:39 +0000";
layers = (
{
anchors = (
{
name = _left;
pos = (36,800);
},
{
name = _right;
pos = (63,457);
},
{
name = left;
pos = (338,800);
}
);
layerId = m01;
shapes = (
{
closed = 1;
nodes = (
(284,323,o),
(318,416,o),
(318,444,cs),
(318,450,o),
(317,453,o),
(314,452,cs),
(286,446,o),
(253,442,o),
(217,442,cs),
(188,442,o),
(157,445,o),
(125,449,cs),
(95,454,o),
(61,344,o),
(61,339,cs),
(57,274,o),
(47,214,o),
(44,152,cs),
(43,143,o),
(47,140,o),
(53,140,cs),
(74,140,o),
(123,182,o),
(124,210,cs),
(129,285,o),
(127,362,o),
(131,433,c),
(110,396,o),
(88,359,o),
(67,323,c),
(109,316,o),
(151,312,o),
(190,312,cs),
(219,312,o),
(247,315,o),
(270,320,cs)
);
},
{
closed = 1;
nodes = (
(55,179,o),
(46,162,o),
(46,151,cs),
(46,144,o),
(49,140,o),
(56,140,cs),
(65,140,o),
(79,146,o),
(96,163,cs),
(111,177,o),
(146,191,o),
(176,191,cs),
(205,191,o),
(229,178,o),
(229,140,cs),
(229,126,o),
(225,108,o),
(217,86,cs),
(215,80,o),
(215,77,o),
(215,74,cs),
(215,71,o),
(216,70,o),
(218,70,cs),
(233,70,o),
(289,131,o),
(303,168,cs),
(311,191,o),
(314,210,o),
(314,226,cs),
(314,269,o),
(290,291,o),
(251,291,cs),
(206,291,o),
(142,261,o),
(74,197,cs)
);
},
{
closed = 1;
nodes = (
(294,156,o),
(303,194,o),
(303,214,cs),
(303,223,o),
(301,228,o),
(298,228,cs),
(294,228,o),
(287,220,o),
(277,200,cs),
(253,152,o),
(207,107,o),
(174,107,cs),
(158,107,o),
(146,117,o),
(140,143,cs),
(135,167,o),
(35,68,o),
(40,47,cs),
(47,12,o),
(76,-8,o),
(113,-8,cs),
(165,-8,o),
(231,31,o),
(277,122,cs)
);
}
);
width = 368;
}
);
metricLeft = five;
metricRight = five;
},
{
glyphname = six.dnom;
lastChange = "2024-02-14 17:19:41 +0000";
layers = (
{
anchors = (
{
name = _left;
pos = (1,800);
},
{
name = _right;
pos = (63,457);
},
{
name = left;
pos = (303,800);
}
);
layerId = m01;
shapes = (
{
closed = 1;
nodes = (
(43,79,o),
(45,74,o),
(50,74,cs),
(61,74,o),
(87,110,o),
(90,142,cs),
(92,157,o),
(116,171,o),
(140,171,cs),
(163,171,o),
(186,157,o),
(186,118,cs),
(186,105,o),
(184,90,o),
(178,71,cs),
(177,67,o),
(176,64,o),
(176,62,cs),
(176,59,o),
(177,58,o),
(179,58,cs),
(192,58,o),
(248,129,o),
(258,163,cs),
(262,176,o),
(264,188,o),
(264,200,cs),
(264,251,o),
(227,283,o),
(184,283,cs),
(126,283,o),
(57,228,o),
(44,90,cs)
);
},
{
closed = 1;
nodes = (
(255,148,o),
(256,154,o),
(256,159,cs),
(256,168,o),
(250,173,o),
(243,173,cs),
(227,173,o),
(200,152,o),
(188,119,cs),
(182,102,o),
(166,89,o),
(149,89,cs),
(140,89,o),
(131,92,o),
(123,100,cs),
(108,114,o),
(102,133,o),
(102,154,cs),
(102,233,o),
(189,342,o),
(208,375,cs),
(212,383,o),
(214,390,o),
(214,395,cs),
(214,404,o),
(207,408,o),
(197,408,cs),
(179,408,o),
(151,394,o),
(136,369,cs),
(116,333,o),
(5,176,o),
(5,74,cs),
(5,48,o),
(12,26,o),
(29,10,cs),
(36,3,o),
(58,-5,o),
(85,-5,cs),
(137,-5,o),
(211,24,o),
(252,141,cs)
);
},
{
closed = 1;
nodes = (
(212,333,o),
(240,406,o),
(240,438,cs),
(240,450,o),
(236,456,o),
(227,451,cs),
(218,446,o),
(199,443,o),
(179,443,cs),
(162,443,o),
(145,445,o),
(135,450,cs),
(111,461,o),
(70,383,o),
(70,343,cs),
(70,333,o),
(73,325,o),
(79,322,cs),
(97,313,o),
(118,309,o),
(138,309,cs),
(158,309,o),
(177,314,o),
(191,321,cs)
);
}
);
width = 313;
}
);
metricLeft = six;
metricRight = six;
},
{
glyphname = seven.dnom;
lastChange = "2024-02-14 17:31:44 +0000";
layers = (
{
anchors = (
{
name = _left;
pos = (7,800);
},
{
name = _right;
pos = (69,457);
},
{
name = left;
pos = (309,800);
}
);
guides = (
{
pos = (3,450);
},
{
pos = (221,0);
}
);
layerId = m01;
shapes = (
{
closed = 1;
nodes = (
(283,419,o),
(285,427,o),
(285,433,cs),
(285,444,o),
(277,449,o),
(267,449,cs),
(250,449,o),
(224,435,o),
(209,406,cs),
(198,385,o),
(47,38,o),
(44,29,cs),
(42,23,o),
(41,19,o),
(41,15,cs),
(41,4,o),
(48,-1,o),
(57,-1,cs),
(77,-1,o),
(111,22,o),
(122,53,cs),
(123,58,o),
(271,399,o),
(277,410,cs)
);
},
{
closed = 1;
nodes = (
(215,344,o),
(262,415,o),
(262,438,cs),
(262,442,o),
(260,445,o),
(256,445,cs),
(254,445,o),
(251,445,o),
(247,443,cs),
(225,432,o),
(201,427,o),
(174,427,cs),
(143,427,o),
(109,434,o),
(71,450,cs),
(52,459,o),
(10,373,o),
(10,337,cs),
(10,329,o),
(12,323,o),
(17,322,cs),
(43,310,o),
(67,305,o),
(90,305,cs),
(122,305,o),
(153,315,o),
(187,331,cs)
);
}
);
width = 275;
}
);
metricLeft = seven;
},
{
glyphname = eight.dnom;
lastChange = "2024-02-14 18:30:20 +0000";
layers = (
{
anchors = (
{
name = _right;
pos = (90,455);
}
);
guides = (
{
pos = (298,0);
}
);
layerId = m01;
shapes = (
{
closed = 1;
nodes = (
(164,283,o),
(160,273,o),
(160,265,cs),
(160,258,o),
(165,254,o),
(172,254,cs),
(183,254,o),
(201,264,o),
(217,287,cs),
(252,334,o),
(266,372,o),
(266,401,cs),
(266,436,o),
(245,455,o),
(214,455,cs),
(191,455,o),
(161,443,o),
(131,418,cs),
(91,384,o),
(73,348,o),
(87,348,cs),
(93,348,o),
(104,354,o),
(121,368,cs),
(123,370,o),
(127,371,o),
(131,371,cs),
(150,371,o),
(185,354,o),
(185,325,cs),
(185,317,o),
(182,307,o),
(175,297,cs)
);
},
{
closed = 1;
nodes = (
(137,403,o),
(136,406,o),
(133,406,cs),
(118,406,o),
(60,354,o),
(48,325,cs),
(42,312,o),
(40,301,o),
(40,291,cs),
(40,250,o),
(76,228,o),
(107,198,cs),
(114,192,o),
(194,271,o),
(187,278,cs),
(155,307,o),
(129,338,o),
(129,370,cs),
(129,378,o),
(131,387,o),
(134,395,cs)
);
},
{
closed = 1;
nodes = (
(135,193,o),
(140,204,o),
(140,211,cs),
(140,220,o),
(133,225,o),
(123,225,cs),
(109,225,o),
(86,214,o),
(65,191,cs),
(30,150,o),
(15,108,o),
(15,74,cs),
(15,27,o),
(43,-7,o),
(86,-7,cs),
(109,-7,o),
(136,2,o),
(165,25,cs),
(206,56,o),
(234,102,o),
(218,102,cs),
(213,102,o),
(204,97,o),
(191,87,cs),
(181,80,o),
(172,76,o),
(163,76,cs),
(134,76,o),
(112,114,o),
(112,147,cs),
(112,159,o),
(116,171,o),
(123,179,cs)
);
},
{
closed = 1;
nodes = (
(176,59,o),
(175,56,o),
(175,54,cs),
(175,51,o),
(176,50,o),
(178,50,cs),
(192,50,o),
(247,98,o),
(262,128,cs),
(271,147,o),
(275,162,o),
(275,176,cs),
(275,220,o),
(230,240,o),
(192,276,cs),
(185,282,o),
(105,203,o),
(112,196,cs),
(149,163,o),
(185,132,o),
(185,94,cs),
(185,84,o),
(183,74,o),
(178,64,cs)
);
}
);
width = 315;
}
);
metricLeft = eight;
metricRight = eight;
},
{
glyphname = nine.dnom;
lastChange = "2024-02-14 17:20:14 +0000";
layers = (
{
anchors = (
{
name = _left;
pos = (11,800);
},
{
name = _right;
pos = (73,457);
},
{
name = left;
pos = (313,800);
}
);
guides = (
{
pos = (7,450);
},
{
pos = (225,0);
}
);
layerId = m01;
shapes = (
{
closed = 1;
nodes = (
(236,378,o),
(233,383,o),
(229,383,cs),
(217,383,o),
(191,348,o),
(188,316,cs),
(187,309,o),
(154,287,o),
(127,287,cs),
(107,287,o),
(90,298,o),
(90,334,cs),
(90,346,o),
(92,360,o),
(96,377,cs),
(98,384,o),
(97,387,o),
(94,387,cs),
(80,387,o),
(26,318,o),
(18,285,cs),
(16,276,o),
(15,266,o),
(15,258,cs),
(15,208,o),
(49,178,o),
(92,178,cs),
(149,178,o),
(219,232,o),
(234,366,cs)
);
},
{
closed = 1;
nodes = (
(21,299,o),
(20,293,o),
(20,289,cs),
(20,281,o),
(23,277,o),
(29,277,cs),
(42,277,o),
(65,296,o),
(76,325,cs),
(86,352,o),
(105,366,o),
(125,366,cs),
(137,366,o),
(150,360,o),
(161,349,cs),
(173,338,o),
(178,322,o),
(178,303,cs),
(178,229,o),
(98,111,o),
(75,67,cs),
(70,59,o),
(68,52,o),
(68,46,cs),
(68,37,o),
(75,32,o),
(84,32,cs),
(98,32,o),
(120,44,o),
(133,69,cs),
(148,97,o),
(268,260,o),
(268,369,cs),
(268,396,o),
(261,419,o),
(243,437,cs),
(229,450,o),
(209,458,o),
(187,458,cs),
(134,458,o),
(65,416,o),
(24,307,cs)
);
},
{
closed = 1;
nodes = (
(60,119,o),
(31,45,o),
(31,14,cs),
(31,3,o),
(34,-3,o),
(42,0,cs),
(52,4,o),
(74,7,o),
(96,7,cs),
(113,7,o),
(129,5,o),
(137,0,cs),
(157,-10,o),
(196,72,o),
(196,108,cs),
(196,116,o),
(195,121,o),
(191,124,cs),
(177,131,o),
(156,134,o),
(134,134,cs),
(113,134,o),
(91,131,o),
(78,126,cs)
);
}
);
width = 278;
}
);
metricLeft = eight;
},
{
glyphname = zero.numr;
lastChange = "2024-02-14 17:31:57 +0000";
layers = (
{
anchors = (
{
name = _left;
pos = (221,269);
}
);
guides = (
{
pos = (224,262);
},
{
pos = (235,708);
}
);
layerId = m01;
shapes = (
{
closed = 1;
nodes = (
(317,507,o),
(318,515,o),
(318,521,cs),
(318,539,o),
(310,547,o),
(300,547,cs),
(279,547,o),
(246,517,o),
(235,469,cs),
(223,421,o),
(182,389,o),
(147,389,cs),
(118,389,o),
(94,411,o),
(94,462,cs),
(94,475,o),
(95,490,o),
(99,507,cs),
(100,514,o),
(101,521,o),
(101,526,cs),
(101,545,o),
(94,553,o),
(83,553,cs),
(61,553,o),
(27,520,o),
(17,471,cs),
(12,446,o),
(10,423,o),
(10,402,cs),
(10,307,o),
(58,253,o),
(118,253,cs),
(188,253,o),
(275,328,o),
(315,499,cs)
);
},
{
closed = 1;
nodes = (
(17,475,o),
(15,465,o),
(15,456,cs),
(15,438,o),
(23,429,o),
(35,429,cs),
(53,429,o),
(81,453,o),
(95,497,cs),
(114,553,o),
(153,582,o),
(185,582,cs),
(215,582,o),
(240,558,o),
(240,509,cs),
(240,498,o),
(238,486,o),
(236,473,cs),
(235,466,o),
(234,460,o),
(234,455,cs),
(234,437,o),
(242,428,o),
(252,428,cs),
(274,428,o),
(309,462,o),
(318,511,cs),
(322,532,o),
(324,552,o),
(324,570,cs),
(324,661,o),
(278,718,o),
(218,718,cs),
(154,718,o),
(73,650,o),
(21,487,cs)
);
}
);
width = 344;
}
);
metricLeft = zero;
metricRight = zero;
},
{
glyphname = one.numr;
lastChange = "2024-02-14 18:35:05 +0000";
layers = (
{
anchors = (
{
name = _left;
pos = (200,266);
}
);
guides = (
{
pos = (192,714);
},
{
pos = (10,265);
}
);
layerId = m01;
shapes = (
{
closed = 1;
nodes = (
(181,727,o),
(80,630,o),
(90,613,cs),
(97,602,o),
(99,598,o),
(99,589,cs),
(99,583,o),
(98,575,o),
(97,563,cs),
(91,484,o),
(86,404,o),
(81,325,cs),
(78,287,o),
(87,274,o),
(104,262,cs),
(120,252,o),
(219,350,o),
(202,362,cs),
(193,368,o),
(190,371,o),
(190,385,cs),
(190,391,o),
(191,398,o),
(191,407,cs),
(196,486,o),
(201,566,o),
(207,645,cs),
(210,681,o),
(203,689,o),
(192,709,cs)
);
},
{
closed = 1;
nodes = (
(174,696,o),
(173,698,o),
(170,698,cs),
(153,698,o),
(82,626,o),
(77,600,cs),
(70,562,o),
(50,505,o),
(32,491,cs),
(23,484,o),
(20,479,o),
(20,474,cs),
(20,468,o),
(28,464,o),
(40,464,cs),
(55,464,o),
(76,470,o),
(92,483,cs),
(162,539,o),
(163,635,o),
(173,690,cs)
);
}
);
width = 278;
}
);
},
{
glyphname = two.numr;
lastChange = "2024-02-14 17:55:13 +0000";
layers = (
{
anchors = (
{
name = _left;
pos = (176,269);
}
);
guides = (
{
pos = (190,708);
}
);
layerId = m01;
shapes = (
{
closed = 1;
nodes = (
(2,353,o),
(-2,337,o),
(-2,326,cs),
(-2,311,o),
(5,303,o),
(17,303,cs),
(31,303,o),
(51,316,o),
(70,346,cs),
(121,429,o),
(130,430,o),
(209,508,cs),
(252,551,o),
(270,593,o),
(270,628,cs),
(270,680,o),
(232,716,o),
(184,716,cs),
(137,716,o),
(81,681,o),
(43,592,cs),
(31,563,o),
(26,537,o),
(26,520,cs),
(26,508,o),
(29,500,o),
(34,500,cs),
(41,500,o),
(51,512,o),
(63,540,cs),
(77,575,o),
(104,589,o),
(126,589,cs),
(145,589,o),
(161,578,o),
(161,561,cs),
(161,552,o),
(156,541,o),
(145,530,cs),
(103,489,o),
(63,453,o),
(14,372,cs)
);
},
{
closed = 1;
nodes = (
(11,381,o),
(-20,302,o),
(-20,270,cs),
(-20,260,o),
(-17,255,o),
(-9,259,cs),
(17,271,o),
(68,284,o),
(114,284,cs),
(147,284,o),
(178,277,o),
(194,259,cs),
(208,244,o),
(254,342,o),
(254,376,cs),
(254,380,o),
(253,384,o),
(252,385,cs),
(230,410,o),
(195,419,o),
(159,419,cs),
(111,419,o),
(59,403,o),
(29,389,cs)
);
}
);
width = 299;
}
);
},
{
glyphname = three.numr;
lastChange = "2024-02-14 18:13:54 +0000";
layers = (
{
anchors = (
{
name = _right;
pos = (482,463);
}
);
guides = (
{
pos = (230,708);
}
);
layerId = m01;
shapes = (
{
closed = 1;
nodes = (
(265,594,o),
(291,667,o),
(291,698,cs),
(291,710,o),
(287,715,o),
(278,709,cs),
(262,699,o),
(214,695,o),
(187,695,cs),
(155,695,o),
(127,701,o),
(108,711,cs),
(91,720,o),
(48,627,o),
(48,594,cs),
(48,588,o),
(50,584,o),
(52,583,cs),
(75,571,o),
(108,563,o),
(143,563,cs),
(173,563,o),
(217,563,o),
(244,581,cs)
);
},
{
closed = 1;
nodes = (
(64,457,o),
(54,440,o),
(54,431,cs),
(54,427,o),
(56,424,o),
(60,424,cs),
(65,424,o),
(74,428,o),
(87,438,cs),
(103,452,o),
(126,460,o),
(148,460,cs),
(183,460,o),
(215,442,o),
(215,400,cs),
(215,386,o),
(211,370,o),
(203,351,cs),
(201,344,o),
(200,339,o),
(200,336,cs),
(200,333,o),
(201,332,o),
(203,332,cs),
(217,332,o),
(271,389,o),
(287,427,cs),
(296,449,o),
(300,469,o),
(300,485,cs),
(300,523,o),
(275,544,o),
(236,544,cs),
(196,544,o),
(141,522,o),
(83,474,cs)
);
},
{
closed = 1;
nodes = (
(282,413,o),
(291,451,o),
(291,471,cs),
(291,480,o),
(290,485,o),
(286,485,cs),
(282,485,o),
(275,477,o),
(265,457,cs),
(242,411,o),
(197,369,o),
(163,369,cs),
(144,369,o),
(127,383,o),
(120,419,cs),
(116,444,o),
(16,344,o),
(20,323,cs),
(28,278,o),
(63,252,o),
(105,252,cs),
(157,252,o),
(220,290,o),
(265,379,cs)
);
},
{
closed = 1;
nodes = (
(255,590,o),
(260,598,o),
(260,603,cs),
(260,607,o),
(256,609,o),
(250,609,cs),
(232,609,o),
(189,590,o),
(160,561,cs),
(147,548,o),
(79,471,o),
(78,469,cs),
(69,460,o),
(66,453,o),
(66,449,cs),
(66,446,o),
(68,444,o),
(73,444,cs),
(92,444,o),
(143,470,o),
(172,503,cs),
(175,506,o),
(241,577,o),
(244,579,cs)
);
}
);
width = 350;
}
);
metricLeft = three;
metricRight = three;
},
{
glyphname = four.numr;
lastChange = "2024-02-14 17:17:26 +0000";
layers = (
{
anchors = (
{
name = _left;
pos = (196,269);
},
{
name = right;
pos = (298,329);
}
);
guides = (
{
pos = (199,262);
},
{
pos = (210,708);
}
);
layerId = m01;
shapes = (
{
closed = 1;
nodes = (
(28,503,o),
(-9,399,o),
(2,399,cs),
(83,399,o),
(164,399,o),
(245,399,cs),
(257,399,o),
(295,503,o),
(283,503,cs),
(202,503,o),
(121,503,o),
(40,503,cs)
);
},
{
closed = 1;
nodes = (
(26,489,o),
(22,468,o),
(22,452,cs),
(22,439,o),
(25,428,o),
(31,428,cs),
(34,428,o),
(37,430,o),
(41,434,cs),
(81,482,o),
(120,529,o),
(161,578,cs),
(170,589,o),
(175,609,o),
(175,625,cs),
(175,638,o),
(171,649,o),
(165,649,cs),
(163,649,o),
(159,647,o),
(155,642,cs),
(116,595,o),
(75,547,o),
(35,500,cs)
);
},
{
closed = 1;
nodes = (
(231,725,o),
(130,628,o),
(140,611,cs),
(148,597,o),
(152,594,o),
(152,580,cs),
(152,575,o),
(151,569,o),
(150,559,cs),
(144,483,o),
(137,406,o),
(132,329,cs),
(130,286,o),
(135,273,o),
(155,261,cs),
(171,251,o),
(271,350,o),
(253,361,cs),
(241,369,o),
(235,370,o),
(238,407,cs),
(242,483,o),
(249,560,o),
(256,637,cs),
(256,645,o),
(257,652,o),
(257,658,cs),
(257,681,o),
(252,690,o),
(242,707,cs)
);
}
);
width = 315;
}
);
},
{
glyphname = fraction;
lastChange = "2024-02-14 18:21:09 +0000";
layers = (
{
anchors = (
{
name = left;
pos = (225,269);
},
{
name = right;
pos = (445,457);
}
);
layerId = m01;
shapes = (
{
closed = 1;
nodes = (
(592,656,o),
(600,677,o),
(600,692,cs),
(600,704,o),
(594,711,o),
(584,711,cs),
(571,711,o),
(550,697,o),
(527,666,cs),
(462,578,o),
(91,91,o),
(78,73,cs),
(58,47,o),
(50,24,o),
(50,9,cs),
(50,-3,o),
(55,-10,o),
(65,-10,cs),
(77,-10,o),
(97,3,o),
(120,33,cs),
(121,33,o),
(513,549,o),
(573,630,cs)
);
}
);
width = 670;
}
);
unicode = 8260;
},
{
glyphname = "period-han";
lastChange = "2024-02-14 18:50:26 +0000";
layers = (
{
layerId = m01;
shapes = (
{
closed = 1;
nodes = (
(104,142,o),
(112,160,o),
(112,172,cs),
(112,180,o),
(107,185,o),
(99,185,cs),
(85,185,o),
(60,169,o),
(34,137,cs),
(-19,70,o),
(-40,11,o),
(-40,-34,cs),
(-40,-98,o),
(1,-136,o),
(52,-136,cs),
(72,-136,o),
(93,-131,o),
(115,-118,cs),
(149,-99,o),
(184,-32,o),
(184,-5,cs),
(184,3,o),
(181,8,o),
(175,8,cs),
(171,8,o),
(166,6,o),
(159,2,cs),
(144,-6,o),
(131,-10,o),
(120,-10,cs),
(85,-10,o),
(70,27,o),
(70,64,cs),
(70,85,o),
(75,106,o),
(84,117,cs)
);
},
{
closed = 1;
nodes = (
(117,-29,o),
(103,-65,o),
(103,-85,cs),
(103,-96,o),
(107,-103,o),
(115,-103,cs),
(123,-103,o),
(136,-96,o),
(153,-77,cs),
(243,21,o),
(276,95,o),
(276,146,cs),
(276,203,o),
(234,230,o),
(186,230,cs),
(159,230,o),
(129,221,o),
(104,204,cs),
(68,178,o),
(32,121,o),
(32,101,cs),
(32,96,o),
(34,93,o),
(38,93,cs),
(43,93,o),
(51,97,o),
(62,104,cs),
(80,117,o),
(94,122,o),
(107,122,cs),
(142,122,o),
(155,79,o),
(155,43,cs),
(155,25,o),
(151,8,o),
(145,1,cs)
);
}
);
width = 476;
}
);
unicode = 12290;
},
{
glyphname = period;
lastChange = "2024-02-14 17:17:26 +0000";
layers = (
{
anchors = (
{
name = _top;
pos = (76,180);
},
{
name = top;
pos = (102,479);
}
);
layerId = m01;
shapes = (
{
closed = 1;
nodes = (
(103.138,195.622,o),
(-0.277,94.08,o),
(10.594,81.891,cs),
(43.85,44.604,o),
(61.688,26.787,o),
(89.735,-4.265,cs),
(100.213,-15.867,o),
(202.863,86.532,o),
(192.265,98.265,cs),
(164.312,129.213,o),
(146.15,147.396,o),
(113.406,184.109,cs)
);
}
);
width = 223;
}
);
unicode = 46;
},
{
glyphname = comma;
lastChange = "2024-02-14 17:17:26 +0000";
layers = (
{
anchors = (
{
name = _top;
pos = (118,785);
},
{
name = top;
pos = (120,-106);
}
);
background = {
shapes = (
{
pos = (4,0);
ref = period;
}
);
};
layerId = m01;
shapes = (
{
closed = 1;
nodes = (
(92,191,o),
(10,115,o),
(10,84,cs),
(10,81,o),
(11,78,o),
(13.495,75.939,cs),
(63,31,o),
(78,2,o),
(78,-18,cs),
(78,-28,o),
(74,-36,o),
(69.104,-42.287,cs),
(48.118,-68.246,o),
(40.299,-77.109,o),
(30.51,-87.413,cs),
(21,-97,o),
(41,-109,o),
(56,-109,cs),
(60,-109,o),
(65,-107,o),
(67.49,-104.587,cs),
(95.768,-74.82,o),
(130.211,-55.67,o),
(160.896,-17.713,cs),
(182,9,o),
(191,32,o),
(191,53,cs),
(191,96,o),
(157,132,o),
(110.505,174.061,cs)
);
}
);
width = 231;
}
);
unicode = 44;
},
{
glyphname = exclam;
lastChange = "2024-02-14 17:17:26 +0000";
layers = (
{
layerId = m01;
shapes = (
{
closed = 1;
nodes = (
(219,710,o),
(216,713,o),
(211,713,cs),
(180,713,o),
(69,603,o),
(69,568,cs),
(69,564,o),
(83,249,o),
(83,274,cs),
(83,268,o),
(85,266,o),
(90,266,cs),
(108,266,o),
(149,301,o),
(151,326,cs),
(152,335,o),
(219,689,o),
(219,704,cs)
);
},
{
pos = (5,0);
ref = period;
}
);
width = 244;
}
);
unicode = 33;
},
{
glyphname = question;
lastChange = "2024-02-14 18:51:06 +0000";
layers = (
{
layerId = m01;
shapes = (
{
pos = (45,1);
ref = period;
},
{
closed = 1;
nodes = (
(107,359,o),
(92,334,o),
(92,322,cs),
(92,299,o),
(147,326,o),
(217,400,cs),
(329,520,o),
(371,607,o),
(371,662,cs),
(371,706,o),
(342,729,o),
(300,729,cs),
(233,729,o),
(132,674,o),
(52,563,cs),
(27,527,o),
(15,498,o),
(15,482,cs),
(15,474,o),
(18,469,o),
(24,469,cs),
(35,469,o),
(55,485,o),
(82,521,cs),
(99,546,o),
(131,559,o),
(158,559,cs),
(186,559,o),
(210,545,o),
(210,515,cs),
(210,488,o),
(192,450,o),
(143,398,cs)
);
},
{
closed = 1;
nodes = (
(216,486,o),
(92,351,o),
(92,320,cs),
(92,308,o),
(96,270,o),
(96,270,cs),
(93,259,o),
(97,254,o),
(104,254,cs),
(126,254,o),
(178,297,o),
(184,330,cs),
(185,334,o),
(216,423,o),
(216,450,cs)
);
}
);
width = 383;
}
);
unicode = 63;
},
{
glyphname = bullet;
lastChange = "2024-02-14 17:17:26 +0000";
layers = (
{
layerId = m01;
shapes = (
{
closed = 1;
nodes = (
(146,325,o),
(156,346,o),
(156,358,cs),
(156,365,o),
(152,369,o),
(145,369,cs),
(129,369,o),
(99,348,o),
(66,307,cs),
(25,256,o),
(10,217,o),
(10,189,cs),
(10,153,o),
(36,136,o),
(63,136,cs),
(74,136,o),
(86,139,o),
(96,145,cs),
(133,166,o),
(183,254,o),
(183,285,cs),
(183,292,o),
(181,296,o),
(175,296,cs),
(172,296,o),
(167,294,o),
(162,291,cs),
(160,290,o),
(157,289,o),
(154,289,cs),
(141,289,o),
(121,294,o),
(122,295,cs)
);
},
{
closed = 1;
nodes = (
(102,236,o),
(84,194,o),
(84,171,cs),
(84,161,o),
(88,155,o),
(95,155,cs),
(103,155,o),
(116,163,o),
(134,183,cs),
(205,261,o),
(230,314,o),
(230,346,cs),
(230,376,o),
(209,389,o),
(184,389,cs),
(168,389,o),
(151,384,o),
(137,374,cs),
(95,344,o),
(43,269,o),
(43,247,cs),
(43,243,o),
(44,241,o),
(48,241,cs),
(53,241,o),
(60,244,o),
(71,252,cs),
(73,253,o),
(136,273,o),
(134,271,cs)
);
}
);
width = 270;
}
);
unicode = 8226;
},
{
glyphname = asterisk;
lastChange = "2024-02-14 17:17:26 +0000";
layers = (
{
layerId = m01;
shapes = (
{
closed = 1;
nodes = (
(457,595,o),
(479,636,o),
(479,659,cs),
(479,670,o),
(474,677,o),
(464,677,cs),
(453,677,o),
(438,670,o),
(416,654,cs),
(382,628,o),
(100,379,o),
(98,377,cs),
(63,345,o),
(46,313,o),
(46,293,cs),
(46,281,o),
(52,274,o),
(63,274,cs),
(75,274,o),
(95,283,o),
(120,305,cs),
(131,315,o),
(403,554,o),
(416,564,cs)
);
},
{
closed = 1;
nodes = (
(355,282,o),
(360,281,o),
(366,281,cs),
(407,281,o),
(495,341,o),
(495,372,cs),
(495,376,o),
(493,380,o),
(490,383,cs),
(384,477,o),
(279,571,o),
(173,665,cs),
(170,668,o),
(165,669,o),
(159,669,cs),
(118,669,o),
(30,609,o),
(30,578,cs),
(30,574,o),
(32,570,o),
(35,567,cs),
(141,473,o),
(246,379,o),
(352,285,cs)
);
},
{
closed = 1;
nodes = (
(347,728,o),
(343,732,o),
(336,732,cs),
(310,732,o),
(251,679,o),
(251,647,cs),
(251,640,o),
(187,246,o),
(186,240,cs),
(184,227,o),
(189,222,o),
(197,222,cs),
(222,222,o),
(276,266,o),
(282,302,cs),
(282,304,o),
(347,706,o),
(347,719,cs)
);
}
);
width = 535;
}
);
unicode = 42;
},
{
glyphname = dblverticalbar;
lastChange = "2024-02-14 17:17:26 +0000";
layers = (
{
layerId = m01;
shapes = (
{
closed = 1;
nodes = (
(307,712,o),
(302,716,o),
(296,716,cs),
(275,716,o),
(225,675,o),
(217,641,cs),
(210,612,o),
(167,-1,o),
(167,-2,cs),
(166,-12,o),
(170,-16,o),
(177,-16,cs),
(200,-16,o),
(255,32,o),
(257,64,cs),
(259,95,o),
(307,792,o),
(307,705,cs)
);
},
{
closed = 1;
nodes = (
(170,712,o),
(165,716,o),
(159,716,cs),
(138,716,o),
(88,675,o),
(80,641,cs),
(73,612,o),
(30,-1,o),
(30,-2,cs),
(29,-12,o),
(33,-16,o),
(40,-16,cs),
(63,-16,o),
(118,32,o),
(120,64,cs),
(122,95,o),
(170,792,o),
(170,705,cs)
);
}
);
width = 336;
}
);
unicode = 8214;
},
{
glyphname = dittomark;
lastChange = "2024-02-14 17:17:26 +0000";
layers = (
{
layerId = m01;
shapes = (
{
closed = 1;
nodes = (
(205,481,o),
(208,491,o),
(208,498,cs),
(208,509,o),
(202,514,o),
(192,514,cs),
(165,514,o),
(110,476,o),
(85,425,cs),
(76,408,o),
(22,279,o),
(21,277,cs),
(17,267,o),
(15,259,o),
(15,253,cs),
(15,242,o),
(20,238,o),
(29,238,cs),
(58,238,o),
(119,283,o),
(141,333,cs),
(144,339,o),
(199,468,o),
(199,469,cs)
);
},
{
closed = 1;
nodes = (
(360,481,o),
(363,491,o),
(363,498,cs),
(363,509,o),
(357,514,o),
(347,514,cs),
(320,514,o),
(265,476,o),
(240,425,cs),
(231,408,o),
(177,279,o),
(176,277,cs),
(172,267,o),
(170,259,o),
(170,253,cs),
(170,242,o),
(175,238,o),
(184,238,cs),
(213,238,o),
(274,283,o),
(296,333,cs),
(299,339,o),
(354,468,o),
(354,469,cs)
);
}
);
width = 363;
}
);
unicode = 12291;
},
{
glyphname = numbersign;
lastChange = "2024-02-14 17:17:26 +0000";
layers = (
{
layerId = m01;
shapes = (
{
closed = 1;
nodes = (
(296,611,o),
(297,616,o),
(297,620,cs),
(297,631,o),
(291,636,o),
(282,636,cs),
(251,636,o),
(181,579,o),
(167.388,529.788,cs),
(159.081,499.332,o),
(75.591,25.702,o),
(75.312,24.126,cs),
(72,6,o),
(78,-2,o),
(89,-2,cs),
(121,-2,o),
(196,63,o),
(204.688,109.874,cs),
(208.451,131.077,o),
(285.612,573.21,o),
(294.612,606.212,cs)
);
},
{
closed = 1;
nodes = (
(515,610,o),
(516,616,o),
(516,620,cs),
(516,631,o),
(510,636,o),
(501,636,cs),
(471,636,o),
(404,584,o),
(387.267,532.728,cs),
(375.91,497.037,o),
(293.772,26.721,o),
(293.312,24.126,cs),
(290,6,o),
(296,-2,o),
(307,-2,cs),
(339,-2,o),
(414,63,o),
(422.688,109.874,cs),
(425.214,124.104,o),
(504.805,578.355,o),
(512.733,603.272,cs)
);
},
{
closed = 1;
nodes = (
(98,507,o),
(51,382,o),
(51,347,cs),
(51,341,o),
(52,337,o),
(54.998,337.275,cs),
(107,338,o),
(158,338,o),
(210,338,cs),
(215,338,o),
(221,352,o),
(227,352,cs),
(269,352,o),
(312,352,o),
(354,352,cs),
(357,352,o),
(361,338,o),
(364,338,cs),
(411,338,o),
(457,338,o),
(502.998,338.275,cs),
(520,338,o),
(567,462,o),
(567,498,cs),
(567,504,o),
(566,508,o),
(563.002,507.725,cs),
(508,507,o),
(453,507,o),
(399,507,cs),
(395,507,o),
(392,493,o),
(389,493,cs),
(349,493,o),
(310,493,o),
(270,493,cs),
(267,493,o),
(263,507,o),
(260,507,cs),
(212,507,o),
(163,507,o),
(115.002,506.725,cs)
);
},
{
closed = 1;
nodes = (
(57,287,o),
(10,162,o),
(10,127,cs),
(10,121,o),
(11,117,o),
(13.998,117.275,cs),
(71,117,o),
(128,118,o),
(185,118,cs),
(188,118,o),
(192,132,o),
(195,132,cs),
(236,132,o),
(276,132,o),
(317,132,cs),
(320,132,o),
(322,118,o),
(325,118,cs),
(370,118,o),
(417,118,o),
(461.998,118.275,cs),
(479,118,o),
(526,242,o),
(526,278,cs),
(526,284,o),
(525,288,o),
(522.002,287.725,cs),
(468,287,o),
(414,287,o),
(360,287,cs),
(356,287,o),
(353,273,o),
(349,273,cs),
(306,273,o),
(263,273,o),
(221,273,cs),
(217,273,o),
(214,287,o),
(210,287,cs),
(165,287,o),
(119,287,o),
(74.002,286.725,cs)
);
}
);
width = 607;
}
);
unicode = 35;
},
{
glyphname = slash;
lastChange = "2024-02-14 17:17:26 +0000";
layers = (
{
layerId = m01;
shapes = (
{
closed = 1;
nodes = (
(378,712,o),
(381,722,o),
(381,729,cs),
(381,740,o),
(375,745,o),
(365,745,cs),
(338,745,o),
(283,707,o),
(258,656,cs),
(237,615,o),
(-23,-7,o),
(-24,-9,cs),
(-28,-19,o),
(-30,-27,o),
(-30,-33,cs),
(-30,-44,o),
(-24,-48,o),
(-15,-48,cs),
(13,-48,o),
(75,-4,o),
(96,47,cs),
(108,75,o),
(349,655,o),
(372,700,cs)
);
}
);
width = 381;
}
);
unicode = 47;
},
{
glyphname = backslash;
lastChange = "2024-02-14 17:17:26 +0000";
layers = (
{
layerId = m01;
shapes = (
{
closed = 1;
nodes = (
(275,-1,o),
(338,-48,o),
(366,-48,cs),
(375,-48,o),
(381,-43,o),
(381,-33,cs),
(381,-28,o),
(380,-20,o),
(375,-10,cs),
(362,23,o),
(114,614,o),
(93,656,cs),
(68,706,o),
(12,745,o),
(-15,745,cs),
(-24,745,o),
(-30,740,o),
(-30,730,cs),
(-30,723,o),
(-28,713,o),
(-21,700,cs),
(-12,682,o),
(244,73,o),
(255,48,cs)
);
}
);
width = 381;
}
);
unicode = 92;
},
{
glyphname = hyphen;
lastChange = "2024-02-14 18:41:45 +0000";
layers = (
{
layerId = m01;
shapes = (
{
closed = 1;
nodes = (
(62,384,o),
(15,259,o),
(15,224,cs),
(15,218,o),
(16,214,o),
(19,214,cs),
(96,214,o),
(173,213,o),
(250,212,cs),
(267,212,o),
(314,336,o),
(314,372,cs),
(314,378,o),
(313,382,o),
(310,382,cs),
(233,382,o),
(156,383,o),
(79,384,cs)
);
}
);
width = 369;
}
);
unicode = 45;
},
{
glyphname = endash;
lastChange = "2024-02-14 17:17:26 +0000";
layers = (
{
layerId = m01;
shapes = (
{
closed = 1;
nodes = (
(57,384,o),
(10,259,o),
(10,224,cs),
(10,218,o),
(11,214,o),
(13.998,214.275,cs),
(192.665,213.608,o),
(371.331,212.942,o),
(549.998,212.275,cs),
(567,212,o),
(614,336,o),
(614,372,cs),
(614,378,o),
(613,382,o),
(610.002,381.725,cs),
(431.335,382.392,o),
(252.669,383.058,o),
(74.002,383.725,cs)
);
}
);
width = 644;
}
);
unicode = 8211;
},
{
glyphname = emdash;
lastChange = "2024-02-14 17:17:26 +0000";
layers = (
{
layerId = m01;
shapes = (
{
closed = 1;
nodes = (
(57,384,o),
(10,259,o),
(10,224,cs),
(10,218,o),
(11,214,o),
(14,214,cs),
(253,214,o),
(492,213,o),
(731,212,cs),
(748,212,o),
(795,336,o),
(795,372,cs),
(795,378,o),
(794,382,o),
(791,382,cs),
(552,382,o),
(313,383,o),
(74,384,cs)
);
}
);
width = 825;
}
);
unicode = 8212;
},
{
glyphname = underscore;
lastChange = "2024-02-14 17:17:26 +0000";
layers = (
{
layerId = m01;
shapes = (
{
closed = 1;
nodes = (
(57,-21,o),
(10,-146,o),
(10,-181,cs),
(10,-187,o),
(11,-191,o),
(14,-191,cs),
(193,-191,o),
(371,-192,o),
(550,-193,cs),
(567,-193,o),
(614,-69,o),
(614,-33,cs),
(614,-27,o),
(613,-23,o),
(610,-23,cs),
(431,-23,o),
(253,-22,o),
(74,-21,cs)
);
}
);
width = 644;
}
);
unicode = 95;
},
{
glyphname = wavedash;
lastChange = "2024-02-14 17:17:26 +0000";
layers = (
{
layerId = m01;
shapes = (
{
closed = 1;
nodes = (
(650,186,o),
(691,296,o),
(691,334,cs),
(691,344,o),
(688,349,o),
(682,346,cs),
(619,321,o),
(572,306,o),
(524,306,cs),
(481,306,o),
(437,318,o),
(380,348,cs),
(340,370,o),
(295,382,o),
(248,382,cs),
(193,382,o),
(133,365,o),
(72,327,cs),
(51,314,o),
(10,208,o),
(10,171,cs),
(10,160,o),
(14,156,o),
(22,161,cs),
(79,196,o),
(136,212,o),
(190,212,cs),
(235,212,o),
(278,200,o),
(318,180,cs),
(375,150,o),
(420,137,o),
(466,137,cs),
(515,137,o),
(565,152,o),
(628,178,cs)
);
}
);
width = 720;
}
);
unicode = 12316;
},
{
glyphname = parenleft;
lastChange = "2024-02-14 17:17:26 +0000";
layers = (
{
layerId = m01;
shapes = (
{
closed = 1;
nodes = (
(292,689,o),
(293,693,o),
(293,696,cs),
(293,701,o),
(289,703,o),
(283,703,cs),
(252,703,o),
(163,654,o),
(141,616,cs),
(86,519,o),
(50,385,o),
(50,255,cs),
(50,150,o),
(74,49,o),
(128,-26,cs),
(129,-28,o),
(132,-29,o),
(135,-29,cs),
(168,-29,o),
(272,79,o),
(256,100,cs),
(214,159,o),
(196,239,o),
(196,324,cs),
(196,453,o),
(236,593,o),
(289,684,cs)
);
}
);
width = 343;
}
);
unicode = 40;
},
{
glyphname = parenright;
lastChange = "2024-02-14 17:17:26 +0000";
layers = (
{
layerId = m01;
shapes = (
{
closed = 1;
nodes = (
(51,-2,o),
(50,-6,o),
(50,-9,cs),
(50,-14,o),
(54,-16,o),
(60,-16,cs),
(90,-16,o),
(181,35,o),
(202,71,cs),
(257,168,o),
(293,302,o),
(293,432,cs),
(293,537,o),
(269,638,o),
(215,713,cs),
(197,738,o),
(69,611,o),
(87,587,cs),
(129,528,o),
(147,448,o),
(147,363,cs),
(147,234,o),
(107,94,o),
(54,3,cs)
);
}
);
width = 363;
}
);
unicode = 41;
},
{
glyphname = braceleft;
lastChange = "2024-02-14 17:17:26 +0000";
layers = (
{
layerId = m01;
shapes = (
{
closed = 1;
nodes = (
(350,688,o),
(354,695,o),
(354,700,cs),
(354,706,o),
(348,709,o),
(339,709,cs),
(315,709,o),
(272,692,o),
(245,665,cs),
(168,586,o),
(172,567,o),
(164,417,cs),
(164,413,o),
(137,370,o),
(99,370,cs),
(76,370,o),
(50,337,o),
(50,318,cs),
(50,310,o),
(54,304,o),
(65,304,cs),
(66,304,o),
(292,332,o),
(300,483,cs),
(307,625,o),
(300,638,o),
(341,679,cs)
);
},
{
closed = 1;
nodes = (
(78,369,o),
(50,335,o),
(50,315,cs),
(50,307,o),
(55,301,o),
(67,301,cs),
(90,301,o),
(150,301,o),
(146,237,cs),
(142,171,o),
(131,111,o),
(131,65,cs),
(131,15,o),
(144,-16,o),
(194,-16,cs),
(232,-16,o),
(316,35,o),
(316,56,cs),
(316,61,o),
(311,64,o),
(301,64,cs),
(279,65,o),
(273,80,o),
(273,110,cs),
(273,148,o),
(283,211,o),
(288,301,cs),
(292,362,o),
(229,375,o),
(175,375,cs),
(136,375,o),
(102,369,o),
(100,369,cs)
);
}
);
width = 385;
}
);
unicode = 123;
},
{
glyphname = braceright;
lastChange = "2024-02-14 17:17:26 +0000";
layers = (
{
layerId = m01;
shapes = (
{
closed = 1;
nodes = (
(309,326,o),
(334,359,o),
(334,378,cs),
(334,386,o),
(330,392,o),
(319,392,cs),
(318,392,o),
(92,364,o),
(84,213,cs),
(77,67,o),
(84,59,o),
(43,17,cs),
(34,8,o),
(30,1,o),
(30,-4,cs),
(30,-10,o),
(36,-13,o),
(45,-13,cs),
(68,-13,o),
(113,5,o),
(139,31,cs),
(216,109,o),
(212,133,o),
(220,279,cs),
(220,283,o),
(247,326,o),
(285,326,cs)
);
},
{
closed = 1;
nodes = (
(152,712,o),
(68,661,o),
(68,640,cs),
(68,635,o),
(73,632,o),
(83,632,cs),
(105,631,o),
(111,616,o),
(111,586,cs),
(111,548,o),
(101,485,o),
(96,395,cs),
(92,334,o),
(155,321,o),
(209,321,cs),
(248,321,o),
(282,327,o),
(284,327,cs),
(308,327,o),
(333,360,o),
(333,380,cs),
(333,389,o),
(329,395,o),
(317,395,cs),
(294,395,o),
(234,395,o),
(238,459,cs),
(242,524,o),
(253,584,o),
(253,630,cs),
(253,679,o),
(240,712,o),
(190,712,cs)
);
}
);
width = 385;
}
);
unicode = 125;
},
{
glyphname = bracketleft;
lastChange = "2024-02-14 17:17:26 +0000";
layers = (
{
layerId = m01;
shapes = (
{
closed = 1;
nodes = (
(221,645,o),
(222,650,o),
(222,653,cs),
(222,664,o),
(216,669,o),
(207,669,cs),
(176,669,o),
(104,611,o),
(92,562,cs),
(87,539,o),
(50,11,o),
(50,8,cs),
(49,-7,o),
(55,-14,o),
(65,-14,cs),
(99,-14,o),
(177,55,o),
(180,102,cs),
(181,118,o),
(218,631,o),
(220,640,cs)
);
},
{
closed = 1;
nodes = (
(138,714,o),
(92,590,o),
(92,554,cs),
(92,548,o),
(93,544,o),
(96,544,cs),
(178,545,o),
(259,545,o),
(340,545,cs),
(357,545,o),
(404,668,o),
(404,705,cs),
(404,711,o),
(403,715,o),
(400,715,cs),
(318,714,o),
(237,714,o),
(156,714,cs)
);
},
{
closed = 1;
nodes = (
(107,156,o),
(61,32,o),
(61,-4,cs),
(61,-10,o),
(62,-14,o),
(65,-14,cs),
(143,-13,o),
(220,-13,o),
(297,-13,cs),
(314,-13,o),
(361,110,o),
(361,147,cs),
(361,153,o),
(360,157,o),
(357,157,cs),
(279,156,o),
(202,156,o),
(125,156,cs)
);
}
);
width = 435;
}
);
unicode = 91;
},
{
glyphname = bracketright;
lastChange = "2024-02-14 17:17:26 +0000";
layers = (
{
layerId = m01;
shapes = (
{
closed = 1;
nodes = (
(213,57,o),
(212,53,o),
(212,49,cs),
(212,38,o),
(218,33,o),
(228,33,cs),
(259,33,o),
(329,89,o),
(342,140,cs),
(347,163,o),
(384,691,o),
(384,694,cs),
(385,709,o),
(379,715,o),
(369,715,cs),
(335,715,o),
(257,645,o),
(254,600,cs),
(253,584,o),
(216,71,o),
(214,62,cs)
);
},
{
closed = 1;
nodes = (
(295,-12,o),
(342,111,o),
(342,148,cs),
(342,154,o),
(341,158,o),
(338,158,cs),
(256,157,o),
(175,157,o),
(94,157,cs),
(76,157,o),
(30,33,o),
(30,-3,cs),
(30,-9,o),
(31,-13,o),
(34,-13,cs),
(116,-12,o),
(197,-12,o),
(278,-12,cs)
);
},
{
closed = 1;
nodes = (
(326,546,o),
(373,669,o),
(373,706,cs),
(373,712,o),
(372,716,o),
(369,716,cs),
(291,715,o),
(214,715,o),
(137,715,cs),
(119,715,o),
(73,591,o),
(73,555,cs),
(73,549,o),
(74,545,o),
(77,545,cs),
(155,546,o),
(232,546,o),
(309,546,cs)
);
}
);
width = 434;
}
);
unicode = 93;
},
{
glyphname = anglebracketleft;
lastChange = "2024-02-14 17:17:26 +0000";
layers = (
{
layerId = m01;
shapes = (
{
closed = 1;
nodes = (
(391,792,o),
(393,798,o),
(393,803,cs),
(393,812,o),
(385,816,o),
(374,816,cs),
(343,816,o),
(281,785,o),
(260,747,cs),
(185,616,o),
(111,486,o),
(37,355,cs),
(32,347,o),
(30,341,o),
(30,336,cs),
(30,328,o),
(37,324,o),
(48,324,cs),
(79,324,o),
(143,356,o),
(163,393,cs),
(238,524,o),
(312,654,o),
(386,785,cs)
);
},
{
closed = 1;
nodes = (
(172,426,o),
(166,429,o),
(158,429,cs),
(115,429,o),
(15,359,o),
(32,329,cs),
(107,199,o),
(181,69,o),
(255,-62,cs),
(259,-67,o),
(265,-70,o),
(273,-70,cs),
(313,-70,o),
(401,-11,o),
(401,22,cs),
(401,25,o),
(400,27,o),
(399,30,cs),
(324,160,o),
(250,291,o),
(176,421,cs)
);
}
);
width = 451;
}
);
unicode = 12296;
},
{
glyphname = anglebracketright;
lastChange = "2024-02-14 17:17:26 +0000";
layers = (
{
layerId = m01;
shapes = (
{
closed = 1;
nodes = (
(60,-46,o),
(58,-52,o),
(58,-57,cs),
(58,-65,o),
(65,-69,o),
(76,-69,cs),
(107,-69,o),
(171,-37,o),
(191,0,cs),
(266,131,o),
(340,261,o),
(414,392,cs),
(419,399,o),
(421,405,o),
(421,410,cs),
(421,419,o),
(413,423,o),
(402,423,cs),
(371,423,o),
(309,392,o),
(288,354,cs),
(213,223,o),
(139,93,o),
(65,-38,cs)
);
},
{
closed = 1;
nodes = (
(279,321,o),
(285,318,o),
(293,318,cs),
(333,318,o),
(421,377,o),
(421,410,cs),
(421,413,o),
(420,415,o),
(419,418,cs),
(344,548,o),
(270,679,o),
(196,809,cs),
(192,814,o),
(186,817,o),
(178,817,cs),
(135,817,o),
(35,747,o),
(52,717,cs),
(127,587,o),
(201,457,o),
(275,326,cs)
);
}
);
width = 451;
}
);
unicode = 12297;
},
{
glyphname = cornerbracketleft;
lastChange = "2024-02-14 17:17:26 +0000";
layers = (
{
guides = (
{
pos = (345,889);
}
);
layerId = m01;
shapes = (
{
closed = 1;
nodes = (
(210,719,o),
(211,724,o),
(211,727,cs),
(211,738,o),
(205,743,o),
(196,743,cs),
(165,743,o),
(93,685,o),
(81,636,cs),
(75,612,o),
(50,196,o),
(50,193,cs),
(49,178,o),
(55,172,o),
(65,172,cs),
(99,172,o),
(177,242,o),
(180,289,cs),
(181,302,o),
(207,708,o),
(209,714,cs)
);
},
{
closed = 1;
nodes = (
(127,788,o),
(81,664,o),
(81,628,cs),
(81,622,o),
(82,618,o),
(85,618,cs),
(167,619,o),
(248,619,o),
(329,619,cs),
(346,619,o),
(393,742,o),
(393,779,cs),
(393,785,o),
(392,789,o),
(389,789,cs),
(307,788,o),
(226,788,o),
(145,788,cs)
);
}
);
width = 424;
}
);
unicode = 12300;
},
{
glyphname = cornerbracketright;
lastChange = "2024-02-14 17:17:26 +0000";
layers = (
{
layerId = m01;
shapes = (
{
closed = 1;
nodes = (
(213,-48,o),
(212,-52,o),
(212,-56,cs),
(212,-67,o),
(218,-72,o),
(228,-72,cs),
(259,-72,o),
(329,-16,o),
(342,35,cs),
(348,59,o),
(373,475,o),
(373,478,cs),
(374,492,o),
(368,499,o),
(359,499,cs),
(325,499,o),
(246,427,o),
(243,382,cs),
(242,369,o),
(216,-37,o),
(214,-43,cs)
);
},
{
closed = 1;
nodes = (
(295,-117,o),
(342,6,o),
(342,43,cs),
(342,49,o),
(341,53,o),
(338,53,cs),
(256,52,o),
(175,52,o),
(94,52,cs),
(76,52,o),
(30,-72,o),
(30,-108,cs),
(30,-114,o),
(31,-118,o),
(34,-118,cs),
(116,-117,o),
(197,-117,o),
(278,-117,cs)
);
}
);
width = 423;
}
);
unicode = 12301;
},
{
glyphname = quotesinglbase;
lastChange = "2024-02-14 17:17:26 +0000";
layers = (
{
layerId = m01;
shapes = (
{
closed = 1;
nodes = (
(29,-132,o),
(33,-135,o),
(40,-135,cs),
(69,-135,o),
(148,-89,o),
(152,-65,cs),
(152,-64,o),
(201,120,o),
(203,130,cs),
(205,146,o),
(197,152,o),
(182,152,cs),
(142,152,o),
(57,102,o),
(49,64,cs),
(49,64,o),
(42,-54,o),
(30,-125,cs)
);
}
);
width = 234;
}
);
unicode = 8218;
},
{
glyphname = quotedblbase;
lastChange = "2024-02-14 17:17:26 +0000";
layers = (
{
layerId = m01;
shapes = (
{
closed = 1;
nodes = (
(202,-132,o),
(206,-135,o),
(213,-135,cs),
(242,-135,o),
(322,-89,o),
(325,-65,cs),
(325,-64,o),
(374,121,o),
(376,130,cs),
(378,145,o),
(370,152,o),
(356,152,cs),
(316,152,o),
(230,102,o),
(222,64,cs),
(222,64,o),
(221,-6,o),
(203,-125,cs)
);
},
{
closed = 1;
nodes = (
(29,-132,o),
(33,-135,o),
(40,-135,cs),
(70,-135,o),
(149,-89,o),
(152,-65,cs),
(152,-64,o),
(201,121,o),
(203,130,cs),
(205,145,o),
(197,152,o),
(183,152,cs),
(143,152,o),
(57,102,o),
(49,64,cs),
(49,64,o),
(45,-21,o),
(30,-125,cs)
);
}
);
width = 406;
}
);
unicode = 8222;
},
{
glyphname = quotedblleft;
lastChange = "2024-02-14 17:17:26 +0000";
layers = (
{
layerId = m01;
shapes = (
{
closed = 1;
nodes = (
(203,713,o),
(199,715,o),
(193,715,cs),
(163,715,o),
(81,666,o),
(81,643,cs),
(81,642,o),
(33,459,o),
(31,450,cs),
(27,435,o),
(36,428,o),
(50,428,cs),
(90,428,o),
(174,475,o),
(183,516,cs),
(183,516,o),
(203,588,o),
(203,707,cs)
);
},
{
closed = 1;
nodes = (
(376,713,o),
(372,715,o),
(366,715,cs),
(336,715,o),
(254,666,o),
(254,643,cs),
(254,642,o),
(206,459,o),
(204,450,cs),
(200,435,o),
(209,428,o),
(223,428,cs),
(263,428,o),
(347,475,o),
(356,516,cs),
(356,516,o),
(376,588,o),
(376,707,cs)
);
}
);
width = 406;
}
);
unicode = 8220;
},
{
glyphname = quotedblright;
lastChange = "2024-02-14 17:17:26 +0000";
layers = (
{
layerId = m01;
shapes = (
{
closed = 1;
nodes = (
(203,445,o),
(207,443,o),
(213,443,cs),
(243,443,o),
(325,492,o),
(325,515,cs),
(325,516,o),
(373,699,o),
(375,708,cs),
(379,723,o),
(371,730,o),
(356,730,cs),
(317,730,o),
(231,681,o),
(223,642,cs),
(223,642,o),
(203,570,o),
(203,451,cs)
);
},
{
closed = 1;
nodes = (
(30,445,o),
(34,443,o),
(40,443,cs),
(70,443,o),
(152,492,o),
(152,515,cs),
(152,516,o),
(200,699,o),
(202,708,cs),
(206,723,o),
(198,730,o),
(183,730,cs),
(144,730,o),
(58,681,o),
(50,642,cs),
(50,642,o),
(30,570,o),
(30,451,cs)
);
}
);
width = 406;
}
);
unicode = 8221;
},
{
glyphname = quoteleft;
lastChange = "2024-02-14 17:17:26 +0000";
layers = (
{
layerId = m01;
shapes = (
{
closed = 1;
nodes = (
(203,713,o),
(199,715,o),
(193,715,cs),
(163,715,o),
(81,666,o),
(81,643,cs),
(81,642,o),
(33,459,o),
(31,450,cs),
(27,435,o),
(36,428,o),
(50,428,cs),
(90,428,o),
(174,475,o),
(183,516,cs),
(183,516,o),
(203,588,o),
(203,707,cs)
);
}
);
width = 233;
}
);
unicode = 8216;
},
{
glyphname = quoteright;
lastChange = "2024-02-14 17:17:26 +0000";
layers = (
{
layerId = m01;
shapes = (
{
closed = 1;
nodes = (
(30,445,o),
(34,443,o),
(40,443,cs),
(70,443,o),
(152,492,o),
(152,515,cs),
(152,516,o),
(200,699,o),
(202,708,cs),
(206,723,o),
(198,730,o),
(183,730,cs),
(144,730,o),
(58,681,o),
(50,642,cs),
(50,642,o),
(30,570,o),
(30,451,cs)
);
}
);
width = 233;
}
);
unicode = 8217;
},
{
glyphname = guillemetleft;
lastChange = "2024-02-14 17:17:26 +0000";
layers = (
{
layerId = m01;
shapes = (
{
closed = 1;
nodes = (
(369,531,o),
(372,539,o),
(372,545,cs),
(372,554,o),
(364,558,o),
(352,558,cs),
(323,558,o),
(268,533,o),
(242,495,cs),
(175,398,o),
(108,301,o),
(40,204,cs),
(33,194,o),
(30,186,o),
(30,180,cs),
(30,171,o),
(37,167,o),
(49,167,cs),
(78,167,o),
(134,194,o),
(160,230,cs),
(227,327,o),
(294,424,o),
(362,521,cs)
);
},
{
closed = 1;
nodes = (
(172,268,o),
(166,270,o),
(159,270,cs),
(119,270,o),
(30,212,o),
(30,179,cs),
(30,176,o),
(31,173,o),
(33,171,cs),
(70,111,o),
(107,52,o),
(145,-7,cs),
(148,-12,o),
(154,-15,o),
(162,-15,cs),
(202,-15,o),
(290,45,o),
(290,77,cs),
(290,80,o),
(289,83,o),
(287,85,cs),
(250,145,o),
(213,204,o),
(175,263,cs)
);
},
{
closed = 1;
nodes = (
(589,531,o),
(592,539,o),
(592,545,cs),
(592,554,o),
(585,558,o),
(573,558,cs),
(544,558,o),
(489,532,o),
(462,495,cs),
(404,413,o),
(346,330,o),
(288,248,cs),
(281,238,o),
(278,230,o),
(278,224,cs),
(278,215,o),
(285,211,o),
(296,211,cs),
(326,211,o),
(382,238,o),
(408,274,cs),
(466,356,o),
(524,439,o),
(582,521,cs)
);
},
{
closed = 1;
nodes = (
(423,309,o),
(417,311,o),
(410,311,cs),
(370,311,o),
(281,253,o),
(281,220,cs),
(281,217,o),
(282,214,o),
(284,212,cs),
(329,139,o),
(375,66,o),
(421,-7,cs),
(424,-12,o),
(430,-15,o),
(438,-15,cs),
(478,-15,o),
(565,45,o),
(565,77,cs),
(565,80,o),
(565,83,o),
(563,85,cs),
(518,158,o),
(472,231,o),
(426,304,cs)
);
}
);
width = 669;
}
);
unicode = 171;
},
{
glyphname = guilsinglleft;
lastChange = "2024-02-14 17:17:26 +0000";
layers = (
{
layerId = m01;
shapes = (
{
closed = 1;
nodes = (
(341,531,o),
(344,539,o),
(344,545,cs),
(344,554,o),
(337,558,o),
(325,558,cs),
(296,558,o),
(241,532,o),
(214,495,cs),
(156,413,o),
(98,330,o),
(40,248,cs),
(33,238,o),
(30,230,o),
(30,224,cs),
(30,215,o),
(37,211,o),
(48,211,cs),
(78,211,o),
(134,238,o),
(160,274,cs),
(218,356,o),
(276,439,o),
(334,521,cs)
);
},
{
closed = 1;
nodes = (
(175,309,o),
(169,311,o),
(162,311,cs),
(122,311,o),
(33,253,o),
(33,220,cs),
(33,217,o),
(34,214,o),
(36,212,cs),
(81,139,o),
(127,66,o),
(173,-7,cs),
(176,-12,o),
(182,-15,o),
(190,-15,cs),
(230,-15,o),
(317,45,o),
(317,77,cs),
(317,80,o),
(317,83,o),
(315,85,cs),
(270,158,o),
(224,231,o),
(178,304,cs)
);
}
);
width = 420;
}
);
unicode = 8249;
},
{
glyphname = quotedbl;
lastChange = "2024-02-14 17:17:26 +0000";
layers = (
{
layerId = m01;
shapes = (
{
closed = 1;
nodes = (
(197,710,o),
(190,714,o),
(180,714,cs),
(141,714,o),
(45,657,o),
(45,623,cs),
(45,583,o),
(30,453,o),
(30,447,cs),
(28,436,o),
(35,432,o),
(46,432,cs),
(84,432,o),
(177,487,o),
(180,521,cs),
(181,522,o),
(197,663,o),
(197,701,cs)
);
},
{
closed = 1;
nodes = (
(369,710,o),
(362,714,o),
(352,714,cs),
(313,714,o),
(217,657,o),
(217,623,cs),
(217,583,o),
(202,453,o),
(202,447,cs),
(200,436,o),
(207,432,o),
(218,432,cs),
(256,432,o),
(349,487,o),
(352,521,cs),
(353,522,o),
(369,663,o),
(369,701,cs)
);
}
);
width = 399;
}
);
unicode = 34;
},
{
glyphname = quotesingle;
lastChange = "2024-02-14 17:17:26 +0000";
layers = (
{
layerId = m01;
shapes = (
{
closed = 1;
nodes = (
(198,711,o),
(192,715,o),
(182,715,cs),
(142,715,o),
(46,656,o),
(46,622,cs),
(46,589,o),
(30,446,o),
(30,446,cs),
(29,436,o),
(35,431,o),
(46,431,cs),
(84,431,o),
(178,487,o),
(182,522,cs),
(183,528,o),
(198,659,o),
(198,702,cs)
);
}
);
width = 228;
}
);
unicode = 39;
},
{
glyphname = florin;
lastChange = "2024-02-14 17:17:26 +0000";
layers = (
{
layerId = m01;
shapes = (
{
closed = 1;
nodes = (
(360,412,o),
(354,418,o),
(344,418,cs),
(310,418,o),
(225,345,o),
(221,297,cs),
(217,248,o),
(216,198,o),
(212,148,cs),
(208,105,o),
(169,97,o),
(167,97,cs),
(152,97,o),
(137,96,o),
(122,96,cs),
(78,94,o),
(0,9,o),
(0,-29,cs),
(0,-39,o),
(6,-46,o),
(21,-46,cs),
(36,-46,o),
(52,-45,o),
(67,-45,cs),
(207,-42,o),
(338,191,o),
(342,236,cs),
(347,290,o),
(354,344,o),
(359,399,cs)
);
},
{
closed = 1;
nodes = (
(220,287,o),
(225,281,o),
(235,281,cs),
(269,281,o),
(353,353,o),
(358,401,cs),
(364,445,o),
(366,492,o),
(371,536,cs),
(371,538,o),
(378,572,o),
(457,572,cs),
(504,572,o),
(580,657,o),
(580,696,cs),
(580,707,o),
(574,714,o),
(559,714,cs),
(559,714,o),
(559,714,o),
(559,714,cs),
(451,714,o),
(256,563,o),
(241,438,cs),
(235,391,o),
(227,348,o),
(222,301,cs)
);
},
{
closed = 1;
nodes = (
(121,418,o),
(87,376,o),
(87,354,cs),
(87,346,o),
(92,341,o),
(104,341,cs),
(104,341,o),
(105,341,o),
(105,341,cs),
(153,344,o),
(421,343,o),
(438,343,cs),
(466,344,o),
(501,386,o),
(501,409,cs),
(501,417,o),
(496,423,o),
(486,423,cs),
(485,423,o),
(485,423,o),
(484,423,cs),
(484,423,o),
(184,422,o),
(149,419,cs)
);
}
);
width = 550;
}
);
unicode = 402;
},
{
glyphname = baht;
lastChange = "2024-02-14 19:01:03 +0000";
layers = (
{
layerId = m01;
shapes = (
{
closed = 1;
nodes = (
(54,257,o),
(52,228,o),
(52,204,cs),
(52,179,o),
(54,160,o),
(59,160,cs),
(62,160,o),
(66,167,o),
(70,183,cs),
(92,267,o),
(174,313,o),
(245,313,cs),
(306,313,o),
(359,278,o),
(359,203,cs),
(359,183,o),
(355,160,o),
(346,134,cs),
(344,127,o),
(345,124,o),
(347,124,cs),
(362,124,o),
(436,213,o),
(448,248,cs),
(455,272,o),
(459,293,o),
(459,313,cs),
(459,408,o),
(379,459,o),
(290,459,cs),
(196,459,o),
(92,402,o),
(60,279,cs)
);
},
{
closed = 1;
nodes = (
(222,414,o),
(192,366,o),
(192,340,cs),
(192,331,o),
(196,325,o),
(206,325,cs),
(213,325,o),
(223,329,o),
(237,336,cs),
(431,450,o),
(501,550,o),
(501,621,cs),
(501,687,o),
(439,727,o),
(361,727,cs),
(259,727,o),
(127,658,o),
(68,487,cs),
(60,466,o),
(57,449,o),
(57,434,cs),
(57,406,o),
(69,390,o),
(85,390,cs),
(103,390,o),
(127,412,o),
(144,461,cs),
(168,529,o),
(269,566,o),
(330,566,cs),
(358,566,o),
(378,558,o),
(378,542,cs),
(378,521,o),
(348,488,o),
(265,440,cs)
);
},
{
closed = 1;
nodes = (
(151,490,o),
(127,508,o),
(104,508,cs),
(88,508,o),
(72,499,o),
(67,477,cs),
(48,390,o),
(28,221,o),
(31,143,cs),
(32,120,o),
(50,109,o),
(69,109,cs),
(93,109,o),
(118,125,o),
(117,155,cs),
(114,211,o),
(128,380,o),
(145,461,cs)
);
},
{
closed = 1;
nodes = (
(453,277,o),
(456,293,o),
(456,303,cs),
(456,311,o),
(454,315,o),
(451,315,cs),
(443,315,o),
(424,287,o),
(410,240,cs),
(391,178,o),
(318,146,o),
(252,146,cs),
(187,146,o),
(127,176,o),
(127,237,cs),
(127,254,o),
(131,273,o),
(142,295,cs),
(146,304,o),
(148,310,o),
(148,314,cs),
(148,316,o),
(147,317,o),
(145,317,cs),
(131,317,o),
(69,251,o),
(46,203,cs),
(35,180,o),
(30,158,o),
(30,136,cs),
(30,55,o),
(102,-10,o),
(189,-10,cs),
(280,-10,o),
(387,60,o),
(446,254,cs)
);
},
{
closed = 1;
nodes = (
(126,-60,o),
(125,-65,o),
(125,-69,cs),
(125,-77,o),
(130,-81,o),
(137,-81,cs),
(158,-81,o),
(201,-52,o),
(213,-18,cs),
(248,71,o),
(341,788,o),
(341,791,cs),
(343,804,o),
(338,809,o),
(329,809,cs),
(306,809,o),
(255,768,o),
(251,735,cs),
(248,711,o),
(160,29,o),
(129,-54,cs)
);
}
);
width = 531;
}
);
metricLeft = b;
metricRight = b;
unicode = 3647;
},
{
glyphname = at;
lastChange = "2024-02-14 17:17:26 +0000";
layers = (
{
layerId = m01;
shapes = (
{
closed = 1;
nodes = (
(349,-12,o),
(489,134,o),
(464,141,cs),
(457,143,o),
(454,149,o),
(454,165,cs),
(454,187,o),
(459,229,o),
(464,310,cs),
(467,349,o),
(475,369,o),
(475,423,cs),
(475,454,o),
(459,508,o),
(411,508,cs),
(380,508,o),
(337,486,o),
(277,420,cs),
(243,383,o),
(227,352,o),
(227,338,cs),
(227,333,o),
(229,330,o),
(233,330,cs),
(242,330,o),
(260,342,o),
(287,372,cs),
(289,375,o),
(329,363,o),
(329,287,cs),
(329,233,o),
(322,217,o),
(320,174,cs),
(315,96,o),
(309,52,o),
(309,27,cs),
(309,5,o),
(313,-2,o),
(326,-5,cs)
);
},
{
closed = 1;
nodes = (
(325,434,o),
(328,443,o),
(328,448,cs),
(328,451,o),
(326,453,o),
(323,453,cs),
(307,453,o),
(255,405,o),
(229,357,cs),
(215,332,o),
(203,299,o),
(198,265,cs),
(188,194,o),
(176,116,o),
(163,13,cs),
(162,0,o),
(166,-5,o),
(174,-5,cs),
(198,-5,o),
(250,42,o),
(255,75,cs),
(268,182,o),
(282,272,o),
(292,347,cs),
(299,399,o),
(311,409,o),
(317,421,cs)
);
},
{
closed = 1;
nodes = (
(61,281,o),
(18,192,o),
(18,162,cs),
(18,156,o),
(20,153,o),
(24,153,cs),
(176,155,o),
(329,157,o),
(481,160,cs),
(498,160,o),
(540,250,o),
(540,279,cs),
(540,285,o),
(539,288,o),
(535,288,cs),
(383,286,o),
(230,284,o),
(78,281,cs)
);
},
{
closed = 1;
nodes = (
(336,-88,o),
(314,-124,o),
(314,-147,cs),
(314,-161,o),
(322,-170,o),
(338,-170,cs),
(351,-170,o),
(369,-164,o),
(393,-149,cs),
(500,-81,o),
(736,137,o),
(770,379,cs),
(772,392,o),
(773,405,o),
(773,419,cs),
(773,554,o),
(685,721,o),
(529,721,cs),
(461,721,o),
(380,690,o),
(288,610,cs),
(59,413,o),
(-1,171,o),
(11,158,cs),
(13,154,o),
(17,153,o),
(22,153,cs),
(56,153,o),
(131,231,o),
(131,267,cs),
(131,272,o),
(130,275,o),
(127,278,cs),
(127,279,o),
(181,418,o),
(258,484,cs),
(323,540,o),
(380,563,o),
(427,563,cs),
(535,563,o),
(591,442,o),
(591,328,cs),
(591,313,o),
(590,297,o),
(588,283,cs),
(560,85,o),
(396,-49,o),
(381,-59,cs)
);
},
{
closed = 1;
nodes = (
(130,24,o),
(124,30,o),
(114,30,cs),
(84,30,o),
(17,-29,o),
(15,-73,cs),
(9,-170,o),
(88,-214,o),
(184,-214,cs),
(260,-214,o),
(347,-186,o),
(407,-135,cs),
(447,-100,o),
(471,-48,o),
(471,-20,cs),
(471,-8,o),
(467,-1,o),
(458,-1,cs),
(450,-1,o),
(438,-7,o),
(421,-21,cs),
(384,-53,o),
(313,-74,o),
(251,-74,cs),
(183,-74,o),
(126,-50,o),
(129,9,cs)
);
}
);
width = 793;
}
);
unicode = 64;
},
{
glyphname = ampersand;
lastChange = "2024-02-14 17:17:26 +0000";
layers = (
{
layerId = m01;
shapes = (
{
closed = 1;
nodes = (
(275,362,o),
(270,353,o),
(270,347,cs),
(270,343,o),
(273,341,o),
(278,341,cs),
(299,341,o),
(365,387,o),
(401.261,438.959,cs),
(454,514,o),
(475,577,o),
(475,623,cs),
(475,682,o),
(441,715,o),
(391,715,cs),
(352,715,o),
(303,696,o),
(253.675,653.202,cs),
(202,609,o),
(173,562,o),
(187,562,cs),
(193,562,o),
(206,570,o),
(228.325,588.798,cs),
(235,594,o),
(245,597,o),
(255,597,cs),
(290,597,o),
(336,569,o),
(336,507,cs),
(336,474,o),
(322,431,o),
(284.739,377.041,cs)
);
},
{
closed = 1;
nodes = (
(248,623,o),
(250,628,o),
(250,630,cs),
(250,632,o),
(250,633,o),
(248,633,cs),
(233,633,o),
(153,561,o),
(126.565,518.69,cs),
(109,491,o),
(100,462,o),
(100,433,cs),
(100,382,o),
(126,330,o),
(175.935,274.763,cs),
(342.457,91.569,o),
(398.071,16.13,o),
(472.164,-14.133,cs),
(488.811,-20.932,o),
(616.449,106.531,o),
(597.836,114.133,cs),
(529.929,141.87,o),
(470.021,206.865,o),
(306.065,387.237,cs),
(258,440,o),
(234,518,o),
(234,570,cs),
(234,589,o),
(237,605,o),
(243.435,615.31,cs)
);
},
{
closed = 1;
nodes = (
(228,334,o),
(247,362,o),
(247,376,cs),
(247,382,o),
(244,385,o),
(237,385,cs),
(224,385,o),
(199,373,o),
(164.33,344.766,cs),
(55,254,o),
(10,167,o),
(10,101,cs),
(10,31,o),
(61,-15,o),
(140,-15,cs),
(246,-15,o),
(400,67,o),
(547.623,281.451,cs),
(561,301,o),
(567,316,o),
(567,325,cs),
(567,332,o),
(563,336,o),
(556,336,cs),
(538,336,o),
(503,312,o),
(472.377,268.549,cs),
(403,167,o),
(324,130,o),
(260,130,cs),
(192,130,o),
(143,172,o),
(143,222,cs),
(143,248,o),
(156,275,o),
(185.67,299.234,cs)
);
},
{
closed = 1;
nodes = (
(460,437,o),
(414,313,o),
(414,277,cs),
(414,271,o),
(415,267,o),
(418.276,267.276,cs),
(473.943,267.609,o),
(529.61,267.942,o),
(585.276,268.276,cs),
(602,268,o),
(649,391,o),
(649,428,cs),
(649,434,o),
(648,438,o),
(644.724,437.724,cs),
(589.057,437.391,o),
(533.39,437.058,o),
(477.724,436.724,cs)
);
}
);
width = 690;
}
);
unicode = 38;
},
{
glyphname = paragraph;
lastChange = "2024-02-14 19:02:43 +0000";
layers = (
{
layerId = m01;
shapes = (
{
closed = 1;
nodes = (
(451,712,o),
(446,716,o),
(440,716,cs),
(419,716,o),
(369,675,o),
(361,641,cs),
(354,612,o),
(311,-1,o),
(311,-2,cs),
(310,-12,o),
(314,-16,o),
(321,-16,cs),
(344,-16,o),
(399,32,o),
(401,64,cs),
(403,95,o),
(451,792,o),
(451,705,cs)
);
},
{
closed = 1;
nodes = (
(324,712,o),
(319,716,o),
(313,716,cs),
(292,716,o),
(242,675,o),
(234,641,cs),
(227,612,o),
(184,-1,o),
(184,-2,cs),
(183,-12,o),
(187,-16,o),
(194,-16,cs),
(217,-16,o),
(272,32,o),
(274,64,cs),
(276,95,o),
(324,792,o),
(324,705,cs)
);
},
{
closed = 1;
nodes = (
(253,594,o),
(320,680,o),
(320,708,cs),
(320,714,o),
(317,717,o),
(311,717,cs),
(308,717,o),
(304,716,o),
(299,714,cs),
(78,629,o),
(-10,510,o),
(-10,413,cs),
(-10,317,o),
(76,242,o),
(205,242,cs),
(248,242,o),
(295,251,o),
(346,269,cs),
(372,279,o),
(405,390,o),
(405,442,cs),
(405,461,o),
(401,473,o),
(390,469,cs),
(302,436,o),
(237,423,o),
(193,423,cs),
(135,423,o),
(111,445,o),
(111,473,cs),
(111,508,o),
(151,555,o),
(213,578,cs)
);
}
);
width = 491;
}
);
metricRight = h;
unicode = 182;
},
{
glyphname = section;
lastChange = "2024-02-14 19:03:03 +0000";
layers = (
{
layerId = m01;
shapes = (
{
closed = 1;
nodes = (
(50,116,o),
(-5,-18,o),
(-5,-62,cs),
(-5,-66,o),
(-5,-69,o),
(-4,-72,cs),
(10,-99,o),
(61,-149,o),
(125,-149,cs),
(169,-149,o),
(218,-126,o),
(265,-59,cs),
(328,31,o),
(351,87,o),
(351,127,cs),
(351,186,o),
(300,206,o),
(248,240,cs),
(158,299,o),
(139,349,o),
(139,379,cs),
(139,392,o),
(142,401,o),
(146,406,cs),
(164,432,o),
(171,451,o),
(171,463,cs),
(171,472,o),
(167,477,o),
(160,477,cs),
(148,477,o),
(126,461,o),
(102,428,cs),
(49,351,o),
(27,294,o),
(27,249,cs),
(27,187,o),
(67,147,o),
(124,110,cs),
(266,17,o),
(246,11,o),
(243,7,cs),
(241,4,o),
(233,2,o),
(221,2,cs),
(180,2,o),
(96,26,o),
(62,94,cs)
);
},
{
closed = 1;
nodes = (
(371,507,o),
(426,647,o),
(426,688,cs),
(426,692,o),
(426,695,o),
(425,697,cs),
(411,724,o),
(359,773,o),
(295,773,cs),
(252,773,o),
(203,751,o),
(156,684,cs),
(93,594,o),
(70,537,o),
(70,497,cs),
(70,438,o),
(121,418,o),
(173,384,cs),
(263,325,o),
(282,275,o),
(282,245,cs),
(282,232,o),
(279,223,o),
(275,218,cs),
(257,193,o),
(250,173,o),
(250,161,cs),
(250,152,o),
(254,147,o),
(261,147,cs),
(273,147,o),
(295,162,o),
(319,196,cs),
(372,273,o),
(394,330,o),
(394,375,cs),
(394,437,o),
(353,477,o),
(297,514,cs),
(155,607,o),
(175,613,o),
(178,618,cs),
(180,621,o),
(188,623,o),
(199,623,cs),
(240,623,o),
(325,600,o),
(359,531,cs)
);
}
);
width = 452;
}
);
metricLeft = s;
metricRight = s;
unicode = 167;
},
{
glyphname = copyright;
lastChange = "2024-02-14 17:17:26 +0000";
layers = (
{
layerId = m01;
shapes = (
{
closed = 1;
nodes = (
(475,465,o),
(495,504,o),
(495,523,cs),
(495,530,o),
(492,534,o),
(486,534,cs),
(476,534,o),
(460,524,o),
(435,501,cs),
(311,381,o),
(263,273,o),
(263,191,cs),
(263,94,o),
(329,34,o),
(419,34,cs),
(470,34,o),
(529,54,o),
(587,98,cs),
(631,132,o),
(679,220,o),
(679,251,cs),
(679,258,o),
(677,262,o),
(671,262,cs),
(666,262,o),
(658,258,o),
(647,250,cs),
(594,209,o),
(550,193,o),
(516,193,cs),
(440,193,o),
(405,269,o),
(405,338,cs),
(405,374,o),
(415,409,o),
(435,427,cs)
);
},
{
closed = 1;
nodes = (
(587,368,o),
(715,496,o),
(708,515,cs),
(697,551,o),
(653,596,o),
(593,596,cs),
(566,596,o),
(536,587,o),
(505,564,cs),
(461,533,o),
(389,423,o),
(410,423,cs),
(414,423,o),
(419,426,o),
(427,432,cs),
(448,446,o),
(469,452,o),
(490,452,cs),
(531,452,o),
(568,426,o),
(580,391,cs)
);
},
{
closed = 1;
nodes = (
(527,665,o),
(544,696,o),
(544,716,cs),
(544,731,o),
(535,740,o),
(519,740,cs),
(503,740,o),
(482,732,o),
(455,712,cs),
(300,599,o),
(52,347,o),
(14,147,cs),
(11,133,o),
(10,117,o),
(10,101,cs),
(10,-25,o),
(97,-194,o),
(301,-194,cs),
(368,-194,o),
(448,-175,o),
(542,-131,cs),
(584,-111,o),
(631,-32,o),
(631,2,cs),
(631,11,o),
(628,17,o),
(619,17,cs),
(614,17,o),
(609,16,o),
(602,13,cs),
(515,-28,o),
(445,-45,o),
(388,-45,cs),
(231,-45,o),
(179,84,o),
(179,189,cs),
(179,207,o),
(181,225,o),
(184,241,cs),
(213,397,o),
(390,565,o),
(487,636,cs)
);
},
{
closed = 1;
nodes = (
(518,-54,o),
(501,-85,o),
(501,-105,cs),
(501,-120,o),
(510,-129,o),
(526,-129,cs),
(542,-129,o),
(563,-121,o),
(590,-101,cs),
(745,12,o),
(957,227,o),
(1017,475,cs),
(1021,491,o),
(1023,509,o),
(1023,527,cs),
(1023,651,o),
(926,800,o),
(734,800,cs),
(664,800,o),
(580,780,o),
(484,731,cs),
(443,710,o),
(397,632,o),
(397,598,cs),
(397,589,o),
(400,583,o),
(409,583,cs),
(414,583,o),
(420,585,o),
(428,589,cs),
(512,631,o),
(581,649,o),
(637,649,cs),
(783,649,o),
(841,531,o),
(841,434,cs),
(841,416,o),
(839,399,o),
(835,383,cs),
(781,161,o),
(655,46,o),
(558,-25,cs)
);
}
);
width = 1043;
}
);
unicode = 169;
},
{
glyphname = registered;
lastChange = "2024-02-14 19:01:36 +0000";
layers = (
{
background = {
shapes = (
{
closed = 1;
nodes = (
(412,190,o),
(615,327,o),
(671,507,cs,{
"Letterink-NibData" = {
AngleInDegrees = -9;
MainAxisWidth = 155;
MinorAxisWidth = 43;
ValidForParentMainAxisWidth = 30;
ValidForParentMinorAxisWidth = 15;
};
}),
(723,676,o),
(601,823,o),
(434,786,cs,{
"Letterink-NibData" = {
MainAxisWidth = 155;
MinorAxisWidth = 46;
ValidForParentMainAxisWidth = 30;
ValidForParentMinorAxisWidth = 15;
};
}),
(271,753,o),
(122,549,o),
(76,455,cs,{
"Letterink-NibData" = {
AngleInDegrees = -10;
MainAxisWidth = 155;
MinorAxisWidth = 43;
ValidForParentMainAxisWidth = 30;
ValidForParentMinorAxisWidth = 15;
};
}),
(-3,296,o),
(126,153,o),
(295,174,cs,{
"Letterink-NibData" = {
MainAxisWidth = 163;
MinorAxisWidth = 60;
ValidForParentMainAxisWidth = 30;
ValidForParentMinorAxisWidth = 15;
};
})
);
}
);
};
layerId = m01;
shapes = (
{
closed = 1;
nodes = (
(342,551,o),
(343,557,o),
(343,562,cs),
(343,570,o),
(337,574,o),
(328,574,cs),
(310,574,o),
(281,558,o),
(266,530,cs),
(236,472,o),
(230,396,o),
(230,348,cs),
(230,324,o),
(232,308,o),
(232,305,cs),
(233,296,o),
(238,293,o),
(246,293,cs),
(273,293,o),
(330,336,o),
(330,365,cs),
(330,357,o),
(325,406,o),
(325,458,cs),
(325,491,o),
(327,524,o),
(338,544,cs)
);
},
{
closed = 1;
nodes = (
(329,481,o),
(315,455,o),
(315,440,cs),
(315,433,o),
(318,428,o),
(325,428,cs),
(333,428,o),
(344,433,o),
(359,445,cs),
(447,514,o),
(479,569,o),
(479,605,cs),
(479,637,o),
(453,655,o),
(419,655,cs),
(364,655,o),
(284,609,o),
(253,503,cs),
(252,499,o),
(251,496,o),
(251,493,cs),
(251,482,o),
(258,477,o),
(268,477,cs),
(289,477,o),
(324,499,o),
(333,529,cs),
(341,556,o),
(355,566,o),
(366,566,cs),
(376,566,o),
(384,558,o),
(384,546,cs),
(384,535,o),
(377,519,o),
(357,503,cs)
);
},
{
closed = 1;
nodes = (
(257,445,o),
(248,420,o),
(248,402,cs),
(248,389,o),
(253,380,o),
(261,380,cs),
(266,380,o),
(273,383,o),
(281,392,cs),
(305,416,o),
(330,428,o),
(350,428,cs),
(372,428,o),
(388,412,o),
(388,383,cs),
(388,367,o),
(384,349,o),
(375,327,cs),
(372,321,o),
(371,316,o),
(371,312,cs),
(371,302,o),
(379,297,o),
(391,297,cs),
(417,297,o),
(460,320,o),
(473,351,cs),
(485,379,o),
(490,404,o),
(490,425,cs),
(490,486,o),
(447,517,o),
(394,517,cs),
(354,517,o),
(308,499,o),
(273,462,cs)
);
},
{
closed = 1;
nodes = (
(395,724,o),
(409,749,o),
(409,766,cs),
(409,778,o),
(402,785,o),
(389,785,cs),
(376,785,o),
(358,778,o),
(335,762,cs),
(224,682,o),
(39,507,o),
(12,342,cs),
(11,331,o),
(10,321,o),
(10,310,cs),
(10,219,o),
(74,128,o),
(225,128,cs),
(276,128,o),
(336,138,o),
(407,162,cs),
(444,174,o),
(475,223,o),
(475,250,cs),
(475,261,o),
(469,269,o),
(457,269,cs),
(453,269,o),
(448,268,o),
(443,266,cs),
(384,247,o),
(337,239,o),
(298,239,cs),
(187,239,o),
(151,307,o),
(151,377,cs),
(151,389,o),
(152,401,o),
(154,412,cs),
(175,543,o),
(290,648,o),
(361,700,cs)
);
},
{
closed = 1;
nodes = (
(371,214,o),
(357,189,o),
(357,172,cs),
(357,160,o),
(364,153,o),
(377,153,cs),
(390,153,o),
(408,160,o),
(431,176,cs),
(548,261,o),
(709,428,o),
(736,589,cs),
(737,598,o),
(738,608,o),
(738,618,cs),
(738,710,o),
(671,813,o),
(527,813,cs),
(478,813,o),
(421,802,o),
(354,774,cs),
(319,758,o),
(292,713,o),
(292,687,cs),
(292,675,o),
(297,668,o),
(308,668,cs),
(314,668,o),
(320,669,o),
(328,672,cs),
(378,694,o),
(420,703,o),
(455,703,cs),
(557,703,o),
(597,626,o),
(597,552,cs),
(597,541,o),
(596,530,o),
(594,519,cs),
(573,384,o),
(470,285,o),
(405,238,cs)
);
}
);
width = 759;
}
);
metricLeft = o;
metricRight = o;
unicode = 174;
},
{
glyphname = trademark;
lastChange = "2024-02-14 17:17:26 +0000";
layers = (
{
layerId = m01;
shapes = (
{
closed = 1;
nodes = (
(323,573,o),
(359,651,o),
(359,689,cs),
(359,702,o),
(355,710,o),
(345,709,cs),
(328,706,o),
(308,706,o),
(285,706,cs),
(245,706,o),
(197,708,o),
(156,708,cs),
(121,708,o),
(91,706,o),
(74,700,cs),
(58,694,o),
(30,605,o),
(30,570,cs),
(30,560,o),
(32,554,o),
(38,556,cs),
(76,571,o),
(222,559,o),
(297,569,cs)
);
},
{
closed = 1;
nodes = (
(222,632,o),
(114,528,o),
(124,511,cs),
(130,499,o),
(104,383,o),
(104,311,cs),
(104,292,o),
(106,276,o),
(110,266,cs),
(119,246,o),
(226,350,o),
(218,370,cs),
(214,377,o),
(213,389,o),
(213,403,cs),
(213,459,o),
(235,558,o),
(235,598,cs),
(235,605,o),
(234,611,o),
(232,613,cs)
);
},
{
closed = 1;
nodes = (
(477,717,o),
(370,611,o),
(389,600,cs),
(426,579,o),
(471,370,o),
(478,268,cs),
(480,240,o),
(588,344,o),
(586,368,cs),
(579,474,o),
(538,683,o),
(493,708,cs)
);
},
{
closed = 1;
nodes = (
(299,277,o),
(298,273,o),
(298,270,cs),
(298,262,o),
(303,258,o),
(310,258,cs),
(333,258,o),
(384,297,o),
(396,335,cs),
(438,470,o),
(459,661,o),
(459,663,cs),
(460,669,o),
(458,672,o),
(453,672,cs),
(434,672,o),
(371,614,o),
(367,587,cs),
(366,579,o),
(340,409,o),
(300,281,cs)
);
},
{
closed = 1;
nodes = (
(489,326,o),
(487,320,o),
(487,317,cs),
(487,314,o),
(489,312,o),
(492,312,cs),
(509,312,o),
(562,346,o),
(587,380,cs),
(646,461,o),
(703,669,o),
(704,675,cs),
(707,681,o),
(705,684,o),
(701,684,cs),
(683,684,o),
(605,612,o),
(596,581,cs),
(593,573,o),
(534,386,o),
(495,334,cs)
);
},
{
closed = 1;
nodes = (
(697,706,o),
(590,598,o),
(620,598,cs),
(626,598,o),
(617,329,o),
(653,265,cs),
(664,247,o),
(771,351,o),
(761,369,cs),
(723,435,o),
(740,706,o),
(720,706,cs)
);
}
);
width = 820;
}
);
unicode = 8482;
},
{
glyphname = degree;
lastChange = "2024-02-14 17:17:26 +0000";
layers = (
{
layerId = m01;
shapes = (
{
closed = 1;
nodes = (
(210,625,o),
(220,646,o),
(220,658,cs),
(220,665,o),
(216,669,o),
(209,669,cs),
(194,669,o),
(163,648,o),
(130,607,cs),
(72,534,o),
(50,473,o),
(50,427,cs),
(50,362,o),
(93,326,o),
(143,326,cs),
(162,326,o),
(183,332,o),
(203,343,cs),
(240,364,o),
(290,452,o),
(290,483,cs),
(290,490,o),
(288,494,o),
(282,494,cs),
(279,494,o),
(274,492,o),
(269,489,cs),
(252,479,o),
(238,475,o),
(227,475,cs),
(189,475,o),
(177,518,o),
(177,553,cs),
(177,572,o),
(181,589,o),
(186,595,cs)
);
},
{
closed = 1;
nodes = (
(216,446,o),
(199,402,o),
(199,379,cs),
(199,369,o),
(202,363,o),
(209,363,cs),
(217,363,o),
(229,371,o),
(247,391,cs),
(347,500,o),
(382,579,o),
(382,631,cs),
(382,688,o),
(340,714,o),
(294,714,cs),
(266,714,o),
(237,705,o),
(214,688,cs),
(172,659,o),
(121,585,o),
(121,563,cs),
(121,558,o),
(123,556,o),
(127,556,cs),
(131,556,o),
(139,560,o),
(150,568,cs),
(169,581,o),
(184,587,o),
(197,587,cs),
(241,587,o),
(250,520,o),
(250,492,cs),
(250,486,o),
(249,482,o),
(249,481,cs)
);
}
);
width = 433;
}
);
unicode = 176;
},
{
glyphname = bar;
lastChange = "2024-02-14 17:17:26 +0000";
layers = (
{
layerId = m01;
shapes = (
{
closed = 1;
nodes = (
(243,764,o),
(238,770,o),
(230,770,cs),
(196,770,o),
(100,685,o),
(94,636,cs),
(93,624,o),
(50,3,o),
(50,2,cs),
(49,-9,o),
(54,-14,o),
(62,-14,cs),
(96,-14,o),
(195,77,o),
(198,122,cs),
(199,131,o),
(240,735,o),
(242,752,cs)
);
}
);
width = 286;
}
);
unicode = 124;
},
{
glyphname = brokenbar;
lastChange = "2024-02-14 19:04:40 +0000";
layers = (
{
layerId = m01;
shapes = (
{
closed = 1;
nodes = (
(200,704,o),
(197,707,o),
(192,707,cs),
(162,707,o),
(60,622,o),
(58,591,cs),
(52,481,o),
(45,355,o),
(45,350,cs),
(43,320,o),
(186,454,o),
(187,486,cs),
(188,490,o),
(194,588,o),
(200,697,cs)
);
},
{
closed = 1;
nodes = (
(184,364,o),
(181,367,o),
(177,367,cs),
(148,367,o),
(46,266,o),
(46,234,cs),
(46,228,o),
(40,-20,o),
(40,3,cs),
(40,-4,o),
(42,-6,o),
(47,-6,cs),
(70,-6,o),
(139,59,o),
(142,89,cs),
(143,95,o),
(184,346,o),
(184,358,cs)
);
}
);
width = 230;
}
);
unicode = 166;
},
{
glyphname = dagger;
lastChange = "2024-02-14 19:02:52 +0000";
layers = (
{
layerId = m01;
shapes = (
{
closed = 1;
nodes = (
(70,601,o),
(30,495,o),
(30,461,cs),
(30,454,o),
(31,451,o),
(35,451,cs),
(142,451,o),
(249,451,o),
(356,452,cs),
(372,452,o),
(413,558,o),
(413,592,cs),
(413,598,o),
(412,602,o),
(408,602,cs),
(301,602,o),
(194,602,o),
(87,601,cs)
);
},
{
closed = 1;
nodes = (
(282,528,o),
(277,532,o),
(271,532,cs),
(237,532,o),
(134,437,o),
(134,395,cs),
(134,385,o),
(136,-25,o),
(136,10,cs),
(136,2,o),
(140,-1,o),
(146,-1,cs),
(169,-1,o),
(224,46,o),
(226,76,cs),
(227,85,o),
(282,503,o),
(282,519,cs)
);
},
{
pos = (130,578);
ref = period;
}
);
width = 453;
}
);
unicode = 8224;
},
{
glyphname = daggerdbl;
lastChange = "2024-02-14 19:02:56 +0000";
layers = (
{
layerId = m01;
shapes = (
{
closed = 1;
nodes = (
(70,296,o),
(30,190,o),
(30,156,cs),
(30,149,o),
(31,146,o),
(35,146,cs),
(142,146,o),
(249,146,o),
(356,147,cs),
(372,147,o),
(413,253,o),
(413,287,cs),
(413,293,o),
(412,297,o),
(408,297,cs),
(301,297,o),
(194,297,o),
(87,296,cs)
);
},
{
pos = (25,0);
ref = dagger;
}
);
width = 478;
}
);
unicode = 8225;
},
{
glyphname = cent;
lastChange = "2024-02-14 19:04:48 +0000";
layers = (
{
layerId = m01;
shapes = (
{
closed = 1;
nodes = (
(242,498,o),
(262,537,o),
(262,556,cs),
(262,563,o),
(259,567,o),
(253,567,cs),
(243,567,o),
(227,557,o),
(202,534,cs),
(78,414,o),
(30,306,o),
(30,224,cs),
(30,127,o),
(96,67,o),
(186,67,cs),
(237,67,o),
(296,87,o),
(354,131,cs),
(398,165,o),
(446,253,o),
(446,284,cs),
(446,291,o),
(444,295,o),
(438,295,cs),
(433,295,o),
(425,291,o),
(414,283,cs),
(361,242,o),
(317,226,o),
(283,226,cs),
(207,226,o),
(172,302,o),
(172,371,cs),
(172,407,o),
(182,442,o),
(202,460,cs)
);
},
{
closed = 1;
nodes = (
(371,408,o),
(499,536,o),
(492,555,cs),
(481,591,o),
(437,636,o),
(377,636,cs),
(350,636,o),
(320,627,o),
(289,604,cs),
(245,573,o),
(173,463,o),
(194,463,cs),
(198,463,o),
(203,466,o),
(211,472,cs),
(232,486,o),
(253,492,o),
(274,492,cs),
(315,492,o),
(352,466,o),
(364,431,cs)
);
},
{
closed = 1;
nodes = (
(148,-36,o),
(147,-41,o),
(147,-45,cs),
(147,-53,o),
(152,-57,o),
(160,-57,cs),
(181,-57,o),
(221,-29,o),
(235,5,cs),
(267,85,o),
(376,724,o),
(377,727,cs),
(379,740,o),
(374,746,o),
(365,746,cs),
(342,746,o),
(293,707,o),
(287,673,cs),
(283,651,o),
(180,45,o),
(151,-29,cs)
);
}
);
width = 502;
}
);
metricLeft = c;
metricRight = c;
unicode = 162;
},
{
glyphname = currency;
lastChange = "2024-02-14 17:17:26 +0000";
layers = (
{
layerId = m01;
shapes = (
{
closed = 1;
nodes = (
(260,439,o),
(269,460,o),
(269,473,cs),
(269,480,o),
(266,484,o),
(259,484,cs),
(244,484,o),
(213,464,o),
(181,423,cs),
(118,344,o),
(93,277,o),
(93,225,cs),
(93,154,o),
(140,113,o),
(196,113,cs),
(218,113,o),
(242,119,o),
(264,132,cs),
(301,153,o),
(351,241,o),
(351,272,cs),
(351,279,o),
(349,283,o),
(343,283,cs),
(340,283,o),
(335,281,o),
(330,278,cs),
(310,266,o),
(294,262,o),
(281,262,cs),
(238,262,o),
(221,309,o),
(221,351,cs),
(221,375,o),
(226,398,o),
(235,409,cs)
);
},
{
closed = 1;
nodes = (
(279,236,o),
(261,194,o),
(261,171,cs),
(261,161,o),
(265,155,o),
(272,155,cs),
(280,155,o),
(293,163,o),
(311,183,cs),
(417,299,o),
(454,384,o),
(454,441,cs),
(454,505,o),
(408,535,o),
(355,535,cs),
(325,535,o),
(293,526,o),
(267,507,cs),
(225,478,o),
(174,404,o),
(174,382,cs),
(174,377,o),
(176,375,o),
(180,375,cs),
(184,375,o),
(192,379,o),
(203,387,cs),
(226,402,o),
(244,409,o),
(260,409,cs),
(304,409,o),
(319,353,o),
(319,312,cs),
(319,293,o),
(316,277,o),
(311,271,cs)
);
},
{
closed = 1;
nodes = (
(375,61,o),
(379,60,o),
(384,60,cs),
(419,60,o),
(496,137,o),
(496,174,cs),
(496,178,o),
(495,182,o),
(492,185,cs),
(459,227,o),
(433,252,o),
(401,293,cs),
(397,297,o),
(392,299,o),
(385,299,cs),
(345,299,o),
(256,240,o),
(256,208,cs),
(256,205,o),
(257,202,o),
(259,199,cs),
(299,150,o),
(333,113,o),
(372,65,cs)
);
},
{
closed = 1;
nodes = (
(229,216,o),
(242,242,o),
(242,259,cs),
(242,271,o),
(235,278,o),
(223,278,cs),
(208,278,o),
(185,266,o),
(157,239,cs),
(145,227,o),
(70,130,o),
(70,130,cs),
(52,107,o),
(44,89,o),
(44,77,cs),
(44,66,o),
(52,60,o),
(63,60,cs),
(84,60,o),
(119,79,o),
(150,120,cs),
(154,125,o),
(199,185,o),
(199,185,cs)
);
},
{
closed = 1;
nodes = (
(499,552,o),
(512,578,o),
(512,595,cs),
(512,607,o),
(505,614,o),
(493,614,cs),
(478,614,o),
(455,602,o),
(427,575,cs),
(418,566,o),
(341,468,o),
(341,468,cs),
(323,445,o),
(315,426,o),
(315,414,cs),
(315,402,o),
(322,396,o),
(334,396,cs),
(354,396,o),
(387,415,o),
(419,456,cs),
(423,461,o),
(469,521,o),
(469,521,cs)
);
},
{
closed = 1;
nodes = (
(160,329,o),
(279,450,o),
(264,469,cs),
(229,514,o),
(190,565,o),
(154,609,cs),
(151,612,o),
(147,614,o),
(142,614,cs),
(108,614,o),
(30,538,o),
(30,501,cs),
(30,496,o),
(31,492,o),
(34,489,cs),
(70,443,o),
(107,394,o),
(144,349,cs)
);
}
);
width = 621;
}
);
unicode = 164;
},
{
glyphname = dollar;
lastChange = "2024-02-14 17:17:26 +0000";
layers = (
{
layerId = m01;
shapes = (
{
closed = 1;
nodes = (
(55,268,o),
(0,134,o),
(0,90,cs),
(0,86,o),
(0,83,o),
(1,80,cs),
(19,45,o),
(80,-8,o),
(152,-8,cs),
(202,-8,o),
(257,16,o),
(307,88,cs),
(367,172,o),
(391,234,o),
(391,281,cs),
(391,354,o),
(336,395,o),
(270,436,cs),
(254,447,o),
(168,289,o),
(186,278,cs),
(278,219,o),
(296,186,o),
(296,168,cs),
(296,158,o),
(290,153,o),
(289,150,cs),
(284,144,o),
(271,141,o),
(253,141,cs),
(200,141,o),
(104,172,o),
(67,246,cs)
);
},
{
closed = 1;
nodes = (
(84,-58,o),
(83,-63,o),
(83,-67,cs),
(83,-75,o),
(88,-78,o),
(96,-78,cs),
(118,-78,o),
(161,-52,o),
(175,-21,cs),
(186,2,o),
(193,34,o),
(205,84,cs),
(208,98,o),
(208,112,o),
(208,126,cs),
(208,136,o),
(208,146,o),
(210,155,cs),
(243,298,o),
(284,507,o),
(308,648,cs),
(310,660,o),
(319,666,o),
(321,674,cs),
(334,747,o),
(342,787,o),
(343,788,cs),
(346,803,o),
(340,809,o),
(331,809,cs),
(308,809,o),
(260,772,o),
(253,738,cs),
(253,736,o),
(244,692,o),
(231,622,cs),
(230,618,o),
(230,613,o),
(230,609,cs),
(230,601,o),
(231,593,o),
(231,586,cs),
(231,582,o),
(230,578,o),
(230,574,cs),
(206,432,o),
(165,225,o),
(132,81,cs),
(128,63,o),
(114,51,o),
(111,38,cs),
(100,-9,o),
(88,-48,o),
(87,-51,cs)
);
},
{
closed = 1;
nodes = (
(186,248,o),
(271,406,o),
(254,417,cs),
(162,478,o),
(144,516,o),
(144,537,cs),
(144,548,o),
(150,554,o),
(150,555,cs),
(156,562,o),
(166,566,o),
(179,566,cs),
(228,566,o),
(323,517,o),
(359,450,cs),
(371,427,o),
(434,596,o),
(423,616,cs),
(407,647,o),
(345,712,o),
(272,712,cs),
(230,712,o),
(183,690,o),
(140,629,cs),
(80,545,o),
(56,480,o),
(56,427,cs),
(56,349,o),
(108,299,o),
(170,259,cs)
);
}
);
width = 455;
}
);
unicode = 36;
},
{
glyphname = euro;
lastChange = "2024-02-14 19:01:27 +0000";
layers = (
{
layerId = m01;
shapes = (
{
closed = 1;
nodes = (
(311,579,o),
(318,596,o),
(318,606,cs),
(318,613,o),
(315,616,o),
(309,616,cs),
(291,616,o),
(253,589,o),
(220,543,cs),
(128,416,o),
(90,292,o),
(90,193,cs),
(90,67,o),
(152,-19,o),
(246,-19,cs),
(295,-19,o),
(352,4,o),
(413,56,cs),
(458,95,o),
(500,175,o),
(500,205,cs),
(500,212,o),
(497,216,o),
(492,216,cs),
(486,216,o),
(476,211,o),
(463,200,cs),
(418,162,o),
(378,145,o),
(343,145,cs),
(266,145,o),
(219,228,o),
(219,331,cs),
(219,402,o),
(242,483,o),
(292,553,cs)
);
},
{
closed = 1;
nodes = (
(426,484,o),
(553,611,o),
(543,628,cs),
(528,652,o),
(500,713,o),
(441,713,cs),
(413,713,o),
(378,699,o),
(335,662,cs),
(287,621,o),
(230,527,o),
(249,527,cs),
(253,527,o),
(261,531,o),
(273,542,cs),
(295,560,o),
(314,568,o),
(331,568,cs),
(368,568,o),
(395,534,o),
(415,502,cs)
);
},
{
closed = 1;
nodes = (
(89,451,o),
(55,409,o),
(55,387,cs),
(55,379,o),
(60,373,o),
(71,373,cs),
(72,373,o),
(72,373,o),
(73,374,cs),
(131,377,o),
(408,376,o),
(427,376,cs),
(455,377,o),
(490,419,o),
(490,442,cs),
(490,450,o),
(485,456,o),
(475,456,cs),
(474,456,o),
(474,456,o),
(473,456,cs),
(473,456,o),
(158,455,o),
(117,452,cs)
);
},
{
closed = 1;
nodes = (
(49,312,o),
(15,270,o),
(15,248,cs),
(15,240,o),
(20,234,o),
(31,234,cs),
(32,234,o),
(32,234,o),
(33,235,cs),
(91,238,o),
(368,237,o),
(387,237,cs),
(415,238,o),
(450,280,o),
(450,303,cs),
(450,311,o),
(445,317,o),
(435,317,cs),
(434,317,o),
(434,317,o),
(433,317,cs),
(433,317,o),
(118,316,o),
(77,313,cs)
);
}
);
width = 594;
}
);
metricLeft = e;
metricRight = e;
unicode = 8364;
},
{
glyphname = hryvnia;
lastChange = "2024-02-14 17:17:26 +0000";
layers = (
{
layerId = m01;
shapes = (
{
closed = 1;
nodes = (
(323,280,o),
(335,296,o),
(335,306,cs),
(335,315,o),
(326,320,o),
(312,320,cs),
(289,320,o),
(253,308,o),
(214,280,cs),
(95,194,o),
(52,123,o),
(52,73,cs),
(52,16,o),
(107,-15,o),
(167,-15,cs),
(207,-15,o),
(249,-1,o),
(281,27,cs),
(320,62,o),
(354,129,o),
(354,155,cs),
(354,161,o),
(352,165,o),
(347,165,cs),
(341,165,o),
(332,161,o),
(319,149,cs),
(302,133,o),
(275,124,o),
(252,124,cs),
(227,124,o),
(207,134,o),
(207,155,cs),
(207,178,o),
(230,212,o),
(296,260,cs)
);
},
{
closed = 1;
nodes = (
(91,452,o),
(57,410,o),
(57,388,cs),
(57,379,o),
(62,374,o),
(73,374,cs),
(73,374,o),
(74,374,o),
(75,375,cs),
(117,377,o),
(347,377,o),
(356,377,cs),
(384,378,o),
(419,420,o),
(419,443,cs),
(419,451,o),
(414,457,o),
(404,457,cs),
(403,457,o),
(403,457,o),
(402,457,cs),
(402,457,o),
(158,456,o),
(119,453,cs)
);
},
{
closed = 1;
nodes = (
(54,316,o),
(20,274,o),
(20,252,cs),
(20,243,o),
(25,238,o),
(36,238,cs),
(36,238,o),
(37,238,o),
(38,239,cs),
(78,241,o),
(311,241,o),
(320,241,cs),
(348,242,o),
(383,284,o),
(383,307,cs),
(383,315,o),
(378,321,o),
(368,321,cs),
(367,321,o),
(367,321,o),
(366,321,cs),
(366,321,o),
(120,320,o),
(82,317,cs)
);
},
{
closed = 1;
nodes = (
(130,416,o),
(119,401,o),
(119,390,cs),
(119,381,o),
(128,376,o),
(142,376,cs),
(165,376,o),
(202,388,o),
(240,416,cs),
(360,503,o),
(404,574,o),
(404,625,cs),
(404,682,o),
(349,713,o),
(288,713,cs),
(249,713,o),
(207,700,o),
(175,673,cs),
(136,638,o),
(101,569,o),
(101,543,cs),
(101,537,o),
(103,533,o),
(108,533,cs),
(113,533,o),
(122,538,o),
(135,549,cs),
(154,566,o),
(180,575,o),
(203,575,cs),
(228,575,o),
(248,564,o),
(248,543,cs),
(248,520,o),
(225,484,o),
(158,436,cs)
);
}
);
width = 449;
}
);
unicode = 8372;
},
{
glyphname = ruble;
lastChange = "2024-02-14 17:17:26 +0000";
layers = (
{
layerId = m01;
shapes = (
{
closed = 1;
nodes = (
(33,203,o),
(0,162,o),
(0,140,cs),
(0,132,o),
(4,126,o),
(15,126,cs),
(16,126,o),
(17,126,o),
(19,127,cs),
(46,129,o),
(270,129,o),
(278,129,cs),
(306,130,o),
(341,172,o),
(341,195,cs),
(341,203,o),
(336,209,o),
(326,209,cs),
(325,209,o),
(325,209,o),
(324,209,cs),
(324,209,o),
(89,208,o),
(61,205,cs)
);
},
{
closed = 1;
nodes = (
(74,331,o),
(41,289,o),
(41,268,cs),
(41,260,o),
(46,254,o),
(56,254,cs),
(57,254,o),
(58,254,o),
(60,255,cs),
(65,255,o),
(83,255,o),
(107,255,cs),
(173,255,o),
(281,254,o),
(283,254,cs),
(312,254,o),
(340,294,o),
(340,320,cs),
(340,331,o),
(334,340,o),
(319,340,cs),
(309,340,o),
(134,337,o),
(102,333,cs)
);
},
{
closed = 1;
nodes = (
(347,676,o),
(352,684,o),
(352,689,cs),
(352,692,o),
(349,694,o),
(345,694,cs),
(324,694,o),
(257,654,o),
(220,610,cs),
(125,500,o),
(113,223,o),
(113,85,cs),
(113,37,o),
(114,6,o),
(114,3,cs),
(114,-4,o),
(118,-7,o),
(124,-7,cs),
(157,-7,o),
(256,75,o),
(256,107,cs),
(256,126,o),
(258,572,o),
(336,664,cs)
);
},
{
closed = 1;
nodes = (
(270,321,o),
(260,300,o),
(260,284,cs),
(260,267,o),
(270,255,o),
(286,255,cs),
(295,255,o),
(306,259,o),
(319,268,cs),
(376,306,o),
(532,435,o),
(532,568,cs),
(532,624,o),
(492,716,o),
(404,716,cs),
(398,716,o),
(392,716,o),
(386,715,cs),
(344,709,o),
(227,633,o),
(227,612,cs),
(227,609,o),
(229,607,o),
(236,607,cs),
(238,607,o),
(240,607,o),
(242,607,cs),
(247,608,o),
(253,608,o),
(259,608,cs),
(344,608,o),
(375,519,o),
(374,490,cs),
(371,406,o),
(341,368,o),
(293,336,cs)
);
}
);
width = 520;
}
);
unicode = 8381;
},
{
glyphname = rupeeIndian;
lastChange = "2024-02-14 18:38:37 +0000";
layers = (
{
layerId = m01;
shapes = (
{
closed = 1;
nodes = (
(108,382,o),
(52,332,o),
(52,311,cs),
(52,304,o),
(57,300,o),
(68,300,cs),
(74,300,o),
(84,301,o),
(96,305,cs),
(113,310,o),
(130,313,o),
(147,313,cs),
(203,313,o),
(250,282,o),
(250,201,cs),
(250,161,o),
(239,108,o),
(211,41,cs),
(207,30,o),
(205,22,o),
(205,16,cs),
(205,5,o),
(210,0,o),
(220,0,cs),
(254,0,o),
(333,60,o),
(357,117,cs),
(393,204,o),
(409,269,o),
(409,316,cs),
(409,391,o),
(368,422,o),
(298,422,cs),
(262,422,o),
(217,414,o),
(166,399,cs)
);
},
{
closed = 1;
nodes = (
(66,342,o),
(56,327,o),
(56,318,cs),
(56,309,o),
(65,304,o),
(79,304,cs),
(103,304,o),
(143,318,o),
(182,347,cs),
(331,462,o),
(387,555,o),
(387,619,cs),
(387,681,o),
(335,715,o),
(264,715,cs),
(212,715,o),
(150,697,o),
(91,656,cs),
(60,635,o),
(45,612,o),
(45,599,cs),
(45,591,o),
(50,586,o),
(59,586,cs),
(69,586,o),
(84,592,o),
(105,606,cs),
(119,615,o),
(138,620,o),
(158,620,cs),
(199,620,o),
(242,599,o),
(242,554,cs),
(242,511,o),
(204,448,o),
(90,361,cs)
);
},
{
closed = 1;
nodes = (
(235,712,o),
(202,671,o),
(202,649,cs),
(202,641,o),
(207,635,o),
(217,635,cs),
(218,635,o),
(219,635,o),
(221,636,cs),
(245,638,o),
(399,638,o),
(405,638,cs),
(433,639,o),
(468,681,o),
(468,704,cs),
(468,712,o),
(463,718,o),
(453,718,cs),
(452,718,o),
(452,718,o),
(451,718,cs),
(451,718,o),
(288,717,o),
(263,714,cs)
);
},
{
closed = 1;
nodes = (
(54,544,o),
(20,502,o),
(20,480,cs),
(20,471,o),
(25,467,o),
(36,467,cs),
(37,467,o),
(38,467,o),
(38,467,cs),
(83,470,o),
(348,469,o),
(365,469,cs),
(393,470,o),
(428,512,o),
(428,535,cs),
(428,543,o),
(423,549,o),
(413,549,cs),
(412,549,o),
(412,549,o),
(411,549,cs),
(411,549,o),
(115,548,o),
(82,545,cs)
);
}
);
width = 483;
}
);
unicode = 8377;
},
{
glyphname = sheqel;
lastChange = "2024-02-14 19:01:56 +0000";
layers = (
{
layerId = m01;
shapes = (
{
closed = 1;
nodes = (
(220,711,o),
(214,716,o),
(205,716,cs),
(172,716,o),
(93,646,o),
(90,601,cs),
(88,572,o),
(60,4,o),
(60,4,cs),
(59,-11,o),
(65,-17,o),
(75,-17,cs),
(110,-17,o),
(188,53,o),
(190,100,cs),
(191,115,o),
(220,690,o),
(220,698,cs)
);
},
{
closed = 1;
nodes = (
(166,715,o),
(93,635,o),
(93,598,cs),
(93,587,o),
(100,581,o),
(119,581,cs),
(184,581,o),
(249,583,o),
(315,583,cs),
(360,583,o),
(396,554,o),
(394,516,cs),
(387,400,o),
(386,285,o),
(381,172,cs),
(381,168,o),
(383,166,o),
(386,166,cs),
(409,166,o),
(506,259,o),
(507,288,cs),
(512,398,o),
(519,505,o),
(526,612,cs),
(531,686,o),
(498,715,o),
(417,715,cs),
(398,715,o),
(378,715,o),
(359,715,cs),
(309,715,o),
(258,715,o),
(208,715,cs)
);
},
{
closed = 1;
nodes = (
(220,711,o),
(214,716,o),
(205,716,cs),
(172,716,o),
(93,646,o),
(90,601,cs),
(88,572,o),
(60,4,o),
(60,4,cs),
(59,-11,o),
(65,-17,o),
(75,-17,cs),
(110,-17,o),
(188,53,o),
(190,100,cs),
(191,115,o),
(220,690,o),
(220,698,cs)
);
},
{
closed = 1;
nodes = (
(166,715,o),
(93,635,o),
(93,598,cs),
(93,587,o),
(100,581,o),
(119,581,cs),
(184,581,o),
(249,583,o),
(315,583,cs),
(360,583,o),
(396,554,o),
(394,516,cs),
(387,400,o),
(386,285,o),
(381,172,cs),
(381,168,o),
(383,166,o),
(386,166,cs),
(409,166,o),
(506,259,o),
(507,288,cs),
(512,398,o),
(519,505,o),
(526,612,cs),
(531,686,o),
(498,715,o),
(417,715,cs),
(398,715,o),
(378,715,o),
(359,715,cs),
(309,715,o),
(258,715,o),
(208,715,cs)
);
},
{
closed = 1;
nodes = (
(523,-11,o),
(529,-16,o),
(538,-16,cs),
(572,-16,o),
(649,52,o),
(654,99,cs),
(658,129,o),
(684,696,o),
(684,697,cs),
(685,711,o),
(679,718,o),
(669,718,cs),
(635,718,o),
(556,646,o),
(554,601,cs),
(553,585,o),
(523,-75,o),
(523,1,cs)
);
},
{
closed = 1;
nodes = (
(580,-14,o),
(651,66,o),
(651,102,cs),
(651,114,o),
(644,120,o),
(625,120,cs),
(560,120,o),
(495,118,o),
(429,118,cs),
(384,118,o),
(348,147,o),
(350,185,cs),
(357,301,o),
(358,416,o),
(363,529,cs),
(363,534,o),
(361,536,o),
(358,536,cs),
(335,536,o),
(238,439,o),
(237,413,cs),
(232,303,o),
(225,196,o),
(218,89,cs),
(213,15,o),
(246,-14,o),
(327,-14,cs),
(346,-14,o),
(366,-14,o),
(385,-14,cs),
(435,-14,o),
(486,-14,o),
(536,-14,cs)
);
},
{
closed = 1;
nodes = (
(523,-11,o),
(529,-16,o),
(538,-16,cs),
(572,-16,o),
(649,52,o),
(654,99,cs),
(658,129,o),
(684,696,o),
(684,697,cs),
(685,711,o),
(679,718,o),
(669,718,cs),
(635,718,o),
(556,646,o),
(554,601,cs),
(553,585,o),
(523,-75,o),
(523,1,cs)
);
},
{
closed = 1;
nodes = (
(580,-14,o),
(651,66,o),
(651,102,cs),
(651,114,o),
(644,120,o),
(625,120,cs),
(560,120,o),
(495,118,o),
(429,118,cs),
(384,118,o),
(348,147,o),
(350,185,cs),
(357,301,o),
(358,416,o),
(363,529,cs),
(363,534,o),
(361,536,o),
(358,536,cs),
(335,536,o),
(238,439,o),
(237,413,cs),
(232,303,o),
(225,196,o),
(218,89,cs),
(213,15,o),
(246,-14,o),
(327,-14,cs),
(346,-14,o),
(366,-14,o),
(385,-14,cs),
(435,-14,o),
(486,-14,o),
(536,-14,cs)
);
}
);
width = 724;
}
);
unicode = 8362;
},
{
glyphname = sterling;
lastChange = "2024-02-14 19:01:11 +0000";
layers = (
{
layerId = m01;
shapes = (
{
closed = 1;
nodes = (
(297,634,o),
(304,647,o),
(304,656,cs),
(304,663,o),
(299,667,o),
(290,667,cs),
(279,667,o),
(261,660,o),
(242,642,cs),
(106,522,o),
(119,444,o),
(102,308,cs),
(92,225,o),
(67,141,o),
(57,129,cs),
(48,119,o),
(45,112,o),
(45,107,cs),
(45,101,o),
(50,98,o),
(58,98,cs),
(74,98,o),
(101,110,o),
(119,131,cs),
(173,193,o),
(174,265,o),
(186,356,cs),
(203,494,o),
(212,560,o),
(280,620,cs)
);
},
{
closed = 1;
nodes = (
(69,394,o),
(35,352,o),
(35,330,cs),
(35,321,o),
(40,317,o),
(51,317,cs),
(52,317,o),
(53,317,o),
(53,317,cs),
(87,319,o),
(301,319,o),
(309,319,cs),
(337,320,o),
(372,362,o),
(372,385,cs),
(372,393,o),
(367,399,o),
(357,399,cs),
(356,399,o),
(356,399,o),
(355,399,cs),
(355,399,o),
(130,398,o),
(97,395,cs)
);
},
{
closed = 1;
nodes = (
(71,182,o),
(15,60,o),
(15,13,cs),
(15,3,o),
(18,-4,o),
(25,-5,cs),
(41,-5,o),
(199,-7,o),
(291,-7,cs),
(317,-7,o),
(337,-7,o),
(349,-6,cs),
(377,-6,o),
(424,110,o),
(424,160,cs),
(424,174,o),
(420,183,o),
(411,182,cs),
(372,182,o),
(201,180,o),
(130,180,cs),
(113,180,o),
(102,180,o),
(99,181,cs)
);
},
{
closed = 1;
nodes = (
(344,479,o),
(487,619,o),
(476,637,cs),
(461,662,o),
(431,720,o),
(372,720,cs),
(344,720,o),
(309,707,o),
(266,670,cs),
(217,629,o),
(150,523,o),
(170,523,cs),
(174,523,o),
(182,527,o),
(194,538,cs),
(216,556,o),
(235,564,o),
(252,564,cs),
(289,564,o),
(315,528,o),
(334,497,cs)
);
}
);
width = 527;
}
);
metricLeft = e;
metricRight = e;
unicode = 163;
},
{
glyphname = won;
lastChange = "2024-02-14 19:02:02 +0000";
layers = (
{
layerId = m01;
shapes = (
{
closed = 1;
nodes = (
(403,-17,o),
(523,103,o),
(514,120,cs),
(451,233,o),
(485,660,o),
(431,712,cs),
(418,725,o),
(296,606,o),
(311,592,cs),
(359,546,o),
(327,119,o),
(392,2,cs)
);
},
{
closed = 1;
nodes = (
(733,696,o),
(734,700,o),
(734,704,cs),
(734,710,o),
(730,713,o),
(724,713,cs),
(699,713,o),
(631,665,o),
(615,626,cs),
(487,315,o),
(437,46,o),
(436,40,cs),
(429,8,o),
(539,124,o),
(546,158,cs),
(549,168,o),
(606,387,o),
(731,690,cs)
);
},
{
closed = 1;
nodes = (
(166,-17,o),
(286,103,o),
(277,120,cs),
(214,233,o),
(246,660,o),
(193,712,cs),
(180,725,o),
(58,606,o),
(73,592,cs),
(120,546,o),
(90,119,o),
(155,2,cs)
);
},
{
closed = 1;
nodes = (
(452,622,o),
(447,625,o),
(437,625,cs),
(413,625,o),
(361,605,o),
(355,589,cs),
(289,416,o),
(201,52,o),
(198,39,cs),
(188,4,o),
(296,119,o),
(304,151,cs),
(307,161,o),
(387,453,o),
(449,615,cs)
);
},
{
closed = 1;
nodes = (
(65,443,o),
(30,400,o),
(30,378,cs),
(30,370,o),
(35,364,o),
(46,364,cs),
(46,364,o),
(47,364,o),
(47,364,cs),
(134,367,o),
(619,367,o),
(650,367,cs),
(678,368,o),
(713,410,o),
(713,432,cs),
(713,441,o),
(708,447,o),
(698,447,cs),
(697,447,o),
(697,447,o),
(696,447,cs),
(696,447,o),
(152,446,o),
(93,444,cs)
);
}
);
width = 704;
}
);
metricLeft = w;
metricRight = w;
unicode = 8361;
},
{
glyphname = yen;
lastChange = "2024-02-14 19:01:19 +0000";
layers = (
{
layerId = m01;
shapes = (
{
closed = 1;
nodes = (
(588,669,o),
(595,685,o),
(595,695,cs),
(595,707,o),
(588,712,o),
(577,712,cs),
(554,712,o),
(514,689,o),
(483,646,cs),
(275,361,o),
(170,37,o),
(169,32,cs),
(166,25,o),
(165,19,o),
(165,14,cs),
(165,3,o),
(171,-1,o),
(180,-1,cs),
(210,-1,o),
(279,51,o),
(295,100,cs),
(300,113,o),
(396,404,o),
(573,648,cs)
);
},
{
closed = 1;
nodes = (
(334,356,o),
(439,470,o),
(416,470,cs),
(414,470,o),
(412,469,o),
(409,468,cs),
(405,467,o),
(401,466,o),
(397,466,cs),
(326,466,o),
(263,714,o),
(185,714,cs),
(182,714,o),
(178,714,o),
(175,713,cs),
(144,704,o),
(30,585,o),
(56,585,cs),
(57,585,o),
(58,585,o),
(59,585,cs),
(127,605,o),
(188,338,o),
(279,338,cs),
(285,338,o),
(291,339,o),
(297,342,cs)
);
},
{
closed = 1;
nodes = (
(94,451,o),
(60,409,o),
(60,387,cs),
(60,379,o),
(65,373,o),
(76,373,cs),
(77,373,o),
(77,373,o),
(78,374,cs),
(136,377,o),
(471,376,o),
(492,376,cs),
(520,377,o),
(555,419,o),
(555,442,cs),
(555,450,o),
(550,456,o),
(540,456,cs),
(539,456,o),
(539,456,o),
(538,456,cs),
(538,456,o),
(163,455,o),
(122,452,cs)
);
},
{
closed = 1;
nodes = (
(54,312,o),
(20,270,o),
(20,248,cs),
(20,240,o),
(25,234,o),
(36,234,cs),
(37,234,o),
(37,234,o),
(38,235,cs),
(96,238,o),
(431,237,o),
(452,237,cs),
(480,238,o),
(515,280,o),
(515,303,cs),
(515,311,o),
(510,317,o),
(500,317,cs),
(499,317,o),
(499,317,o),
(498,317,cs),
(498,317,o),
(123,316,o),
(82,313,cs)
);
}
);
width = 565;
}
);
metricLeft = y;
metricRight = y;
unicode = 165;
},
{
glyphname = plus;
lastChange = "2024-02-14 18:42:46 +0000";
layers = (
{
layerId = m01;
shapes = (
{
closed = 1;
nodes = (
(62,356,o),
(15,231,o),
(15,196,cs),
(15,190,o),
(16,186,o),
(19,186,cs),
(163,187,o),
(308,187,o),
(452,187,cs),
(469,187,o),
(516,311,o),
(516,347,cs),
(516,353,o),
(515,357,o),
(512,357,cs),
(368,356,o),
(223,356,o),
(79,356,cs)
);
},
{
closed = 1;
nodes = (
(351,567,o),
(214,437,o),
(208,403,cs),
(206,396,o),
(181,6,o),
(181,5,cs),
(178,-25,o),
(321,109,o),
(323,141,cs),
(324,147,o),
(351,576,o),
(351,539,cs)
);
}
);
width = 571;
}
);
unicode = 43;
},
{
glyphname = minus;
lastChange = "2024-02-14 18:42:33 +0000";
layers = (
{
layerId = m01;
shapes = (
{
closed = 1;
nodes = (
(62,353,o),
(15,228,o),
(15,193,cs),
(15,187,o),
(16,183,o),
(19,183,cs),
(163,184,o),
(308,184,o),
(452,184,cs),
(469,184,o),
(516,308,o),
(516,344,cs),
(516,350,o),
(515,354,o),
(512,354,cs),
(368,353,o),
(223,353,o),
(79,353,cs)
);
}
);
width = 571;
}
);
unicode = 8722;
},
{
glyphname = multiply;
lastChange = "2024-02-14 18:39:57 +0000";
layers = (
{
layerId = m01;
shapes = (
{
closed = 1;
nodes = (
(483,452,o),
(496,479,o),
(496,495,cs),
(496,507,o),
(490,514,o),
(478,514,cs),
(462,514,o),
(439,503,o),
(411,475,cs),
(383,447,o),
(55,96,o),
(53,94,cs),
(26,66,o),
(15,42,o),
(15,26,cs),
(15,14,o),
(22,7,o),
(34,7,cs),
(50,7,o),
(75,20,o),
(105,52,cs),
(115,63,o),
(433,402,o),
(453,422,cs)
);
},
{
closed = 1;
nodes = (
(336,-17,o),
(456,104,o),
(443,123,cs),
(358,255,o),
(273,387,o),
(188,518,cs),
(176,538,o),
(57,416,o),
(69,398,cs),
(154,266,o),
(239,134,o),
(324,2,cs)
);
}
);
width = 521;
}
);
unicode = 215;
},
{
glyphname = divide;
lastChange = "2024-02-14 18:44:18 +0000";
layers = (
{
layerId = m01;
shapes = (
{
closed = 1;
nodes = (
(62,367,o),
(15,242,o),
(15,207,cs),
(15,201,o),
(16,197,o),
(19,197,cs),
(180,198,o),
(341,198,o),
(502,198,cs),
(519,198,o),
(566,322,o),
(566,358,cs),
(566,364,o),
(565,368,o),
(562,368,cs),
(401,367,o),
(240,367,o),
(79,367,cs)
);
},
{
pos = (182,-19);
ref = period;
},
{
pos = (223,406);
ref = period;
}
);
width = 621;
}
);
unicode = 247;
},
{
glyphname = equal;
lastChange = "2024-02-14 18:45:12 +0000";
layers = (
{
layerId = m01;
shapes = (
{
closed = 1;
nodes = (
(98,462,o),
(51,337,o),
(51,302,cs),
(51,296,o),
(52,292,o),
(55,292,cs),
(199,293,o),
(344,293,o),
(488,293,cs),
(505,293,o),
(552,417,o),
(552,453,cs),
(552,459,o),
(551,463,o),
(548,463,cs),
(404,462,o),
(259,462,o),
(115,462,cs)
);
},
{
closed = 1;
nodes = (
(62,209,o),
(15,84,o),
(15,49,cs),
(15,43,o),
(16,39,o),
(19,39,cs),
(163,40,o),
(308,40,o),
(452,40,cs),
(469,40,o),
(516,164,o),
(516,200,cs),
(516,206,o),
(515,210,o),
(512,210,cs),
(368,209,o),
(223,209,o),
(79,209,cs)
);
}
);
width = 607;
}
);
unicode = 61;
},
{
glyphname = notequal;
lastChange = "2024-02-14 18:46:05 +0000";
layers = (
{
layerId = m01;
shapes = (
{
pos = (5,13);
ref = equal;
},
{
closed = 1;
nodes = (
(490,522,o),
(496,538,o),
(496,549,cs),
(496,560,o),
(489,566,o),
(478,566,cs),
(456,566,o),
(419,544,o),
(387,499,cs),
(357,457,o),
(97,20,o),
(95,16,cs),
(85,-1,o),
(81,-14,o),
(81,-22,cs),
(81,-33,o),
(87,-38,o),
(98,-38,cs),
(123,-38,o),
(170,-8,o),
(199,40,cs),
(209,57,o),
(464,485,o),
(475,501,cs)
);
}
);
width = 612;
}
);
unicode = 8800;
},
{
glyphname = greater;
lastChange = "2024-02-14 17:17:26 +0000";
layers = (
{
layerId = m01;
shapes = (
{
closed = 1;
nodes = (
(99,60,o),
(86,41,o),
(86,28,cs),
(86,17,o),
(94,11,o),
(108,11,cs),
(124,11,o),
(148,19,o),
(177,40,cs),
(271,107,o),
(365,174,o),
(459,241,cs),
(489,262,o),
(502,282,o),
(502,296,cs),
(502,307,o),
(495,313,o),
(481,313,cs),
(464,313,o),
(440,304,o),
(411,283,cs),
(317,216,o),
(223,149,o),
(129,82,cs)
);
},
{
closed = 1;
nodes = (
(365,210,o),
(369,209,o),
(375,209,cs),
(415,209,o),
(504,269,o),
(504,300,cs),
(504,305,o),
(502,308,o),
(498,311,cs),
(404,378,o),
(310,445,o),
(216,511,cs),
(213,514,o),
(209,515,o),
(203,515,cs),
(163,515,o),
(74,455,o),
(74,424,cs),
(74,419,o),
(75,416,o),
(80,413,cs),
(174,346,o),
(268,279,o),
(362,213,cs)
);
}
);
width = 579;
}
);
unicode = 62;
},
{
glyphname = less;
lastChange = "2024-02-14 17:17:26 +0000";
layers = (
{
layerId = m01;
shapes = (
{
closed = 1;
nodes = (
(481,463,o),
(494,483,o),
(494,496,cs),
(494,507,o),
(487,513,o),
(473,513,cs),
(456,513,o),
(432,505,o),
(403,484,cs),
(309,417,o),
(215,350,o),
(120,283,cs),
(90,261,o),
(77,242,o),
(77,229,cs),
(77,218,o),
(85,212,o),
(99,212,cs),
(115,212,o),
(139,220,o),
(168,241,cs),
(262,308,o),
(356,375,o),
(451,442,cs)
);
},
{
closed = 1;
nodes = (
(214,314,o),
(210,315,o),
(204,315,cs),
(164,315,o),
(75,255,o),
(75,224,cs),
(75,219,o),
(76,216,o),
(81,213,cs),
(175,146,o),
(269,79,o),
(364,13,cs),
(367,10,o),
(371,9,o),
(377,9,cs),
(417,9,o),
(506,69,o),
(506,100,cs),
(506,105,o),
(504,108,o),
(500,111,cs),
(406,178,o),
(312,245,o),
(217,311,cs)
);
}
);
width = 580;
}
);
unicode = 60;
},
{
glyphname = greaterequal;
lastChange = "2024-02-14 17:17:26 +0000";
layers = (
{
layerId = m01;
shapes = (
{
closed = 1;
nodes = (
(168,253,o),
(143,223,o),
(143,205,cs),
(143,195,o),
(150,189,o),
(164,189,cs),
(175,189,o),
(189,193,o),
(209,201,cs),
(288,234,o),
(367,268,o),
(446,301,cs),
(493,321,o),
(518,351,o),
(518,369,cs),
(518,379,o),
(511,385,o),
(497,385,cs),
(486,385,o),
(472,381,o),
(452,373,cs),
(373,340,o),
(294,306,o),
(215,273,cs)
);
},
{
closed = 1;
nodes = (
(465,290,o),
(552,381,o),
(552,419,cs),
(552,426,o),
(550,431,o),
(544,433,cs),
(456,474,o),
(368,514,o),
(280,555,cs),
(277,556,o),
(274,557,o),
(270,557,cs),
(228,557,o),
(126,488,o),
(126,456,cs),
(126,451,o),
(128,447,o),
(134,445,cs),
(234,398,o),
(334,352,o),
(434,305,cs)
);
},
{
closed = 1;
nodes = (
(116,134,o),
(74,24,o),
(74,-10,cs),
(74,-16,o),
(76,-20,o),
(79,-20,cs),
(203,-20,o),
(328,-20,o),
(452,-19,cs),
(469,-19,o),
(511,90,o),
(511,125,cs),
(511,131,o),
(509,135,o),
(506,135,cs),
(382,135,o),
(257,135,o),
(133,134,cs)
);
}
);
width = 627;
}
);
unicode = 8805;
},
{
glyphname = lessequal;
lastChange = "2024-02-14 17:17:26 +0000";
layers = (
{
layerId = m01;
shapes = (
{
closed = 1;
nodes = (
(116,119,o),
(74,9,o),
(74,-25,cs),
(74,-31,o),
(76,-35,o),
(79,-35,cs),
(203,-35,o),
(328,-35,o),
(452,-34,cs),
(469,-34,o),
(511,75,o),
(511,110,cs),
(511,116,o),
(509,120,o),
(506,120,cs),
(382,120,o),
(257,120,o),
(133,119,cs)
);
},
{
closed = 1;
nodes = (
(523,484,o),
(550,519,o),
(550,538,cs),
(550,547,o),
(544,553,o),
(532,553,cs),
(522,553,o),
(508,550,o),
(490,541,cs),
(396,498,o),
(301,454,o),
(207,410,cs),
(160,389,o),
(133,354,o),
(133,335,cs),
(133,326,o),
(139,320,o),
(151,320,cs),
(161,320,o),
(175,323,o),
(193,332,cs),
(287,375,o),
(382,419,o),
(476,463,cs)
);
},
{
closed = 1;
nodes = (
(272,427,o),
(269,428,o),
(265,428,cs),
(224,428,o),
(126,359,o),
(126,328,cs),
(126,323,o),
(129,319,o),
(135,316,cs),
(229,272,o),
(323,229,o),
(418,185,cs),
(421,183,o),
(425,183,o),
(429,183,cs),
(472,183,o),
(567,251,o),
(567,283,cs),
(567,288,o),
(564,292,o),
(558,295,cs),
(464,339,o),
(370,382,o),
(275,426,cs)
);
}
);
width = 642;
}
);
unicode = 8804;
},
{
glyphname = plusminus;
lastChange = "2024-02-14 17:17:26 +0000";
layers = (
{
layerId = m01;
shapes = (
{
closed = 1;
nodes = (
(62,119,o),
(20,9,o),
(20,-25,cs),
(20,-31,o),
(22,-35,o),
(25,-35,cs),
(149,-35,o),
(274,-35,o),
(398,-34,cs),
(415,-34,o),
(457,75,o),
(457,110,cs),
(457,116,o),
(455,120,o),
(452,120,cs),
(328,120,o),
(203,120,o),
(79,119,cs)
);
},
{
closed = 1;
nodes = (
(69,454,o),
(22,329,o),
(22,294,cs),
(22,288,o),
(23,284,o),
(26,284,cs),
(170,285,o),
(315,285,o),
(459,285,cs),
(476,285,o),
(523,409,o),
(523,445,cs),
(523,451,o),
(522,455,o),
(519,455,cs),
(375,454,o),
(230,454,o),
(86,454,cs)
);
},
{
closed = 1;
nodes = (
(355,611,o),
(218,481,o),
(212,447,cs),
(210,440,o),
(191,158,o),
(191,157,cs),
(188,127,o),
(331,261,o),
(333,293,cs),
(334,297,o),
(355,614,o),
(355,583,cs)
);
}
);
width = 573;
}
);
unicode = 177;
},
{
glyphname = asciitilde;
lastChange = "2024-02-14 17:17:26 +0000";
layers = (
{
layerId = m01;
shapes = (
{
closed = 1;
nodes = (
(522,259,o),
(554,350,o),
(554,391,cs),
(554,402,o),
(552,410,o),
(545,410,cs),
(542,410,o),
(539,409,o),
(536,406,cs),
(476,369,o),
(441,355,o),
(416,355,cs),
(383,355,o),
(368,378,o),
(341,397,cs),
(305,423,o),
(274,444,o),
(232,444,cs),
(196,444,o),
(152,429,o),
(89,388,cs),
(63,371,o),
(30,279,o),
(30,239,cs),
(30,227,o),
(32,220,o),
(39,220,cs),
(42,220,o),
(45,221,o),
(49,224,cs),
(109,264,o),
(148,279,o),
(178,279,cs),
(214,279,o),
(238,257,o),
(275,231,cs),
(297,215,o),
(318,190,o),
(361,190,cs),
(392,190,o),
(433,203,o),
(494,242,cs)
);
}
);
width = 605;
}
);
unicode = 126;
},
{
glyphname = logicalnot;
lastChange = "2024-02-14 17:17:26 +0000";
layers = (
{
layerId = m01;
shapes = (
{
closed = 1;
nodes = (
(97,423,o),
(50,298,o),
(50,263,cs),
(50,257,o),
(51,253,o),
(54,253,cs),
(197,254,o),
(341,254,o),
(484,254,cs),
(501,254,o),
(548,378,o),
(548,414,cs),
(548,420,o),
(547,424,o),
(544,424,cs),
(401,423,o),
(257,423,o),
(114,423,cs)
);
},
{
closed = 1;
nodes = (
(548,434,o),
(413,307,o),
(405,272,cs),
(403,265,o),
(387,9,o),
(387,8,cs),
(385,-22,o),
(527,112,o),
(529,144,cs),
(530,148,o),
(548,438,o),
(548,407,cs)
);
}
);
width = 598;
}
);
unicode = 172;
},
{
glyphname = asciicircum;
lastChange = "2024-02-14 19:03:20 +0000";
layers = (
{
layerId = m01;
shapes = (
{
closed = 1;
nodes = (
(379,319,o),
(386,316,o),
(394,316,cs),
(433,316,o),
(512,369,o),
(512,401,cs),
(512,404,o),
(512,407,o),
(510,409,cs),
(458,504,o),
(406,599,o),
(353,693,cs),
(350,699,o),
(344,702,o),
(335,702,cs),
(297,702,o),
(217,648,o),
(217,616,cs),
(217,614,o),
(217,611,o),
(219,609,cs),
(271,514,o),
(323,419,o),
(376,325,cs)
);
},
{
closed = 1;
nodes = (
(350,681,o),
(352,687,o),
(352,691,cs),
(352,700,o),
(345,703,o),
(335,703,cs),
(302,703,o),
(233,667,o),
(210,627,cs),
(155,531,o),
(101,434,o),
(46,338,cs),
(42,330,o),
(40,324,o),
(40,319,cs),
(40,311,o),
(46,308,o),
(56,308,cs),
(89,308,o),
(160,345,o),
(182,384,cs),
(237,480,o),
(291,577,o),
(346,673,cs)
);
}
);
width = 572;
}
);
unicode = 94;
},
{
glyphname = infinity;
lastChange = "2024-02-14 17:17:26 +0000";
layers = (
{
layerId = m01;
shapes = (
{
closed = 1;
nodes = (
(199,421,o),
(205,438,o),
(195,438,cs),
(185,438,o),
(154,418,o),
(120,380,cs),
(71,328,o),
(50,279,o),
(50,239,cs),
(50,181,o),
(94,143,o),
(160,143,cs),
(202,143,o),
(253,158,o),
(308,194,cs),
(355,224,o),
(407,299,o),
(407,324,cs),
(407,330,o),
(404,333,o),
(399,333,cs),
(394,333,o),
(386,330,o),
(374,322,cs),
(332,295,o),
(297,285,o),
(269,285,cs),
(185,285,o),
(158,377,o),
(164,384,cs)
);
},
{
closed = 1;
nodes = (
(224,483,o),
(102,353,o),
(140,369,cs),
(156,375,o),
(171,378,o),
(187,378,cs),
(253,378,o),
(312,325,o),
(365,274,cs),
(372,267,o),
(494,389,o),
(487,396,cs),
(434,446,o),
(380,506,o),
(309,506,cs),
(292,506,o),
(274,503,o),
(256,495,cs)
);
},
{
closed = 1;
nodes = (
(679,218,o),
(675,206,o),
(683,206,cs),
(696,206,o),
(736,235,o),
(772,278,cs),
(806,319,o),
(823,365,o),
(823,405,cs),
(823,461,o),
(789,505,o),
(721,505,cs),
(658,505,o),
(565,468,o),
(444,367,cs),
(404,334,o),
(385,307,o),
(385,293,cs),
(385,287,o),
(389,284,o),
(396,284,cs),
(409,284,o),
(436,297,o),
(472,327,cs),
(506,355,o),
(543,366,o),
(578,366,cs),
(652,366,o),
(715,319,o),
(715,276,cs),
(715,266,o),
(711,257,o),
(704,248,cs)
);
},
{
closed = 1;
nodes = (
(650,145,o),
(771,274,o),
(732,259,cs),
(716,254,o),
(702,251,o),
(688,251,cs),
(611,251,o),
(552,330,o),
(488,396,cs),
(481,403,o),
(359,281,o),
(366,274,cs),
(430,208,o),
(482,123,o),
(566,123,cs),
(581,123,o),
(598,126,o),
(616,133,cs)
);
}
);
width = 873;
}
);
unicode = 8734;
},
